<?xml version="1.0" encoding="UTF-8"?>
<svg width="36px" height="36px" viewBox="0 0 36 36" version="1.1" xmlns="http://www.w3.org/2000/svg" xmlns:xlink="http://www.w3.org/1999/xlink">
    <!-- Generator: sketchtool 52.6 (67491) - http://www.bohemiancoding.com/sketch -->
    <title>DF75D797-685E-485B-B19F-9524847DF77B</title>
    <desc>Created with sketchtool.</desc>
    <g id="Page-1" stroke="none" stroke-width="1" fill="none" fill-rule="evenodd">
        <g id="Menu-White" transform="translate(-1188.000000, -264.000000)" fill="#222222">
            <g id="Social" transform="translate(1188.000000, 264.000000)">
                <g id="Instagram">
                    <path d="M0,18 C0,8.05887401 8.05887401,0 18,0 C27.941126,0 36,8.05887401 36,18 C36,27.941126 27.941126,36 18,36 C8.05887401,36 0,27.941126 0,18 Z M18.0009,8.4 C15.3936729,8.4 15.0664694,8.41140012 14.0424588,8.4580006 C13.0204481,8.50480109 12.3228409,8.66660278 11.7124345,8.90400525 C11.0810279,9.1492078 10.5454223,9.47721122 10.0118168,10.0110168 C9.47781123,10.5446223 9.14980781,11.0802279 8.90380525,11.7114345 C8.66580277,12.3220409 8.50380108,13.0198481 8.4578006,14.0414588 C8.41200013,15.0654694 8.4,15.3928728 8.4,18.0001 C8.4,20.6073272 8.41160012,20.9335306 8.4580006,21.9575412 C8.50500109,22.9795519 8.66680278,23.6771591 8.90400525,24.2875655 C9.14940781,24.9189721 9.47741122,25.4545777 10.0112168,25.9881832 C10.5446223,26.5221888 11.0802279,26.8509922 11.7112345,27.0961948 C12.3220409,27.3335972 13.0198481,27.4953989 14.0416588,27.5421994 C15.0656694,27.5887999 15.3926728,27.6002 17.9997,27.6002 C20.6071272,27.6002 20.9333306,27.5887999 21.9573412,27.5421994 C22.9793519,27.4953989 23.6777591,27.3335972 24.2885655,27.0961948 C24.9197721,26.8509922 25.4545777,26.5221888 25.9879832,25.9881832 C26.5219888,25.4545777 26.8499922,24.9189721 27.0959947,24.2877655 C27.3319972,23.6771591 27.4939989,22.9793519 27.5419994,21.9577412 C27.5879999,20.9337306 27.6,20.6073272 27.6,18.0001 C27.6,15.3928728 27.5879999,15.0656694 27.5419994,14.0416588 C27.4939989,13.0196481 27.3319972,12.3220409 27.0959947,11.7116345 C26.8499922,11.0802279 26.5219888,10.5446223 25.9879832,10.0110168 C25.4539776,9.47701122 24.9199721,9.1490078 24.2879655,8.90400525 C23.6759591,8.66660278 22.9779519,8.50480109 21.9559412,8.4580006 C20.9319305,8.41140012 20.6059271,8.4 17.9979,8.4 L18.0009,8.4 Z" id="Combined-Shape"></path>
                    <path d="M17.139691,10.130018 C17.3952937,10.129618 17.6804967,10.130018 18.0009,10.130018 C20.5641267,10.130018 20.8679299,10.1392181 21.8801404,10.1852186 C22.8161502,10.228019 23.3241555,10.3844207 23.662559,10.515822 C24.1105637,10.6898239 24.429967,10.897826 24.7657705,11.2338295 C25.101774,11.569833 25.3097761,11.8898364 25.484178,12.337841 C25.6155793,12.6758445 25.772181,13.1838498 25.8147814,14.1198596 C25.8607819,15.1318701 25.870782,15.4358733 25.870782,17.9979 C25.870782,20.5599267 25.8607819,20.8639298 25.8147814,21.8759404 C25.771981,22.8119501 25.6155793,23.3199554 25.484178,23.6579589 C25.3101761,24.1059636 25.101774,24.4249669 24.7657705,24.7607704 C24.429767,25.0967739 24.1107637,25.3047761 23.662559,25.4787779 C23.3245555,25.6107793 22.8161502,25.7667809 21.8801404,25.8095813 C20.8681299,25.8555818 20.5641267,25.8655819 18.0009,25.8655819 C15.4374733,25.8655819 15.1336701,25.8555818 14.1216596,25.8095813 C13.1856499,25.7663809 12.6776446,25.6099793 12.339041,25.4785779 C11.8910364,25.3045761 11.571033,25.0965739 11.2350295,24.7605704 C10.899026,24.4245669 10.6910239,24.1053636 10.516622,23.6571589 C10.3852207,23.3191554 10.228619,22.8111501 10.1860186,21.8751404 C10.1400181,20.8631298 10.130818,20.5591267 10.130818,17.9955 C10.130818,15.4318732 10.1400181,15.1294701 10.1860186,14.1174596 C10.2288191,13.1814498 10.3852207,12.6734445 10.516622,12.335041 C10.6906239,11.8870363 10.899026,11.567033 11.2350295,11.2310295 C11.571033,10.895026 11.8910364,10.6870238 12.339041,10.512622 C12.6774446,10.3806206 13.1856499,10.224619 14.1216596,10.1816186 C15.0072688,10.1416181 15.3504724,10.129618 17.139691,10.127618 L17.139691,10.130018 Z M23.1253534,11.7240346 C22.4893468,11.7240346 21.9733414,12.23944 21.9733414,12.8756466 C21.9733414,13.5116532 22.4893468,14.0276586 23.1253534,14.0276586 C23.76136,14.0276586 24.2773654,13.5116532 24.2773654,12.8756466 C24.2773654,12.23964 23.76136,11.7236346 23.1253534,11.7236346 L23.1253534,11.7240346 Z M18.0009,13.0700486 C15.2782716,13.0700486 13.0708487,15.2774716 13.0708487,18.0001 C13.0708487,20.7227284 15.2782716,22.9291513 18.0009,22.9291513 C20.7235284,22.9291513 22.9301514,20.7227284 22.9301514,18.0001 C22.9301514,15.2774716 20.7233284,13.0700486 18.0007,13.0700486 L18.0009,13.0700486 Z" id="Combined-Shape"></path>
                    <path d="M18.0009,14.8000667 C19.7681184,14.8000667 21.2009333,16.2326816 21.2009333,18.0001 C21.2009333,19.7673184 19.7681184,21.2001333 18.0009,21.2001333 C16.2334816,21.2001333 14.8008667,19.7673184 14.8008667,18.0001 C14.8008667,16.2326816 16.2334816,14.8000667 18.0009,14.8000667 L18.0009,14.8000667 Z" id="Shape"></path>
                </g>
            </g>
        </g>
    </g>
</svg>