<?xml version="1.0" encoding="UTF-8"?>
<svg width="36px" height="36px" viewBox="0 0 36 36" version="1.1" xmlns="http://www.w3.org/2000/svg" xmlns:xlink="http://www.w3.org/1999/xlink">
    <!-- Generator: sketchtool 52.6 (67491) - http://www.bohemiancoding.com/sketch -->
    <title>9CFFE9D8-DBF0-4B13-BBAA-EE5EE2D5C363</title>
    <desc>Created with sketchtool.</desc>
    <g id="Page-1" stroke="none" stroke-width="1" fill="none" fill-rule="evenodd">
        <g id="Menu-White" transform="translate(-1188.000000, -480.000000)" fill="#222222">
            <g id="Social" transform="translate(1188.000000, 264.000000)">
                <g id="Vimeo" transform="translate(0.000000, 216.000000)">
                    <path d="M0,18 C0,8.05887401 8.05887401,0 18,0 C27.941126,0 36,8.05887401 36,18 C36,27.941126 27.941126,36 18,36 C8.05887401,36 0,27.941126 0,18 Z M28.1894978,14.521505 C28.3177754,11.7081151 27.2708806,10.2689149 25.0515531,10.2039043 C22.0580764,10.1075093 20.0300446,11.7960413 18.9682047,15.2724895 C19.516685,15.0373554 20.0499712,14.9182938 20.567067,14.9182938 C21.665522,14.9182938 22.1502371,15.5360191 22.0209631,16.7682315 C21.9557034,17.5149816 21.4709884,18.6014807 20.567067,20.0292231 C19.6614021,21.4579618 18.9819043,22.171833 18.5303172,22.171833 C17.9482108,22.171833 17.4149246,21.0721326 16.9297114,18.8704901 C16.7668113,18.2246184 16.4761317,16.5744451 16.0564272,13.9207173 C15.6681072,11.4615232 14.6334174,10.3127535 12.953105,10.4744082 C12.2417246,10.5394188 11.1736577,11.1857886 9.75189332,12.4137666 C8.71745259,13.3515632 7.66607424,14.2881144 6.6,15.2244165 L7.61575952,16.5330974 C8.58394423,15.8560904 9.14936211,15.5160924 9.31101682,15.5160924 C10.0527853,15.5160924 10.7457336,16.6790599 11.3923524,19.0025039 C11.9737116,21.133407 12.5543235,23.264061 13.1354336,25.394964 C14.0059779,27.7196535 15.0713049,28.8811264 16.3309164,28.8811264 C18.3626845,28.8811264 20.8475342,26.9724052 23.78422,23.1567063 C26.625009,19.502413 28.0933519,16.6240126 28.1894978,14.521505 Z" id="Combined-Shape"></path>
                </g>
            </g>
        </g>
    </g>
</svg>