<?xml version="1.0" encoding="UTF-8"?>
<svg width="36px" height="36px" viewBox="0 0 36 36" version="1.1" xmlns="http://www.w3.org/2000/svg" xmlns:xlink="http://www.w3.org/1999/xlink">
    <!-- Generator: Sketch 52.6 (67491) - http://www.bohemiancoding.com/sketch -->
    <title>Youtube</title>
    <desc>Created with Sketch.</desc>
    <g id="Page-1" stroke="none" stroke-width="1" fill="none" fill-rule="evenodd">
        <g id="Landingpage" transform="translate(-1257.000000, -8713.000000)" fill="#FFFFFF">
            <g id="Foot" transform="translate(0.000000, 7956.000000)">
                <g id="Footer" transform="translate(0.000000, 614.000000)">
                    <g id="Social" transform="translate(1117.000000, 143.000000)">
                        <g id="Youtube" transform="translate(140.000000, 0.000000)">
                            <path d="M0,18 C0,8.05887401 8.05887401,0 18,0 C27.941126,0 36,8.05887401 36,18 C36,27.941126 27.941126,36 18,36 C8.05887401,36 0,27.941126 0,18 Z M27.1987636,13.5549145 C26.9779636,12.7066597 26.3273455,12.0386952 25.5012,11.8119968 C24.0040364,11.4 18,11.4 18,11.4 C18,11.4 11.9959636,11.4 10.4986909,11.8119968 C9.67254545,12.0386952 9.02192727,12.7066597 8.80112727,13.5549145 C8.4,15.092279 8.4,18.3 8.4,18.3 C8.4,18.3 8.4,21.5076097 8.80112727,23.0450855 C9.02192727,23.8933403 9.67254545,24.5613048 10.4986909,24.7881145 C11.9959636,25.2 18,25.2 18,25.2 C18,25.2 24.0040364,25.2 25.5012,24.7881145 C26.3273455,24.5613048 26.9779636,23.8933403 27.1987636,23.0450855 C27.6,21.5076097 27.6,18.3 27.6,18.3 C27.6,18.3 27.6,15.092279 27.1987636,13.5549145 Z" id="Combined-Shape"></path>
                            <polygon id="Fill-2" points="16.2 21.6 16.2 15.6 21 18.6001146"></polygon>
                        </g>
                    </g>
                </g>
            </g>
        </g>
    </g>
</svg>