<?xml version="1.0" encoding="UTF-8"?>
<svg width="36px" height="36px" viewBox="0 0 36 36" version="1.1" xmlns="http://www.w3.org/2000/svg" xmlns:xlink="http://www.w3.org/1999/xlink">
    <!-- Generator: Sketch 52.6 (67491) - http://www.bohemiancoding.com/sketch -->
    <title>Facebook</title>
    <desc>Created with Sketch.</desc>
    <g id="Page-1" stroke="none" stroke-width="1" fill="none" fill-rule="evenodd">
        <g id="Landingpage" transform="translate(-1187.000000, -8713.000000)" fill="#FFFFFF">
            <g id="Foot" transform="translate(0.000000, 7956.000000)">
                <g id="Footer" transform="translate(0.000000, 614.000000)">
                    <g id="Social" transform="translate(1117.000000, 143.000000)">
                        <g id="Facebook" transform="translate(70.000000, 0.000000)">
                            <path d="M0,18 C0,8.05887401 8.05887401,0 18,0 C27.941126,0 36,8.05887401 36,18 C36,27.941126 27.941126,36 18,36 C8.05887401,36 0,27.941126 0,18 Z M19.8761663,28.5836075 L19.8761663,18.7906572 L22.5794489,18.7906572 L22.9376922,15.4159523 L19.8761663,15.4159523 L19.8807592,13.72688 C19.8807592,12.846705 19.9643876,12.3750871 21.2285731,12.3750871 L22.9185553,12.3750871 L22.9185553,9 L20.21489,9 C16.9673531,9 15.8243043,10.637095 15.8243043,13.3901739 L15.8243043,15.4163345 L13.8,15.4163345 L13.8,18.7910394 L15.8243043,18.7910394 L15.8243043,28.5836075 L19.8761663,28.5836075 Z" id="Combined-Shape"></path>
                        </g>
                    </g>
                </g>
            </g>
        </g>
    </g>
</svg>