<?xml version="1.0" standalone="no"?>
<!DOCTYPE svg PUBLIC "-//W3C//DTD SVG 1.1//EN" "http://www.w3.org/Graphics/SVG/1.1/DTD/svg11.dtd" >
<svg xmlns="http://www.w3.org/2000/svg" xmlns:xlink="http://www.w3.org/1999/xlink" version="1.1">
<metadata>
Created by FontForge 20161003 at Fri Apr 12 07:52:45 2019
 By www-data
Copyright (c) 2010 by David Brezina. All rights reserved.
</metadata>
<defs>
<font id="SkolarLatinRegular" horiz-adv-x="550" >
  <font-face 
    font-family="SkolarLatinRegular"
    font-weight="400"
    font-stretch="normal"
    units-per-em="1000"
    panose-1="2 0 6 3 4 3 0 0 0 4"
    ascent="750"
    descent="-250"
    x-height="471"
    cap-height="671"
    bbox="-357.556 -350 1198 1078"
    underline-thickness="50"
    underline-position="-183"
    unicode-range="U+000D-2638"
  />
<missing-glyph horiz-adv-x="426" 
d="M426 0h-426v598h426v-598zM359 554h-291l146 -217zM384 80v436l-145 -217zM43 516v-436l144 219zM68 43h291l-145 217z" />
    <glyph glyph-name="f_b" unicode="fb" horiz-adv-x="879" 
d="M630 -14q-31 0 -72 15.5t-77 41.5q-16 -20 -34 -38t-31 -25q-10 1 -18 8t-11 14q16 28 24.5 58t8.5 57v557q-31 14 -61.5 20.5t-57.5 6.5q-23 0 -43 -5t-27 -12q-13 -17 -24.5 -62t-11.5 -118v-32l121 -2q0 -16 -1 -31t-3 -30h-117v-272q0 -20 1 -38.5t2 -36.5
q18 -1 39 -6t36 -12q0 -11 -1.5 -24.5t-4.5 -20.5q-33 1 -65.5 1.5t-62.5 0.5q-26 0 -52 -1t-53 -1q-3 6 -5 19.5t-2 25.5q21 2 43 7.5t37 10.5q2 16 3 28t1 27v292q-12 3 -34 7t-41 6q-3 10 -3 20t1 20q16 4 36.5 7t40.5 5v9q0 134 53 208.5t154 74.5q25 0 53 -4t53 -10
q19 5 40.5 9t35.5 5l8 -8q-2 -75 -3 -140.5t-1 -147.5v-47q31 26 70 42t84 16q80 0 130.5 -65t50.5 -173q0 -46 -16 -92t-43.5 -82.5t-66 -59.5t-83.5 -23zM630 412q-25 0 -59 -11.5t-67 -32.5v-250q29 -30 64.5 -47.5t72.5 -17.5q31 0 52.5 14.5t35 37t19.5 52t6 58.5
q0 37 -8 73t-23.5 63t-38.5 44t-54 17z" />
    <glyph glyph-name="f_f" unicode="ff" horiz-adv-x="659" 
d="M630 44q0 -11 -1.5 -24.5t-4.5 -20.5q-41 1 -81 1.5t-74 0.5q-31 0 -60.5 -1t-60.5 -1q-3 6 -5 19.5t-2 25.5q21 2 43 7t37 10q2 16 3 28.5t1 27.5v292h-230v-272q0 -20 1 -38.5t2 -36.5q18 -1 39 -6t36 -12q0 -11 -1.5 -24.5t-4.5 -20.5q-30 1 -59.5 1.5t-54.5 0.5
q-31 0 -59.5 -1t-59.5 -1q-3 6 -5 19.5t-2 25.5q21 2 43 7t37 10q2 16 3 28.5t1 27.5v292q-12 3 -34 7t-41 6q-3 10 -3 20t1 20q18 4 39 7.5t39 4.5q3 61 23.5 109.5t54.5 81.5t79 50.5t97 17.5q33 0 66 -5.5t64 -15.5q24 26 55.5 40t69.5 14t70 -7t60 -18q0 -34 -6 -67.5
t-16 -66.5q-16 -4 -30.5 -3.5t-24.5 7.5q-1 21 -2.5 42.5t-5.5 42.5q-13 2 -26.5 3.5t-26.5 1.5q-25 0 -44.5 -7t-23.5 -12q-15 -17 -25.5 -65t-10.5 -113v-33l121 -1q0 -16 -1 -31t-3 -30h-117v-272q0 -20 1 -38.5t2 -36.5q28 -1 61.5 -6t56.5 -12zM257 651
q-20 -19 -40.5 -64.5t-21.5 -114.5l230 -1v12q0 47 7.5 88t21.5 75q-34 10 -65.5 16t-56.5 6q-22 0 -45 -5t-30 -12z" />
    <glyph glyph-name="f_h" unicode="fh" horiz-adv-x="899" 
d="M884 44q0 -11 -1.5 -24.5t-5.5 -20.5q-10 0 -25.5 0.5t-31.5 1t-31 0.5h-24q-31 0 -62 -1t-59 -1q-3 6 -5 19.5t-2 25.5q21 2 43 7t38 10q1 16 2 28.5t1 27.5v168q0 56 -16 93t-75 37q-38 0 -69.5 -8.5t-56.5 -20.5v-249q0 -20 1 -38.5t2 -36.5q20 -2 41 -7t34 -11
q0 -11 -1.5 -24.5t-4.5 -20.5q-10 0 -25.5 0.5t-31.5 1t-31 0.5h-24q-31 0 -62 -1t-59 -1q-3 6 -5 19.5t-2 25.5q21 2 43 7t37 10q2 16 3 28.5t1 27.5v557q-31 14 -61.5 20.5t-57.5 6.5q-23 0 -43 -5t-27 -12q-13 -17 -24.5 -62t-11.5 -118v-32l121 -2q0 -16 -1 -31t-3 -30
h-117v-272q0 -20 1 -38.5t2 -36.5q18 -1 39 -6t36 -12q0 -11 -1.5 -24.5t-4.5 -20.5q-33 1 -65.5 1.5t-62.5 0.5q-26 0 -52 -1t-53 -1q-3 6 -5 19.5t-2 25.5q21 2 43 7.5t37 10.5q2 16 3 28t1 27v292q-12 3 -34 7t-41 6q-3 10 -3 20t1 20q16 4 36.5 7t40.5 5v9
q0 134 53 208.5t154 74.5q25 0 53 -4t53 -10q19 5 40.5 9t35.5 5l8 -8q-2 -75 -3 -140.5t-1 -147.5v-38q26 18 70 35t93 17q66 0 102 -38.5t36 -121.5v-187q0 -20 1 -38.5t2 -36.5q20 -2 41 -7t35 -11z" />
    <glyph glyph-name="f_i" unicode="fi" horiz-adv-x="615" 
d="M587 44q0 -11 -1.5 -24.5t-4.5 -20.5q-10 0 -25.5 0.5t-31.5 1t-31 0.5h-24q-31 0 -62 -1t-59 -1q-3 6 -5 19.5t-2 25.5q21 2 43 7.5t37 10.5q2 14 3 27t1 28v292h-230v-272q0 -20 1 -38.5t2 -36.5q18 -2 39.5 -6.5t35.5 -11.5q0 -11 -1.5 -24.5t-4.5 -20.5
q-30 1 -58.5 1.5t-53.5 0.5q-31 0 -60.5 -1t-60.5 -1q-3 6 -5 19.5t-2 25.5q21 2 43 7t37 10q2 16 3 28.5t1 27.5v292q-12 3 -34 7t-41 6q-3 10 -3 20t1 20q16 4 36.5 7t40.5 5v9q0 63 12.5 115t39 89.5t67 58t95.5 20.5q58 0 110 -14.5t95 -36.5q0 -37 -8 -70.5t-25 -64.5
q-12 -5 -25 -5t-26 5q-10 25 -14 51.5t-4 53.5q-17 7 -46.5 11.5t-70.5 4.5q-28 0 -49.5 -5.5t-27.5 -12.5q-14 -16 -26.5 -61t-12.5 -118v-32h139q36 0 83.5 3.5t87.5 7.5l8 -8q-2 -75 -3 -140.5t-1 -147.5v-50q0 -20 1 -38.5t2 -36.5q20 -2 41 -7t34 -11z" />
    <glyph glyph-name="f_iacute" unicode="f&#xed;" horiz-adv-x="615" 
d="M155 1q-31 0 -60.5 -1t-60.5 -1q-3 6 -5 19.5t-2 25.5q21 2 43 7t37 10q3 24 3.5 44.5t0.5 43.5v260q-12 3 -34 7t-41 6q-3 10 -3 20t1 20q16 4 36.5 7t40.5 4v10q0 128 54 205.5t138 77.5q34 0 60 -5.5t54 -16.5q-1 -34 -8 -65.5t-15 -58.5q-13 -3 -28 -2.5t-27 6.5
q-1 21 -2 37.5t-5 37.5q-9 1 -19.5 1.5t-23.5 0.5q-19 0 -36.5 -7t-21.5 -12q-16 -19 -26 -70.5t-10 -123.5v-16h110q52 0 98.5 3t101.5 8l8 -8q-2 -75 -3 -140.5t-1 -147.5v-50q0 -20 1 -38.5t2 -36.5q20 -2 41 -7t34 -11q0 -11 -1.5 -24.5t-4.5 -20.5q-10 0 -25.5 0.5
t-31.5 1t-31 0.5h-24q-31 0 -62 -1t-59 -1q-3 6 -5 19.5t-2 25.5q21 2 43 7.5t37 10.5q3 21 3.5 43t0.5 44v260h-230v-272q0 -20 1 -38.5t2 -36.5q25 -3 43.5 -8t31.5 -10q0 -11 -1.5 -24.5t-4.5 -20.5q-21 0 -34.5 0.5t-25 1t-23.5 0.5h-29zM605 715l-163 -199
q-13 2 -23 8.5t-17 16.5l95 176q24 9 48.5 13.5t49.5 6.5z" />
    <glyph glyph-name="f_j" unicode="fj" horiz-adv-x="584" 
d="M504 13q0 -128 -48.5 -188.5t-119.5 -81.5q-10 5 -15.5 13t-5.5 19q48 37 76.5 96.5t28.5 155.5v382h-225v-272q0 -20 1 -38.5t2 -36.5q28 -1 61.5 -6t56.5 -12q0 -11 -1.5 -24.5t-4.5 -20.5q-41 1 -81 1.5t-74 0.5q-31 0 -60.5 -1t-60.5 -1q-3 6 -5 19.5t-2 25.5
q21 2 43 7t37 10q2 16 3 28.5t1 27.5v292q-12 3 -34 7t-41 6q-3 10 -3 20t1 20q16 4 36.5 7t40.5 5v9q0 63 12.5 115t38 89.5t64.5 58t92 20.5q55 0 104.5 -14.5t90.5 -36.5q0 -37 -8 -70.5t-25 -64.5q-12 -5 -25 -5t-26 5q-8 25 -12 51.5t-4 53.5q-16 7 -42.5 11.5
t-65.5 4.5q-25 0 -44.5 -5.5t-26.5 -12.5q-13 -17 -26 -61.5t-13 -117.5v-32h124q38 0 88.5 3.5t92.5 7.5l8 -8q-2 -75 -3 -140.5t-1 -147.5v-174z" />
    <glyph glyph-name="f_k" unicode="fk" horiz-adv-x="877" 
d="M876 14q-7 -4 -21.5 -8t-32 -7.5t-36.5 -6t-35 -2.5q-26 0 -51.5 21t-47.5 55t-41.5 77.5t-33.5 87.5l-73 -20v-74q0 -20 1 -38.5t2 -36.5q20 -2 41 -7t34 -11q0 -11 -1.5 -24.5t-4.5 -20.5q-10 0 -25.5 0.5t-31.5 1t-31 0.5h-24q-31 0 -62 -1t-59 -1q-3 6 -5 19.5
t-2 25.5q21 2 43 7t37 10q2 16 3 28.5t1 27.5v557q-31 14 -61.5 20.5t-57.5 6.5q-23 0 -43 -5t-27 -12q-13 -17 -24.5 -62t-11.5 -118v-32l121 -2q0 -16 -1 -31t-3 -30h-117v-272q0 -20 1 -38.5t2 -36.5q18 -1 39 -6t36 -12q0 -11 -1.5 -24.5t-4.5 -20.5q-33 1 -65.5 1.5
t-62.5 0.5q-26 0 -52 -1t-53 -1q-3 6 -5 19.5t-2 25.5q21 2 43 7.5t37 10.5q2 16 3 28t1 27v292q-12 3 -34 7t-41 6q-3 10 -3 20t1 20q16 4 36.5 7t40.5 5v9q0 134 53 208.5t154 74.5q25 0 53 -4t53 -10q19 5 40.5 9t35.5 5l8 -8q-2 -75 -3 -140.5t-1 -147.5v-205
q23 8 44 17.5t37 17.5l92 111l-62 15q0 12 2 24.5t5 20.5q24 0 56.5 -1t65.5 -1q18 0 40 0.5t44 1.5q3 -7 4.5 -20t1.5 -24q-16 -7 -33.5 -12t-33.5 -7l-128 -137q24 -46 55 -98t56 -80q20 -22 37.5 -32.5t45.5 -10.5q7 0 16 1t16 2q7 -7 10 -18t1 -21z" />
    <glyph glyph-name="f_l" unicode="fl" horiz-adv-x="606" 
d="M582 44q0 -11 -1.5 -24.5t-4.5 -20.5q-10 0 -25.5 0.5t-31.5 1t-31 0.5h-24q-31 0 -62 -1t-59 -1q-3 6 -5 19.5t-2 25.5q21 2 43 7t37 10q2 16 3 28.5t1 27.5v557q-31 14 -61.5 20.5t-57.5 6.5q-23 0 -43 -5t-27 -12q-13 -17 -24.5 -62t-11.5 -118v-32l121 -2
q0 -16 -1 -31t-3 -30h-117v-272q0 -20 1 -38.5t2 -36.5q18 -1 39 -6t36 -12q0 -11 -1.5 -24.5t-4.5 -20.5q-33 1 -65.5 1.5t-62.5 0.5q-26 0 -52 -1t-53 -1q-3 6 -5 19.5t-2 25.5q21 2 43 7.5t37 10.5q2 16 3 28t1 27v292q-12 3 -34 7t-41 6q-3 10 -3 20t1 20q16 4 36.5 7
t40.5 5v9q0 134 53 208.5t154 74.5q25 0 53 -4t53 -10q19 5 40.5 9t35.5 5l8 -8q-2 -75 -3 -140.5t-1 -147.5v-333q0 -20 1 -38.5t2 -36.5q20 -2 41 -7t34 -11z" />
    <glyph glyph-name="f_lcaron" unicode="f&#x13e;" horiz-adv-x="606" 
d="M582 44q0 -11 -1.5 -24.5t-4.5 -20.5q-10 0 -25.5 0.5t-31.5 1t-31 0.5h-24q-31 0 -62 -1t-59 -1q-3 6 -5 19.5t-2 25.5q21 2 43 7t37 10q2 16 3 28.5t1 27.5v557q-31 14 -61.5 20.5t-57.5 6.5q-23 0 -43 -5t-27 -12q-13 -17 -24.5 -62t-11.5 -118v-32l121 -2
q0 -16 -1 -31t-3 -30h-117v-272q0 -20 1 -38.5t2 -36.5q18 -1 39 -6t36 -12q0 -11 -1.5 -24.5t-4.5 -20.5q-33 1 -65.5 1.5t-62.5 0.5q-26 0 -52 -1t-53 -1q-3 6 -5 19.5t-2 25.5q21 2 43 7.5t37 10.5q2 16 3 28t1 27v292q-12 3 -34 7t-41 6q-3 10 -3 20t1 20q16 4 36.5 7
t40.5 5v9q0 134 53 208.5t154 74.5q25 0 53 -4t53 -10q19 5 40.5 9t35.5 5l8 -8q-2 -75 -3 -140.5t-1 -147.5v-333q0 -20 1 -38.5t2 -36.5q20 -2 41 -7t34 -11zM573 758l8 8q22 3 42.5 -0.5t36.5 -16.5l-47 -210q-10 -1 -21.5 -0.5t-21.5 5.5z" />
    <glyph glyph-name="f_t" unicode="ft" horiz-adv-x="682" 
d="M677 33q-30 -18 -71 -32.5t-84 -14.5q-51 0 -71.5 37t-20.5 106v280h-235v-272q0 -20 1 -38.5t2 -36.5q28 -1 61.5 -6t56.5 -12q0 -11 -1.5 -24.5t-4.5 -20.5q-41 1 -81 1.5t-74 0.5q-31 0 -60.5 -1t-60.5 -1q-3 6 -5 19.5t-2 25.5q21 2 43 7t37 10q2 16 3 28.5t1 27.5
v292q-12 3 -34 7t-41 6q-3 10 -3 20t1 20q16 4 36.5 7t40.5 5v9q0 128 54.5 205.5t157.5 77.5q53 0 99 -9.5t84 -27.5l8 -8v-249l156 -2q0 -16 -1 -31t-3 -30h-152v-242q0 -54 11.5 -82t35.5 -28q26 0 49 5.5t50 15.5q8 -8 12.5 -19.5t4.5 -25.5zM195 504v-32h235v203
q-31 15 -59 20.5t-62 5.5q-31 0 -51.5 -7t-24.5 -12q-15 -17 -26.5 -65t-11.5 -113z" />
    <glyph glyph-name="f_f_i" unicode="ffi" horiz-adv-x="929" 
d="M901 44q0 -11 -1.5 -24.5t-4.5 -20.5q-10 0 -25.5 0.5t-31.5 1t-31 0.5h-24q-31 0 -62 -1t-59 -1q-3 6 -5 19.5t-2 25.5q21 2 43 7.5t37 10.5q2 14 3 27t1 28v292h-230v-272q0 -20 1 -38.5t2 -36.5q18 -2 39.5 -6.5t35.5 -11.5q0 -11 -1.5 -24.5t-4.5 -20.5
q-30 1 -58.5 1.5t-53.5 0.5q-31 0 -60.5 -1t-60.5 -1q-3 6 -5 19.5t-2 25.5q21 2 43 7t37 10q2 16 3 28.5t1 27.5v292h-230v-272q0 -20 1 -38.5t2 -36.5q18 -1 39 -6t36 -12q0 -11 -1.5 -24.5t-4.5 -20.5q-30 1 -59.5 1.5t-54.5 0.5q-31 0 -59.5 -1t-59.5 -1q-3 6 -5 19.5
t-2 25.5q21 2 43 7t37 10q2 16 3 28.5t1 27.5v292q-12 3 -34 7t-41 6q-3 10 -3 20t1 20q18 4 39 7.5t39 4.5q3 61 23.5 109.5t54.5 81.5t79 50.5t97 17.5q34 0 67 -5.5t64 -15.5q25 26 60.5 40t81.5 14q58 0 110 -14.5t95 -36.5q0 -37 -8 -70.5t-25 -64.5q-12 -5 -25 -5
t-26 5q-10 25 -14 51.5t-4 53.5q-17 7 -46.5 11.5t-70.5 4.5q-28 0 -49.5 -5.5t-27.5 -12.5q-14 -16 -26.5 -61t-12.5 -118v-32h139q36 0 83.5 3.5t87.5 7.5l8 -8q-2 -75 -3 -140.5t-1 -147.5v-50q0 -20 1 -38.5t2 -36.5q20 -2 41 -7t34 -11zM257 651q-20 -19 -40.5 -64
t-21.5 -115h230v11q0 47 7 88t22 75q-34 10 -65.5 16t-56.5 6q-22 0 -45 -5t-30 -12z" />
    <glyph glyph-name="f_f_b" unicode="ffb" horiz-adv-x="1193" 
d="M944 -14q-31 0 -72 15.5t-77 41.5q-16 -20 -34 -38t-31 -25q-10 1 -18 8t-11 14q16 28 24.5 58t8.5 57v557q-31 14 -61.5 20.5t-57.5 6.5q-23 0 -43 -5t-27 -12q-13 -17 -24.5 -62t-11.5 -118v-33l121 -1q0 -16 -1 -31t-3 -30h-117v-272q0 -20 1 -38.5t2 -36.5
q18 -1 39 -6t36 -12q0 -11 -1.5 -24.5t-4.5 -20.5q-33 1 -65.5 1.5t-62.5 0.5q-26 0 -52 -1t-53 -1q-3 6 -5 19.5t-2 25.5q21 2 43 7.5t37 10.5q2 16 3 28t1 27v292h-230v-272q0 -20 1 -38.5t2 -36.5q18 -1 39 -6t36 -12q0 -11 -1.5 -24.5t-4.5 -20.5q-30 1 -59.5 1.5
t-54.5 0.5q-31 0 -59.5 -1t-59.5 -1q-3 6 -5 19.5t-2 25.5q21 2 43 7t37 10q2 16 3 28.5t1 27.5v292q-12 3 -34 7t-41 6q-3 10 -3 20t1 20q18 4 39 7.5t39 4.5q3 61 23.5 109.5t54.5 81.5t79 50.5t97 17.5q33 0 65.5 -5.5t63.5 -15.5q25 26 59.5 40t77.5 14q25 0 53 -4
t53 -10q19 5 40.5 9t35.5 5l8 -8q-2 -75 -3 -140.5t-1 -147.5v-47q31 26 70 42t84 16q80 0 130.5 -65t50.5 -173q0 -46 -16 -92t-43.5 -82.5t-66 -59.5t-83.5 -23zM257 651q-20 -19 -40.5 -64.5t-21.5 -114.5l230 -1v12q0 49 7 90t21 73q-34 10 -65 16t-56 6q-22 0 -45 -5
t-30 -12zM944 412q-25 0 -59 -11.5t-67 -32.5v-250q29 -30 64.5 -47.5t72.5 -17.5q31 0 52.5 14.5t35 37t19.5 52t6 58.5q0 37 -8 73t-23.5 63t-38.5 44t-54 17z" />
    <glyph glyph-name="f_f_h" unicode="ffh" horiz-adv-x="1213" 
d="M1198 44q0 -11 -1.5 -24.5t-5.5 -20.5q-10 0 -25.5 0.5t-31.5 1t-31 0.5h-24q-31 0 -62 -1t-59 -1q-3 6 -5 19.5t-2 25.5q21 2 43 7t38 10q1 16 2 28.5t1 27.5v168q0 56 -16 93t-75 37q-38 0 -69.5 -8.5t-56.5 -20.5v-249q0 -20 1 -38.5t2 -36.5q20 -2 41 -7t34 -11
q0 -11 -1.5 -24.5t-4.5 -20.5q-10 0 -25.5 0.5t-31.5 1t-31 0.5h-24q-31 0 -62 -1t-59 -1q-3 6 -5 19.5t-2 25.5q21 2 43 7t37 10q2 16 3 28.5t1 27.5v557q-31 14 -61.5 20.5t-57.5 6.5q-23 0 -43 -5t-27 -12q-13 -17 -24.5 -62t-11.5 -118v-33l121 -1q0 -16 -1 -31t-3 -30
h-117v-272q0 -20 1 -38.5t2 -36.5q18 -1 39 -6t36 -12q0 -11 -1.5 -24.5t-4.5 -20.5q-33 1 -65.5 1.5t-62.5 0.5q-26 0 -52 -1t-53 -1q-3 6 -5 19.5t-2 25.5q21 2 43 7.5t37 10.5q2 16 3 28t1 27v292h-230v-272q0 -20 1 -38.5t2 -36.5q18 -1 39 -6t36 -12q0 -11 -1.5 -24.5
t-4.5 -20.5q-30 1 -59.5 1.5t-54.5 0.5q-31 0 -59.5 -1t-59.5 -1q-3 6 -5 19.5t-2 25.5q21 2 43 7t37 10q2 16 3 28.5t1 27.5v292q-12 3 -34 7t-41 6q-3 10 -3 20t1 20q18 4 39 7.5t39 4.5q3 61 23.5 109.5t54.5 81.5t79 50.5t97 17.5q33 0 65.5 -5.5t63.5 -15.5
q25 26 59.5 40t77.5 14q25 0 53 -4t53 -10q19 5 40.5 9t35.5 5l8 -8q-2 -75 -3 -140.5t-1 -147.5v-38q26 18 70 35t93 17q66 0 102 -38.5t36 -121.5v-187q0 -20 1 -38.5t2 -36.5q20 -2 41 -7t35 -11zM257 651q-20 -19 -40.5 -64.5t-21.5 -114.5l230 -1v12q0 49 7 90t21 73
q-34 10 -65 16t-56 6q-22 0 -45 -5t-30 -12z" />
    <glyph glyph-name="f_f_j" unicode="ffj" horiz-adv-x="898" 
d="M818 13q0 -128 -48.5 -188.5t-119.5 -81.5q-10 5 -15.5 13t-5.5 19q48 37 76.5 96.5t28.5 155.5v382h-225v-272q0 -20 1 -38.5t2 -36.5q28 -1 61.5 -6t56.5 -12q0 -11 -1.5 -24.5t-4.5 -20.5q-41 1 -81 1.5t-74 0.5q-31 0 -60.5 -1t-60.5 -1q-3 6 -5 19.5t-2 25.5
q21 2 43 7t37 10q2 16 3 28.5t1 27.5v292h-230v-272q0 -20 1 -38.5t2 -36.5q18 -1 39 -6t36 -12q0 -11 -1.5 -24.5t-4.5 -20.5q-30 1 -59.5 1.5t-54.5 0.5q-31 0 -59.5 -1t-59.5 -1q-3 6 -5 19.5t-2 25.5q21 2 43 7t37 10q2 16 3 28.5t1 27.5v292q-12 3 -34 7t-41 6
q-3 10 -3 20t1 20q18 4 39 7.5t39 4.5q3 61 23.5 109.5t54.5 81.5t79 50.5t97 17.5q33 0 65.5 -5.5t63.5 -15.5q25 26 59.5 40t77.5 14q55 0 104.5 -14.5t90.5 -36.5q0 -37 -8 -70.5t-25 -64.5q-12 -5 -25 -5t-26 5q-8 25 -12 51.5t-4 53.5q-16 7 -42.5 11.5t-65.5 4.5
q-25 0 -44.5 -5.5t-26.5 -12.5q-13 -17 -26 -61.5t-13 -117.5v-32h124q38 0 88.5 3.5t92.5 7.5l8 -8q-2 -75 -3 -140.5t-1 -147.5v-174zM257 651q-20 -19 -40.5 -64t-21.5 -115h230v11q0 47 7 88t21 75q-34 10 -65 16t-56 6q-22 0 -45 -5t-30 -12z" />
    <glyph glyph-name="f_f_k" unicode="ffk" horiz-adv-x="1191" 
d="M1190 14q-7 -4 -21.5 -8t-32 -7.5t-36.5 -6t-35 -2.5q-26 0 -51.5 21t-47.5 55t-41.5 77.5t-33.5 87.5l-73 -20v-74q0 -20 1 -38.5t2 -36.5q20 -2 41 -7t34 -11q0 -11 -1.5 -24.5t-4.5 -20.5q-10 0 -25.5 0.5t-31.5 1t-31 0.5h-24q-31 0 -61 -1t-58 -1q-3 6 -4.5 19.5
t-1.5 25.5q20 2 41.5 7t35.5 10q2 16 3 28.5t1 27.5v557q-31 14 -61.5 20.5t-57.5 6.5q-23 0 -43 -5t-27 -12q-13 -17 -24.5 -62t-11.5 -118v-32l121 -2q0 -16 -1 -31t-3 -30h-117v-272q0 -20 1 -38.5t2 -36.5q18 -1 39 -6t36 -12q0 -11 -1.5 -24.5t-4.5 -20.5
q-33 1 -65.5 1.5t-62.5 0.5q-26 0 -52 -1t-53 -1q-3 6 -5 19.5t-2 25.5q21 2 43 7.5t37 10.5q2 16 3 28t1 27v292h-230v-272q0 -20 1 -38.5t2 -36.5q18 -1 39 -6t36 -12q0 -11 -1.5 -24.5t-4.5 -20.5q-30 1 -59.5 1.5t-54.5 0.5q-31 0 -59.5 -1t-59.5 -1q-3 6 -5 19.5
t-2 25.5q21 2 43 7t37 10q2 16 3 28.5t1 27.5v292q-12 3 -34 7t-41 6q-3 10 -3 20t1 20q18 4 39 7.5t39 4.5q3 61 23.5 109.5t54.5 81.5t79 50.5t97 17.5q33 0 65.5 -5.5t63.5 -15.5q25 26 59.5 40t77.5 14q25 0 53 -4t53 -10q19 5 40.5 9t35.5 5l8 -8q-2 -75 -3 -140.5
t-1 -147.5v-205q23 8 44 17.5t37 17.5l92 111l-62 15q0 12 2 24.5t5 20.5q24 0 56.5 -1t65.5 -1q18 0 40 0.5t44 1.5q3 -7 4.5 -20t1.5 -24q-16 -7 -33.5 -12t-33.5 -7l-128 -137q24 -46 55 -98t56 -80q20 -22 37.5 -32.5t45.5 -10.5q7 0 16 1t16 2q7 -7 10 -18t1 -21z
M257 651q-20 -19 -40.5 -64t-21.5 -115h230v11q0 49 7 90t21 73q-34 10 -65 16t-56 6q-22 0 -45 -5t-30 -12z" />
    <glyph glyph-name="f_f_l" unicode="ffl" horiz-adv-x="920" 
d="M896 44q0 -11 -1.5 -24.5t-4.5 -20.5q-10 0 -25.5 0.5t-31.5 1t-31 0.5h-24q-31 0 -62 -1t-59 -1q-3 6 -5 19.5t-2 25.5q21 2 43 7t37 10q2 16 3 28.5t1 27.5v557q-31 14 -61.5 20.5t-57.5 6.5q-23 0 -43 -5t-27 -12q-13 -17 -24.5 -62t-11.5 -118v-32l121 -2
q0 -16 -1 -31t-3 -30h-117v-272q0 -20 1 -38.5t2 -36.5q18 -1 39 -6t36 -12q0 -11 -1.5 -24.5t-4.5 -20.5q-33 1 -65.5 1.5t-62.5 0.5q-26 0 -52 -1t-53 -1q-3 6 -5 19.5t-2 25.5q21 2 43 7.5t37 10.5q2 16 3 28t1 27v292h-230v-272q0 -20 1 -38.5t2 -36.5q18 -1 39 -6
t36 -12q0 -11 -1.5 -24.5t-4.5 -20.5q-30 1 -59.5 1.5t-54.5 0.5q-31 0 -59.5 -1t-59.5 -1q-3 6 -5 19.5t-2 25.5q21 2 43 7t37 10q2 16 3 28.5t1 27.5v292q-12 3 -34 7t-41 6q-3 10 -3 20t1 20q18 4 39 7.5t39 4.5q3 61 23.5 109.5t54.5 81.5t79 50.5t97 17.5
q33 0 65.5 -5.5t63.5 -15.5q25 26 59.5 40t77.5 14q25 0 53 -4t53 -10q19 5 40.5 9t35.5 5l8 -8q-2 -75 -3 -140.5t-1 -147.5v-333q0 -20 1 -38.5t2 -36.5q20 -2 41 -7t34 -11zM257 651q-20 -19 -40.5 -64t-21.5 -115h230v11q0 49 7 90t21 73q-34 10 -65 16t-56 6
q-22 0 -45 -5t-30 -12z" />
    <glyph glyph-name="f_f_t" unicode="fft" horiz-adv-x="996" 
d="M991 33q-30 -18 -71 -32.5t-84 -14.5q-51 0 -71.5 37t-20.5 106v280h-235v-272q0 -20 1 -38.5t2 -36.5q28 -1 61.5 -6t56.5 -12q0 -11 -1.5 -24.5t-4.5 -20.5q-41 1 -81 1.5t-74 0.5q-31 0 -60.5 -1t-60.5 -1q-3 6 -5 19.5t-2 25.5q21 2 43 7t37 10q2 16 3 28.5t1 27.5
v292h-230v-272q0 -20 1 -38.5t2 -36.5q18 -1 39 -6t36 -12q0 -11 -1.5 -24.5t-4.5 -20.5q-30 1 -59.5 1.5t-54.5 0.5q-31 0 -59.5 -1t-59.5 -1q-3 6 -5 19.5t-2 25.5q21 2 43 7t37 10q2 16 3 28.5t1 27.5v292q-12 3 -34 7t-41 6q-3 10 -3 20t1 20q18 4 39 7.5t39 4.5
q3 61 23.5 109.5t54.5 81.5t79 50.5t97 17.5q34 0 67.5 -6t64.5 -16q26 27 61 41t78 14q53 0 99 -9.5t84 -27.5l8 -8v-249l156 -2q0 -16 -1 -31t-3 -30h-152v-242q0 -54 11.5 -82t35.5 -28q26 0 49 5.5t50 15.5q8 -8 12.5 -19.5t4.5 -25.5zM509 504v-32h235v203
q-31 15 -59 20.5t-62 5.5q-31 0 -51.5 -7t-24.5 -12q-15 -17 -26.5 -65t-11.5 -113zM257 651q-20 -19 -40.5 -64t-21.5 -115h230v11q0 47 7.5 88t22.5 75q-34 10 -66 16t-57 6q-22 0 -45 -5t-30 -12z" />
    <glyph glyph-name="T_h" unicode="Th" horiz-adv-x="1075" 
d="M302 1q-38 0 -73.5 -1t-72.5 -1q-5 12 -7 24t-2 24q27 2 53.5 7t53.5 12q3 14 4 29.5t1 31.5v478h-165q-7 -30 -11 -61t-5 -61q-13 -4 -26.5 -4.5t-26.5 4.5q-6 43 -8 88.5t-1 91.5l8 8q23 -1 53 -1.5t61.5 -0.5h63h57.5h303q25 10 53 20t61 14l8 -8q-1 -37 -2 -62.5
t-1.5 -51t-0.5 -60v-89.5q26 18 70 35t93 17q66 0 102 -38.5t36 -121.5v-187q0 -20 1 -38.5t2 -36.5q20 -2 41 -7t35 -11q0 -11 -1.5 -24.5t-5.5 -20.5q-10 0 -25.5 0.5t-31.5 1t-31 0.5h-24q-31 0 -62 -1t-59 -1q-3 6 -5 19.5t-2 25.5q21 2 43 7t38 10q1 16 2 28.5t1 27.5
v168q0 56 -16 93t-75 37q-37 0 -68 -8t-58 -21v-249q0 -20 1 -38.5t2 -36.5q20 -2 41 -7t34 -11q0 -11 -1.5 -24.5t-4.5 -20.5q-20 1 -48.5 1.5t-63.5 0.5q-31 0 -62 -1t-59 -1q-3 6 -5 19.5t-2 25.5q21 2 43 7t37 10q2 16 3 28.5t1 27.5v488h-249v-456q0 -22 1 -43t3 -40
q28 -2 53.5 -7t47.5 -12q1 -13 -1 -25t-6 -23q-12 1 -31 1.5t-39 0.5h-39.5h-33.5z" />
    <glyph glyph-name="uni021A_h" unicode="&#x21a;h" horiz-adv-x="1075" 
d="M302 1q-38 0 -73.5 -1t-72.5 -1q-5 12 -7 24t-2 24q27 2 53.5 7t53.5 12q3 14 4 29.5t1 31.5v478h-165q-7 -30 -11 -61t-5 -61q-13 -4 -26.5 -4.5t-26.5 4.5q-6 43 -8 88.5t-1 91.5l8 8q23 -1 53 -1.5t61.5 -0.5h63h57.5h303q25 10 53 20t61 14l8 -8q-1 -37 -2 -62.5
t-1.5 -51t-0.5 -60v-89.5q26 18 70 35t93 17q66 0 102 -38.5t36 -121.5v-187q0 -20 1 -38.5t2 -36.5q20 -2 41 -7t35 -11q0 -11 -1.5 -24.5t-5.5 -20.5q-10 0 -25.5 0.5t-31.5 1t-31 0.5h-24q-31 0 -62 -1t-59 -1q-3 6 -5 19.5t-2 25.5q21 2 43 7t38 10q1 16 2 28.5t1 27.5
v168q0 56 -16 93t-75 37q-37 0 -68 -8t-58 -21v-249q0 -20 1 -38.5t2 -36.5q20 -2 41 -7t34 -11q0 -11 -1.5 -24.5t-4.5 -20.5q-20 1 -48.5 1.5t-63.5 0.5q-31 0 -62 -1t-59 -1q-3 6 -5 19.5t-2 25.5q21 2 43 7t37 10q2 16 3 28.5t1 27.5v488h-249v-456q0 -22 1 -43t3 -40
q28 -2 53.5 -7t47.5 -12q1 -13 -1 -25t-6 -23q-12 1 -31 1.5t-39 0.5h-39.5h-33.5zM251 -91q11 11 29.5 20.5t37.5 11.5q25 -19 35 -42t10 -45q0 -36 -22 -72.5t-69 -66.5q-8 4 -14 9.5t-8 13.5q20 27 26 50.5t6 42.5t-9 38.5t-22 39.5z" />
    <glyph glyph-name="uni0162_h" unicode="&#x162;h" horiz-adv-x="1075" 
d="M302 1q-38 0 -73.5 -1t-72.5 -1q-5 12 -7 24t-2 24q27 2 53.5 7t53.5 12q3 14 4 29.5t1 31.5v478h-165q-7 -30 -11 -61t-5 -61q-13 -4 -26.5 -4.5t-26.5 4.5q-6 43 -8 88.5t-1 91.5l8 8q23 -1 53 -1.5t61.5 -0.5h63h57.5h303q25 10 53 20t61 14l8 -8q-1 -37 -2 -62.5
t-1.5 -51t-0.5 -60v-89.5q26 18 70 35t93 17q66 0 102 -38.5t36 -121.5v-187q0 -20 1 -38.5t2 -36.5q20 -2 41 -7t35 -11q0 -11 -1.5 -24.5t-5.5 -20.5q-10 0 -25.5 0.5t-31.5 1t-31 0.5h-24q-31 0 -62 -1t-59 -1q-3 6 -5 19.5t-2 25.5q21 2 43 7t38 10q1 16 2 28.5t1 27.5
v168q0 56 -16 93t-75 37q-37 0 -68 -8t-58 -21v-249q0 -20 1 -38.5t2 -36.5q20 -2 41 -7t34 -11q0 -11 -1.5 -24.5t-4.5 -20.5q-20 1 -48.5 1.5t-63.5 0.5q-31 0 -62 -1t-59 -1q-3 6 -5 19.5t-2 25.5q21 2 43 7t37 10q2 16 3 28.5t1 27.5v488h-249v-456q0 -22 1 -43t3 -40
q28 -2 53.5 -7t47.5 -12q1 -13 -1 -25t-6 -23q-12 1 -31 1.5t-39 0.5h-39.5h-33.5zM404 -120q0 -22 -13.5 -44t-36.5 -40.5t-54 -32t-65 -19.5q-6 5 -8.5 12t-2.5 17q13 6 30 15t32 20.5t25.5 26.5t10.5 31q0 19 -18.5 32.5t-55.5 11.5l-8 8l51 102h42l-28 -63q49 -2 74 -23
t25 -54z" />
    <glyph glyph-name=".notdef" horiz-adv-x="426" 
d="M426 0h-426v598h426v-598zM359 554h-291l146 -217zM384 80v436l-145 -217zM43 516v-436l144 219zM68 43h291l-145 217z" />
    <glyph glyph-name=".null" horiz-adv-x="0" 
 />
    <glyph glyph-name="uni000D" unicode="&#xd;" horiz-adv-x="0" 
 />
    <glyph glyph-name="NULL" horiz-adv-x="0" 
 />
    <glyph glyph-name="NULL" horiz-adv-x="0" 
 />
    <glyph glyph-name="space" unicode=" " horiz-adv-x="210" 
 />
    <glyph glyph-name="exclam" unicode="!" horiz-adv-x="299" 
d="M179 176q-7 -2 -14.5 -3.5t-14.5 -1.5q-6 0 -12.5 1.5t-11.5 3.5q-13 122 -20 222t-7 172q0 26 1 51.5t3 44.5q12 3 23.5 4.5t24.5 1.5q12 0 24 -1.5t25 -4.5q1 -17 2 -42.5t1 -50.5q0 -72 -6.5 -173t-17.5 -224zM88 47q0 24 18 40.5t44 16.5q25 0 43 -16.5t18 -40.5
t-18 -42.5t-43 -18.5q-26 0 -44 18.5t-18 42.5z" />
    <glyph glyph-name="quotedbl" unicode="&#x22;" horiz-adv-x="354" 
d="M114 532q-10 -3 -21 -4t-22 0q-11 60 -18.5 124.5t-8.5 118.5q17 6 39 8.5t45 1.5l8 -8q-2 -57 -7.5 -122t-14.5 -119zM277 532q-10 -3 -21 -4t-22 0q-11 60 -18.5 124.5t-8.5 118.5q17 6 39 8.5t45 1.5l8 -8q-2 -57 -7.5 -122t-14.5 -119z" />
    <glyph glyph-name="numbersign" unicode="#" horiz-adv-x="611" 
d="M530 104h-111l-20 -112q-14 0 -33 3.5t-33 7.5l18 101h-134l-20 -112q-14 0 -33.5 3.5t-32.5 7.5l18 101h-102q-3 14 -3 32.5t3 31.5h113l24 137h-102q-3 13 -3 32t3 32h114l19 110q15 0 34 -3.5t32 -8.5l-17 -98h134l19 110q15 0 34 -3.5t32 -8.5l-17 -98h98
q3 -14 3 -32.5t-3 -31.5h-110l-24 -137h100q2 -13 2 -32t-2 -32zM228 168h134l24 137h-134z" />
    <glyph glyph-name="dollar" unicode="$" horiz-adv-x="518" 
d="M289 -86q-16 -3 -29.5 -3t-25.5 3v86q-52 2 -99.5 13t-80.5 29q1 43 7 83.5t16 80.5q13 4 26 2t26 -6q1 -26 4.5 -55t8.5 -60q19 -7 41.5 -11t50.5 -5v230l-14 5q-25 10 -51.5 23t-48.5 31.5t-36.5 44t-14.5 59.5q0 41 14.5 71t38 50.5t53 32.5t60.5 16v89q13 4 27 4
t28 -4v-86q39 -2 83.5 -11t80.5 -23q-1 -40 -6 -76t-14 -69q-15 -4 -28.5 -3t-23.5 7q-2 24 -5 47t-9 45q-17 5 -37.5 8.5t-40.5 4.5v-195l33 -13q25 -10 50 -23.5t44.5 -32t31.5 -43.5t12 -56q0 -77 -46 -134t-126 -68v-88zM156 489q0 -36 25 -59.5t54 -36.5v172
q-22 -2 -36 -5.5t-17 -6.5q-12 -11 -19 -26t-7 -38zM373 183q0 34 -27 59.5t-57 36.5v-206q21 4 36 10.5t18 9.5q15 15 22.5 37t7.5 53z" />
    <glyph glyph-name="percent" unicode="%" horiz-adv-x="731" 
d="M609 664l-435 -685q-16 4 -28.5 11.5t-22.5 20.5l435 686q18 -4 30 -12.5t21 -20.5zM322 508q0 -32 -11 -65t-30.5 -58.5t-48.5 -42t-65 -16.5t-62.5 14t-44.5 37t-26.5 54t-8.5 64t11 66t30.5 58.5t48.5 42t65 16.5t62.5 -14t44.5 -37.5t26.5 -54.5t8.5 -64zM102 516
q0 -54 19.5 -93.5t57.5 -39.5q11 0 21.5 3t14.5 7q10 10 20 34t10 61q0 54 -19.5 93.5t-57.5 39.5q-11 0 -21.5 -3.5t-14.5 -7.5q-10 -10 -20 -34t-10 -60zM706 175q0 -32 -11 -65t-30.5 -59t-48.5 -42.5t-65 -16.5t-62.5 14t-44.5 37.5t-26.5 54.5t-8.5 64t10.5 66t30 58.5
t48 42t64.5 16.5t63 -14t45 -37.5t27 -54.5t9 -64zM486 183q0 -54 19.5 -93.5t57.5 -39.5q11 0 21.5 3t14.5 7q10 10 20 34t10 61q0 54 -19.5 93.5t-57.5 39.5q-11 0 -21.5 -3.5t-14.5 -7.5q-10 -10 -20 -34t-10 -60z" />
    <glyph glyph-name="ampersand" unicode="&#x26;" horiz-adv-x="737" 
d="M602 -10q-36 0 -73 15.5t-83 49.5q-49 -34 -98 -53.5t-109 -19.5q-50 0 -89.5 14t-66.5 38t-41.5 56.5t-14.5 67.5q0 61 33 114.5t108 93.5q-22 39 -35 74t-13 63q0 47 15.5 82t40 58t56 34t63.5 11q60 0 99.5 -36t39.5 -99q0 -45 -35 -96t-122 -97q43 -61 97.5 -118.5
t97.5 -95.5q50 54 72.5 105.5t32.5 94.5q-16 5 -40.5 10t-46.5 7q0 12 2 25t6 20q31 0 63 -1t60 -1h21.5t27.5 0.5t27.5 1t22.5 0.5q3 -7 4.5 -20.5t1.5 -24.5q-13 -6 -34 -11t-41 -7q-15 -54 -46.5 -115t-88.5 -121q37 -27 65.5 -38.5t43.5 -11.5q17 0 39.5 3.5t47.5 12.5
q10 -7 13.5 -17.5t4.5 -20.5q-31 -19 -66 -33t-62 -14zM203 533q0 -28 12.5 -62t33.5 -69q54 33 76 68t22 58q0 36 -20.5 62t-51.5 26q-17 0 -32 -5t-20 -10q-7 -7 -13.5 -24.5t-6.5 -43.5zM114 191q0 -26 11 -50.5t32 -43.5t51.5 -31t68.5 -12q27 0 59.5 9t63.5 28
q-51 44 -106 105.5t-97 124.5q-43 -29 -63 -62.5t-20 -67.5z" />
    <glyph glyph-name="quotesingle" unicode="'" horiz-adv-x="189" 
d="M114 532q-10 -3 -21 -4t-22 0q-11 60 -18.5 124.5t-8.5 118.5q17 6 39 8.5t45 1.5l8 -8q-2 -57 -7.5 -122t-14.5 -119z" />
    <glyph glyph-name="parenleft" unicode="(" horiz-adv-x="369" 
d="M104 322q0 131 42.5 263t142.5 275q15 -4 27.5 -13t17.5 -19q-79 -143 -109 -267.5t-30 -238.5q0 -107 30 -235t109 -271q-5 -12 -17.5 -21t-27.5 -13q-100 143 -142.5 277t-42.5 263z" />
    <glyph glyph-name="parenright" unicode=")" horiz-adv-x="369" 
d="M265 322q0 -129 -42.5 -263t-142.5 -277q-15 4 -27.5 13t-17.5 21q79 143 109 271t30 235q0 114 -30 238.5t-109 267.5q5 10 17.5 19t27.5 13q100 -143 142.5 -275t42.5 -263z" />
    <glyph glyph-name="asterisk" unicode="*" horiz-adv-x="378" 
d="M183 567q-12 -21 -36.5 -58t-50.5 -60q-16 9 -29 22.5t-21 30.5q23 26 59.5 48.5t56.5 35.5q-24 -1 -67.5 2.5t-77.5 13.5q0 19 5.5 36.5t16.5 33.5q33 -7 70.5 -28t58.5 -31q-11 20 -30.5 60t-27.5 74q16 10 34 13.5t37 2.5q11 -33 12 -75.5t2 -66.5q12 21 37 57.5
t51 60.5q16 -9 28.5 -23t20.5 -30q-23 -26 -60 -49t-57 -36q25 1 69 -2t78 -14q0 -18 -6 -35.5t-16 -33.5q-34 7 -72 28t-60 31q13 -21 33 -60.5t27 -74.5q-16 -9 -33.5 -13t-36.5 -3q-12 33 -13 75.5t-2 67.5z" />
    <glyph glyph-name="plus" unicode="+" 
d="M309 52q-16 -4 -32.5 -3.5t-33.5 3.5v173h-173q-4 16 -3.5 32.5t3.5 33.5h173v173q17 4 33.5 4t32.5 -4v-173h173q4 -17 4 -33.5t-4 -32.5h-173v-173z" />
    <glyph glyph-name="comma" unicode="," horiz-adv-x="270" 
d="M67 54q3 31 22.5 49.5t43.5 18.5q34 0 54 -20.5t20 -54.5q0 -27 -12.5 -56.5t-32.5 -56t-45.5 -48t-50.5 -33.5q-10 4 -17 11.5t-8 18.5q24 23 44.5 57t20.5 63q0 16 -9 30t-30 21z" />
    <glyph glyph-name="hyphen" unicode="-" horiz-adv-x="380" 
d="M316 214l-250 -4q-4 16 -3.5 33.5t4.5 33.5l249 5q4 -17 4.5 -34t-4.5 -34z" />
    <glyph glyph-name="period" unicode="." horiz-adv-x="270" 
d="M66 54q0 28 20 46t49 18t49 -18t20 -46t-20 -48t-49 -20t-49 20t-20 48z" />
    <glyph glyph-name="slash" unicode="/" horiz-adv-x="424" 
d="M384 679l-269 -782q-22 2 -40 8.5t-31 17.5l269 780q17 -1 34.5 -7.5t36.5 -16.5z" />
    <glyph glyph-name="zero" unicode="0" horiz-adv-x="605" 
d="M295 -17q-59 0 -103 27t-73.5 71.5t-44 103t-14.5 121.5q0 62 17 124.5t49 112t78.5 80.5t104.5 31q59 0 103 -27t73.5 -71.5t44.5 -103t15 -121.5q0 -62 -17 -124.5t-49 -112t-78.5 -80.5t-105.5 -31zM288 583q-23 0 -46.5 -8.5t-30.5 -16.5q-20 -25 -40.5 -76.5
t-20.5 -133.5q0 -60 11 -114t32 -93.5t52.5 -63t71.5 -23.5q23 0 46 8.5t30 16.5q20 25 40.5 76.5t20.5 132.5q0 60 -11 114t-32 94t-52 63.5t-71 23.5z" />
    <glyph glyph-name="one" unicode="1" horiz-adv-x="380" 
d="M343 47q1 -13 -1 -25t-6 -23q-12 1 -29.5 1.5t-37 0.5h-38.5h-33q-37 0 -71 -1t-69 -1q-5 12 -7 24t-2 24q25 2 50.5 6.5t51.5 11.5q2 13 3 28t1 30v436h-95q-5 8 -8 18t-1 23q38 19 83.5 31.5t100.5 20.5l8 -8v-500q0 -21 1 -40.5t3 -38.5q26 -2 50.5 -7t45.5 -11z" />
    <glyph glyph-name="two" unicode="2" horiz-adv-x="515" 
d="M460 7l-8 -8q-22 1 -50.5 1.5t-59 0.5h-60.5h-55h-178q-7 17 -9.5 37t-1.5 44q64 52 119.5 101.5t95.5 95t63 88t23 80.5q0 57 -34 95t-92 38q-18 0 -38 -2t-36 -6q-6 -31 -9 -65t-4 -68q-13 -4 -27.5 -5t-28.5 5q-8 41 -12.5 82t-4.5 82q46 25 93.5 36.5t96.5 11.5
q82 0 134.5 -48t52.5 -126q0 -49 -19 -94.5t-49.5 -87t-70.5 -80.5t-81 -74l-76 -65h250q10 28 18.5 57t15.5 59q13 2 26 0.5t27 -5.5q0 -42 -2.5 -84t-8.5 -96z" />
    <glyph glyph-name="three" unicode="3" horiz-adv-x="510" 
d="M450 201q0 -46 -20 -85.5t-53 -68.5t-75.5 -45t-86.5 -16q-40 0 -79 8.5t-77 24.5q1 43 3.5 85t7.5 82q13 5 26 5.5t26 -1.5q4 -31 9 -62t13 -62q16 -5 38 -7t45 -2q33 0 59 9.5t33 16.5q19 19 29 46t10 56q0 51 -35 83t-84 32q-12 0 -22 -0.5t-18 -1.5l-7 6
q-4 13 -1.5 31t8.5 34q32 0 56.5 11t41.5 27.5t26 37t9 39.5q0 38 -29 67t-80 29q-19 0 -38.5 -2t-35.5 -6q-5 -28 -7.5 -57.5t-3.5 -60.5q-13 -4 -27.5 -4.5t-30.5 4.5q-7 37 -11.5 74.5t-5.5 74.5q46 24 93.5 36t98.5 12q72 0 120 -43t48 -100q0 -46 -25.5 -86t-76.5 -66
q69 -16 99 -58.5t30 -96.5z" />
    <glyph glyph-name="four" unicode="4" horiz-adv-x="528" 
d="M463 46q1 -12 -0.5 -24t-4.5 -23q-21 1 -57 1.5t-61 0.5q-37 0 -70.5 -1t-69.5 -1q-4 12 -6 24t-2 23q25 2 50.5 6.5t51.5 11.5q2 13 3 28t1 30v52h-255q-7 16 -10 34t-3 37l278 397q19 0 37.5 -3.5t37.5 -11.5v-388l118 -7q3 -16 1.5 -29.5t-5.5 -28.5h-114v-31
q0 -20 1 -40t2 -39q22 -2 41.5 -6.5t35.5 -11.5zM268 478l-168 -241h198v307h-1z" />
    <glyph glyph-name="five" unicode="5" horiz-adv-x="518" 
d="M458 230q0 -53 -18.5 -98t-49.5 -77.5t-73.5 -50.5t-89.5 -18q-40 0 -78.5 8.5t-76.5 24.5q1 40 3.5 79.5t6.5 78.5q13 5 26 5.5t27 -1.5q4 -30 9 -58.5t13 -56.5q16 -5 36.5 -7t44.5 -2q29 0 54.5 10t34.5 18q20 19 30 53.5t10 67.5q0 55 -36.5 90.5t-85.5 35.5
q-37 0 -70.5 -7t-66.5 -19l-8 8v314l8 8h114q49 0 100 0.5t102 0.5l8 -7q-1 -17 -3.5 -32.5t-6.5 -28.5h-239v-177q23 5 42.5 8t40.5 3q87 0 139.5 -50t52.5 -123z" />
    <glyph glyph-name="six" unicode="6" horiz-adv-x="524" 
d="M478 216q0 -54 -19.5 -97.5t-50.5 -73.5t-70.5 -46t-80.5 -16q-58 0 -97 27.5t-62.5 68.5t-33.5 90t-10 92q0 68 17 133.5t58.5 118.5t111 91t173.5 52q7 -9 10 -21.5t1 -26.5q-146 -30 -211 -105t-69 -180h2q43 40 81.5 56t78.5 16q75 0 123 -52t48 -127zM274 319
q-31 0 -65 -16t-62 -39q3 -45 13.5 -83.5t27.5 -67t41.5 -44.5t55.5 -16q24 0 43.5 7t26.5 13q20 19 31 50.5t11 70.5q0 53 -37 89t-86 36z" />
    <glyph glyph-name="seven" unicode="7" horiz-adv-x="448" 
d="M438 583l-257 -595q-26 2 -48 11.5t-34 25.5l-2 13q71 134 138 270t125 264h-258q-6 -32 -10 -66t-5 -67q-13 -4 -26 -4.5t-26 4.5q-6 46 -8 93.5t-1 97.5l8 7q22 0 50.5 -0.5t58 -0.5h59.5h55h155q10 -10 17 -23t9 -30z" />
    <glyph glyph-name="eight" unicode="8" horiz-adv-x="548" 
d="M493 192q0 -40 -18 -78t-49.5 -67t-75.5 -46.5t-95 -17.5q-93 0 -144.5 40.5t-51.5 122.5q0 53 35 97.5t109 81.5v2q-56 31 -90.5 64.5t-34.5 75.5q0 43 19.5 78t49.5 59t66.5 37t70.5 13q44 0 78 -11.5t57 -30.5t35 -44t12 -52q0 -51 -34.5 -89.5t-88.5 -67.5v-2
q67 -34 108.5 -73.5t41.5 -91.5zM163 502q0 -34 37 -63t92 -57q37 23 65 51t28 57q0 37 -35.5 65t-85.5 28q-24 0 -45 -6t-27 -10q-11 -8 -20 -25t-9 -40zM141 164q0 -31 12.5 -52.5t32 -34.5t43.5 -18.5t46 -5.5q34 0 63.5 9.5t36.5 16.5q17 14 24.5 37t7.5 47
q0 40 -43.5 71.5t-102.5 62.5q-54 -24 -87 -59t-33 -74z" />
    <glyph glyph-name="nine" unicode="9" horiz-adv-x="524" 
d="M470 378q0 -68 -17 -133.5t-58.5 -118.5t-111 -91t-173.5 -52q-7 10 -10 22.5t-1 25.5q146 31 211 106t69 180h-2q-43 -41 -82 -57t-79 -16q-74 0 -122 52t-48 127q0 55 19 98.5t50 73t71 45.5t81 16q58 0 97 -27.5t62.5 -68.5t33.5 -90t10 -92zM127 445q0 -53 36.5 -89
t86.5 -36q31 0 65 16t62 40q-3 45 -13.5 83.5t-27.5 66.5t-41.5 44t-55.5 16q-24 0 -44 -7t-27 -13q-20 -19 -30.5 -50t-10.5 -71z" />
    <glyph glyph-name="colon" unicode=":" horiz-adv-x="270" 
d="M67 408q0 26 20 44t48 18t47.5 -18t19.5 -44q0 -27 -19.5 -46.5t-47.5 -19.5t-48 19.5t-20 46.5zM67 52q0 26 20 44t48 18t47.5 -18t19.5 -44q0 -27 -19.5 -46.5t-47.5 -19.5t-48 19.5t-20 46.5z" />
    <glyph glyph-name="semicolon" unicode=";" horiz-adv-x="270" 
d="M67 408q0 26 20 44t48 18t47.5 -18t19.5 -44q0 -27 -19.5 -46.5t-47.5 -19.5t-48 19.5t-20 46.5zM68 54q3 31 22.5 49.5t43.5 18.5q34 0 54 -20.5t20 -54.5q0 -27 -12.5 -56.5t-32.5 -56t-45.5 -48t-50.5 -33.5q-10 4 -17 11.5t-8 18.5q24 23 44.5 57t20.5 63q0 16 -9 30
t-30 21z" />
    <glyph glyph-name="less" unicode="&#x3c;" 
d="M503 95q-4 -16 -11 -31t-17 -29l-421 199q-6 17 -5.5 35t5.5 34l422 199q10 -13 16.5 -28t10.5 -31l-378 -174z" />
    <glyph glyph-name="equal" unicode="=" 
d="M482 305h-412q-4 16 -3.5 32.5t3.5 33.5h412q4 -17 4 -33.5t-4 -32.5zM482 145h-412q-4 16 -3.5 32.5t3.5 33.5h412q4 -17 4 -33.5t-4 -32.5z" />
    <glyph glyph-name="greater" unicode="&#x3e;" 
d="M495 234l-422 -199q-10 13 -16.5 28t-10.5 31l378 174l-378 174q4 16 11 31t17 29l421 -199q6 -17 5.5 -35t-5.5 -34z" />
    <glyph glyph-name="question" unicode="?" horiz-adv-x="398" 
d="M106 502q-13 -4 -26 -5.5t-26 1.5q-9 38 -13 73.5t-4 68.5q25 18 68 31.5t89 13.5q87 0 132 -49.5t45 -122.5q0 -50 -18.5 -85t-43 -61t-49 -45.5t-37.5 -39.5q-7 -12 -8.5 -42.5t-1.5 -50.5q-13 -11 -34 -14t-39 1q-6 22 -10.5 50.5t-4.5 56.5q0 25 25 47t55 45.5
t55 50.5t25 61q0 49 -31.5 85t-80.5 36q-14 0 -25 -1t-21 -2q-8 -25 -13 -49.5t-8 -53.5zM118 47q0 24 18 40.5t44 16.5q25 0 43 -16.5t18 -40.5t-18 -42.5t-43 -18.5q-26 0 -44 18.5t-18 42.5z" />
    <glyph glyph-name="at" unicode="@" horiz-adv-x="897" 
d="M641 -133q-39 -22 -94 -38t-122 -16q-83 0 -153.5 29t-121.5 80t-79.5 120.5t-28.5 149.5q0 96 33.5 180.5t94.5 146t147.5 97t191.5 35.5q76 0 141 -32t111.5 -84t72.5 -121t26 -142q0 -63 -20 -115.5t-55.5 -90.5t-84 -59t-104.5 -21q-17 0 -30.5 28.5t-19.5 62.5
q-29 -34 -64.5 -62.5t-72.5 -28.5q-40 0 -69.5 19t-49 51.5t-29.5 76.5t-10 94q0 55 16.5 102t43.5 81.5t62 54t71 19.5q49 0 91 -10t91 -34v-303q0 -20 1 -41.5t4 -37.5q38 0 73.5 21t45.5 40q16 28 24.5 59.5t8.5 68.5q0 70 -23.5 131t-64.5 106t-97.5 71t-122.5 26
q-36 0 -73.5 -8t-70 -20t-57.5 -25t-35 -23q-60 -60 -88.5 -129.5t-28.5 -146.5q0 -74 24.5 -137.5t67 -109.5t102 -72t128.5 -26q55 0 92 6.5t88 20.5q8 -8 12 -19.5t5 -24.5zM336 255q0 -38 6 -73.5t18.5 -63t31 -44t42.5 -16.5q22 0 52.5 24.5t55.5 50.5v248
q-22 16 -47.5 26t-50.5 10q-28 0 -44 -6.5t-21 -12.5q-17 -22 -30 -60.5t-13 -82.5z" />
    <glyph glyph-name="A" unicode="A" horiz-adv-x="677" 
d="M667 47q1 -13 -0.5 -25t-5.5 -23q-11 1 -27 1.5t-33.5 0.5h-34.5h-29q-33 0 -64 -1t-63 -1q-4 12 -6 24t-2 24l94 19l-55 155q-40 2 -81.5 3t-76.5 1h-73l-53 -159l88 -19q1 -13 -0.5 -25t-5.5 -23q-11 1 -26.5 1.5t-31 0.5h-30h-23.5q-25 0 -54 -1t-61 -1q-4 12 -6 24
t-2 24q20 2 40 7t40 12l205 595q19 7 41 10.5t47 3.5l215 -609q20 -2 39 -7t35 -12zM332 589l-101 -303h188l-81 230l-5 73h-1z" />
    <glyph glyph-name="B" unicode="B" horiz-adv-x="592" 
d="M558 220q0 -40 -14 -80t-42.5 -71.5t-73.5 -51.5t-107 -20q-37 0 -73.5 2t-80.5 2q-33 0 -64 -1t-63 -1q-4 12 -6 24t-2 24q22 2 43.5 7t43.5 12q4 24 4.5 51t0.5 52v297q0 44 -1.5 77t-3.5 61q-22 7 -43.5 12t-43.5 7q0 12 2 24t6 24q32 0 63 -1t64 -1q53 0 98 2t81 2
q69 0 115 -43.5t46 -108.5q0 -39 -19.5 -80t-77.5 -67q74 -15 111 -58t37 -96zM307 608q-20 0 -45.5 -1t-49.5 -2v-219h75q67 0 98 33.5t31 73.5q0 48 -31.5 81.5t-77.5 33.5zM316 319h-104v-255h95q49 0 80.5 8t35.5 12q19 16 31.5 42t12.5 69q0 52 -44 88t-107 36z" />
    <glyph glyph-name="C" unicode="C" horiz-adv-x="606" 
d="M557 19q-44 -14 -96.5 -24t-109.5 -10q-77 0 -134.5 26.5t-95.5 72t-57 107.5t-19 132q0 65 21 130t61.5 116.5t101.5 83.5t139 32q60 0 103.5 -7.5t79.5 -19.5q1 -41 -5 -83t-18 -82q-16 -3 -28.5 -2t-22.5 6q-1 28 -5 55.5t-10 54.5q-20 3 -50.5 4.5t-61.5 1.5
q-14 0 -33.5 -2.5t-38.5 -7t-35.5 -11t-25.5 -13.5q-28 -27 -54.5 -81t-26.5 -132q0 -61 13 -117.5t41.5 -98.5t75 -67.5t112.5 -25.5q25 0 52 2.5t45 6.5q6 33 9.5 63t4.5 59q13 5 26 6t27 -2q8 -44 11.5 -88.5t3.5 -84.5z" />
    <glyph glyph-name="D" unicode="D" horiz-adv-x="663" 
d="M618 344q0 -65 -20 -127.5t-58.5 -111t-94.5 -78.5t-127 -30q-31 0 -68 2t-83 2q-33 0 -64 -1t-63 -1q-4 12 -6 24t-2 24q22 2 43.5 7t43.5 12q3 14 4 29.5t1 31.5v339q0 44 -1.5 77t-3.5 61q-22 7 -43.5 12t-43.5 7q0 12 2 24t6 24q32 0 63 -1t64 -1q53 0 96 2t79 2
q66 0 118 -25t87 -68.5t53 -104t18 -131.5zM313 608q-25 0 -51 -1t-50 -2v-541h90q19 0 40 2.5t40.5 6t34.5 8.5t22 11q33 25 60.5 75.5t27.5 134.5q0 56 -12.5 111t-38 98t-66.5 70t-97 27z" />
    <glyph glyph-name="E" unicode="E" horiz-adv-x="583" 
d="M525 7l-8 -8q-23 1 -53 1.5t-61.5 0.5h-63h-57.5h-115q-33 0 -64 -1t-63 -1q-4 12 -6 24t-2 24q22 2 43.5 7t43.5 12q3 14 4 29.5t1 31.5v339q0 44 -1.5 77t-3.5 61q-22 7 -43.5 12t-43.5 7q0 12 2 24t6 24q32 0 63 -1t64 -1h103h57.5h63t61.5 0.5t53 1.5l8 -8
q1 -42 -1 -84t-8 -84q-13 -4 -26.5 -4t-26.5 4q-1 28 -5 56t-11 54h-223v-228l205 4l8 -8q-1 -17 -3.5 -33t-6.5 -29l-203 4v-250h235q10 30 19.5 60.5t16.5 61.5q13 3 26.5 1.5t26.5 -5.5q0 -44 -2.5 -88t-8.5 -88z" />
    <glyph glyph-name="F" unicode="F" horiz-adv-x="524" 
d="M317 47q1 -13 -1 -25t-6 -23q-12 1 -30.5 1.5t-38 0.5h-38.5h-32q-34 0 -65.5 -1t-65.5 -1q-4 12 -6 24t-2 24q22 2 43.5 7t43.5 12q4 24 4.5 51t0.5 52v297q0 44 -1.5 77t-3.5 61q-22 7 -43.5 12t-43.5 7q0 12 2 24t6 24q32 0 63 -1t64 -1h103h58.5h63t61 0.5t52.5 1.5
l8 -8q1 -45 -1 -90t-8 -90q-13 -4 -26.5 -4t-26.5 4q-1 31 -5 62t-11 60h-223v-242l205 4l8 -8q-1 -17 -3.5 -33t-6.5 -29l-203 4v-152q0 -22 1 -43t3 -40q28 -2 53.5 -7t47.5 -12z" />
    <glyph glyph-name="G" unicode="G" horiz-adv-x="659" 
d="M558 40q-38 -17 -97 -36t-125 -19q-72 0 -127 26.5t-91 72t-54.5 107.5t-18.5 132q0 65 21 130t62 116.5t103.5 83.5t144.5 32q63 0 107.5 -7.5t80.5 -19.5q1 -41 -5 -83t-18 -82q-16 -3 -28.5 -2t-22.5 6q-1 28 -5 55.5t-10 54.5q-25 3 -57 4.5t-68 1.5
q-14 0 -33.5 -2.5t-38.5 -7t-35.5 -11t-25.5 -13.5q-28 -27 -54.5 -81t-26.5 -132q0 -61 13 -117.5t41.5 -98.5t75 -67.5t112.5 -25.5q21 0 45.5 3.5t50.5 9.5v31q0 44 -1.5 77t-3.5 61q-21 6 -44.5 11t-48.5 7q0 12 2 24t6 24q31 0 60.5 -1t55.5 -1h29h34.5t33.5 0.5
t27 1.5q4 -11 5.5 -23t0.5 -25q-15 -7 -32.5 -12t-36.5 -7q-1 -19 -2 -68.5t-1 -99.5v-30z" />
    <glyph glyph-name="H" unicode="H" horiz-adv-x="754" 
d="M717 47q1 -13 -0.5 -25t-5.5 -23q-11 1 -27 1.5t-33.5 0.5h-34.5h-29q-33 0 -64 -1t-63 -1q-4 12 -6 24t-2 24q22 2 43.5 7t43.5 12q4 22 4.5 47t0.5 48v154q-52 2 -104 3.5t-102 1.5h-126v-171q0 -22 1 -43t3 -40q22 -2 42.5 -7t38.5 -12q1 -13 -0.5 -25t-5.5 -23
q-11 1 -27 1.5t-33.5 0.5h-34.5h-29q-33 0 -64 -1t-63 -1q-4 12 -6 24t-2 24q22 2 43.5 7t43.5 12q4 22 4.5 47t0.5 48v305q0 44 -1.5 77t-3.5 61q-22 7 -43.5 12t-43.5 7q0 12 2 24t6 24q32 0 63 -1t64 -1h29h34.5t33.5 0.5t27 1.5q4 -11 5.5 -23t0.5 -25q-18 -7 -38.5 -12
t-42.5 -7q-3 -33 -3.5 -74.5t-0.5 -98.5v-49h332v84q0 44 -1.5 77t-3.5 61q-22 7 -43.5 12t-43.5 7q0 12 2 24t6 24q32 0 63 -1t64 -1h29h34.5t33.5 0.5t27 1.5q4 -11 5.5 -23t0.5 -25q-18 -7 -38.5 -12t-42.5 -7q-3 -33 -3.5 -74.5t-0.5 -98.5v-282q0 -22 1 -43t3 -40
q22 -2 42.5 -7t38.5 -12z" />
    <glyph glyph-name="I" unicode="I" horiz-adv-x="334" 
d="M167 1q-33 0 -64 -1t-63 -1q-4 12 -6 24t-2 24q22 2 43.5 7t43.5 12q3 14 4 29.5t1 31.5v339q0 44 -1.5 77t-3.5 61q-22 7 -43.5 12t-43.5 7q0 12 2 24t6 24q32 0 63 -1t64 -1h29h34.5t33.5 0.5t27 1.5q4 -11 5.5 -23t0.5 -25q-18 -7 -38.5 -12t-42.5 -7q-2 -28 -3 -61
t-1 -77v-317q0 -22 1 -43t3 -40q22 -2 42.5 -7t38.5 -12q1 -13 -0.5 -25t-5.5 -23q-11 1 -27 1.5t-33.5 0.5h-34.5h-29z" />
    <glyph glyph-name="J" unicode="J" horiz-adv-x="306" 
d="M199 27q0 -119 -61.5 -175t-164.5 -67q-8 8 -12.5 21t-4.5 30q77 29 116 76t39 135v419q0 44 -1.5 77t-3.5 61q-22 7 -43.5 12t-43.5 7q0 12 2 24t6 24q32 0 63 -1t64 -1h29h34.5t33.5 0.5t27 1.5q4 -11 5.5 -23t0.5 -25q-18 -7 -38.5 -12t-42.5 -7q-2 -28 -3 -61t-1 -77
v-439z" />
    <glyph glyph-name="K" unicode="K" horiz-adv-x="659" 
d="M654 47q0 -12 -1.5 -26.5t-5.5 -21.5q-25 1 -56 1h-59h-36l-218 321l-66 -67v-105q0 -22 1 -43t3 -40q22 -2 42.5 -7t38.5 -12q1 -13 -0.5 -25t-5.5 -23q-11 1 -27 1.5t-33.5 0.5h-34.5h-29q-33 0 -64 -1t-63 -1q-4 12 -6 24t-2 24q22 2 43.5 7t43.5 12q4 22 4.5 47
t0.5 48v305q0 44 -1.5 77t-3.5 61q-22 7 -43.5 12t-43.5 7q0 12 2 24t6 24q32 0 63 -1t64 -1h29h34.5t33.5 0.5t27 1.5q4 -11 5.5 -23t0.5 -25q-18 -7 -38.5 -12t-42.5 -7q-3 -33 -3.5 -74.5t-0.5 -98.5v-89l258 262l-93 18q0 13 2 25t6 24q32 0 61.5 -1t56.5 -1h25.5h33
t34.5 0.5t29 1.5q4 -11 5.5 -23t0.5 -25q-16 -7 -35 -12t-39 -7l-210 -213l220 -325q24 -3 46 -7.5t41 -11.5z" />
    <glyph glyph-name="L" unicode="L" horiz-adv-x="551" 
d="M525 7l-8 -8q-23 1 -53 1.5t-61.5 0.5h-63h-57.5h-115q-33 0 -64 -1t-63 -1q-4 12 -6 24t-2 24q22 2 43.5 7t43.5 12q3 14 4 29.5t1 31.5v339q0 44 -1.5 77t-3.5 61q-22 7 -43.5 12t-43.5 7q0 12 2 24t6 24q35 0 68.5 -1t69.5 -1h31h36.5t36 0.5t28.5 1.5q4 -11 6 -23
t1 -25q-22 -7 -47.5 -12t-53.5 -7q-2 -28 -3 -61t-1 -77v-401h235q10 33 19.5 66.5t16.5 67.5q13 3 26.5 1.5t26.5 -5.5q0 -47 -2.5 -94t-8.5 -94z" />
    <glyph glyph-name="M" unicode="M" horiz-adv-x="919" 
d="M494 9q-22 -7 -45.5 -10t-45.5 -4l-165 520l-12 90h-1l-47 -539l84 -19q1 -13 -0.5 -25t-5.5 -23q-11 1 -26.5 1.5t-31 0.5h-30.5h-24q-26 0 -54.5 -1t-59.5 -1q-4 12 -6 24t-2 24q22 2 44 7.5t46 12.5l48 537q-25 7 -47.5 12t-44.5 7q0 12 2 24t6 24q32 0 61.5 -1
t56.5 -1q22 0 48 -1t50 -3l153 -483l2 -97h1l177 581q24 2 47.5 2.5t44.5 0.5h29.5h35t34 0.5t27.5 1.5q4 -11 5.5 -23t0.5 -25q-18 -7 -39 -11.5t-45 -7.5l47 -538q24 -2 45.5 -7t39.5 -12q1 -13 -0.5 -25t-5.5 -23q-11 1 -27.5 1.5t-34.5 0.5h-35.5h-29.5q-33 0 -64.5 -1
t-63.5 -1q-4 12 -6 24t-2 24l91 19l-39 449l-3 90h-1z" />
    <glyph glyph-name="N" unicode="N" horiz-adv-x="741" 
d="M634 9q-22 -6 -46 -9.5t-48 -4.5l-315 520l-29 90h-1v-456q0 -22 1 -43t3 -40q22 -2 42.5 -7t38.5 -12q1 -13 -0.5 -25t-5.5 -23q-11 1 -26.5 1.5t-32 0.5h-31.5h-25q-27 0 -57 -1t-62 -1q-4 12 -6 24t-2 24q22 2 43.5 7t43.5 12q3 14 4 29.5t1 31.5v339q0 44 -1.5 77
t-3.5 61q-22 7 -43.5 12t-43.5 7q0 12 2 24t6 24q32 0 62 -1t57 -1q22 0 45 -1t41 -3l290 -481l27 -90h1v372q0 44 -1.5 77t-3.5 61q-22 7 -43.5 12t-43.5 7q0 12 2 24t6 24q32 0 62 -1t57 -1h25h31.5t32 0.5t26.5 1.5q4 -11 5.5 -23t0.5 -25q-18 -7 -38.5 -12t-42.5 -7
q-2 -28 -3 -61t-1 -77v-457z" />
    <glyph glyph-name="O" unicode="O" horiz-adv-x="690" 
d="M645 347q0 -65 -21.5 -130.5t-61.5 -117.5t-97.5 -84.5t-128.5 -32.5t-125.5 26.5t-91 72.5t-55.5 108.5t-19 133.5q0 65 21.5 130t61.5 117t97.5 85t128.5 33q70 0 124.5 -26.5t91.5 -72t56 -108t19 -134.5zM136 366q0 -62 13 -118.5t40.5 -99.5t71 -68.5t103.5 -25.5
q12 0 27.5 2.5t31.5 7t29.5 11t20.5 13.5q28 27 54.5 82t26.5 134q0 62 -13 118.5t-40.5 99.5t-71 68.5t-103.5 25.5q-12 0 -27.5 -2.5t-31.5 -7t-29.5 -11t-20.5 -13.5q-28 -27 -54.5 -82t-26.5 -134z" />
    <glyph glyph-name="P" unicode="P" horiz-adv-x="563" 
d="M317 47q1 -13 -1 -25t-6 -23q-12 1 -30.5 1.5t-38 0.5h-38.5h-32q-34 0 -65.5 -1t-65.5 -1q-4 12 -6 24t-2 24q22 2 43.5 7t43.5 12q3 14 4 29.5t1 31.5v339q0 44 -1.5 77t-3.5 61q-22 7 -43.5 12t-43.5 7q0 12 2 24t6 24q32 0 63 -1t64 -1q53 0 102 2t85 2
q50 0 84.5 -15.5t56 -41t31.5 -59.5t10 -71q0 -40 -18 -82t-48.5 -76.5t-71.5 -57t-86 -22.5q-25 0 -50.5 2t-49.5 6v-107q0 -22 1 -43t3 -40q28 -2 53.5 -7t47.5 -12zM327 608q-25 0 -57.5 -1t-57.5 -2v-283q19 -2 41 -3t47 -1q37 0 67.5 12t34.5 16q19 16 31 45.5t12 66.5
q0 25 -6 51.5t-20 48.5t-37 36t-55 14z" />
    <glyph glyph-name="Q" unicode="Q" horiz-adv-x="690" 
d="M642 -154q-22 -9 -58 -18t-89 -9q-46 0 -94 47t-101 118q-62 7 -110 35.5t-80 73.5t-48.5 104t-16.5 126q0 65 21.5 130t61.5 117t97.5 85t128.5 33q70 0 124.5 -26.5t91.5 -72t56 -108t19 -134.5q0 -56 -16 -113t-46.5 -105t-74 -84.5t-98.5 -52.5q31 -39 72.5 -69
t100.5 -30q10 0 22.5 1t24.5 3q10 -12 13 -25t-1 -26zM136 366q0 -62 13 -118.5t40.5 -99.5t71 -68.5t103.5 -25.5q12 0 27.5 2.5t31.5 7t29.5 11t20.5 13.5q28 27 54.5 82t26.5 134q0 62 -13 118.5t-40.5 99.5t-71 68.5t-103.5 25.5q-12 0 -27.5 -2.5t-31.5 -7t-29.5 -11
t-20.5 -13.5q-28 -27 -54.5 -82t-26.5 -134z" />
    <glyph glyph-name="R" unicode="R" horiz-adv-x="617" 
d="M605 47q0 -12 -1.5 -26.5t-5.5 -21.5q-25 1 -54.5 1h-57.5h-37l-138 282q-22 0 -48 1.5t-51 5.5v-140q0 -22 1 -43t3 -40q22 -2 42.5 -7t38.5 -12q1 -13 -0.5 -25t-5.5 -23q-11 1 -27 1.5t-33.5 0.5h-34.5h-29q-33 0 -64 -1t-63 -1q-4 12 -6 24t-2 24q22 2 43.5 7
t43.5 12q4 24 4.5 51t0.5 52v297q0 44 -1.5 77t-3.5 61q-22 7 -43.5 12t-43.5 7q0 12 2 24t6 24q32 0 63 -1t64 -1q53 0 102 2t85 2q52 0 87 -15t56 -38.5t30 -53t9 -58.5t-9.5 -59.5t-27 -58t-42 -50.5t-55.5 -38l116 -236q24 -3 46 -7.5t41 -11.5zM327 608q-25 0 -57.5 -1
t-57.5 -2v-249q22 -2 43 -3t43 -1q35 0 67 10t36 13q21 16 32 42.5t11 57.5q0 60 -31.5 96.5t-85.5 36.5z" />
    <glyph glyph-name="S" unicode="S" horiz-adv-x="544" 
d="M497 210q0 -47 -16 -88t-45.5 -71.5t-72 -48t-95.5 -17.5q-65 0 -124 12t-96 32q1 44 7.5 86.5t16.5 85.5q14 4 27 2t26 -6q1 -28 4.5 -58.5t9.5 -63.5q27 -9 59.5 -13.5t75.5 -4.5q36 0 64 10.5t32 14.5q17 16 25.5 41.5t8.5 60.5q0 39 -31 67t-69 42l-73 28
q-28 10 -58 24.5t-55 35t-41 48.5t-16 66q0 52 21 88.5t53.5 59t73 32.5t78.5 10q45 0 98 -9.5t95 -25.5q-1 -41 -6.5 -79t-15.5 -73q-15 -4 -28.5 -3t-23.5 7q-2 25 -5.5 49.5t-9.5 48.5q-25 7 -54.5 10t-60.5 3q-35 0 -63 -6t-32 -10q-13 -11 -21 -28t-8 -43
q0 -22 9.5 -40t24.5 -32t33.5 -24.5t36.5 -16.5l86 -31q28 -10 56 -25t50 -36t35.5 -48.5t13.5 -62.5z" />
    <glyph glyph-name="T" unicode="T" horiz-adv-x="606" 
d="M452 47q1 -13 -1 -25t-6 -23q-12 1 -31 1.5t-39 0.5h-39.5h-33.5q-38 0 -73.5 -1t-72.5 -1q-5 12 -7 24t-2 24q27 2 53.5 7t53.5 12q3 14 4 29.5t1 31.5v478h-165q-7 -30 -11 -61t-5 -61q-13 -4 -26.5 -4.5t-26.5 4.5q-6 43 -8 88.5t-1 91.5l8 8q23 -1 53 -1.5t61.5 -0.5
h63h57.5h88h57.5h63t61.5 0.5t53 1.5l8 -8q1 -45 -1 -90t-8 -90q-16 -4 -29 -4t-24 4q-1 31 -5 62t-11 60h-165v-456q0 -22 1 -43t3 -40q28 -2 53.5 -7t47.5 -12z" />
    <glyph glyph-name="U" unicode="U" horiz-adv-x="695" 
d="M599 247q0 -58 -16 -107t-48.5 -84t-83.5 -54.5t-120 -19.5q-112 0 -170.5 59t-58.5 193v232q0 44 -1.5 77t-3.5 61q-22 7 -43.5 12t-43.5 7q0 12 2 24t6 24q32 0 63 -1t64 -1q25 0 63 0.5t60 1.5q4 -11 5.5 -23t0.5 -25q-18 -7 -38.5 -12t-42.5 -7q-2 -28 -2.5 -61
t-0.5 -77v-201q0 -109 37.5 -160t137.5 -51q42 0 77 12t45 23q9 10 25 45t16 101v231q0 44 -1.5 77t-3.5 61q-22 7 -43.5 12t-43.5 7q0 12 2 24t6 24q32 0 63 -1t64 -1q21 0 53 0.5t54 1.5q4 -11 5.5 -23t0.5 -25q-18 -7 -38.5 -12t-42.5 -7q-2 -28 -3 -61t-1 -77v-219z" />
    <glyph glyph-name="V" unicode="V" horiz-adv-x="677" 
d="M388 9q-19 -7 -41 -10.5t-47 -3.5l-215 609q-20 7 -40 12t-40 7q0 12 2 24t6 24q32 0 63 -1t64 -1h29h34.5t33.5 0.5t27 1.5q4 -11 5.5 -23t0.5 -25l-88 -19l154 -439l9 -85h1l175 524l-94 19q0 12 2 24t6 24q32 0 61 -1t54 -1h23.5h30t31 0.5t26.5 1.5q4 -11 5.5 -23
t0.5 -25q-16 -7 -35 -12t-39 -7z" />
    <glyph glyph-name="W" unicode="W" horiz-adv-x="962" 
d="M351 9q-19 -7 -49.5 -10.5t-55.5 -3.5l-161 609q-20 7 -40 12t-40 7q0 12 2 24t6 24q32 0 63 -1t64 -1h29h34.5t33.5 0.5t27 1.5q4 -11 5.5 -23t0.5 -25l-88 -19l113 -439l5 -85h1l154 582q18 7 39 10t43 3l129 -510l6 -85h1l133 524l-94 19q0 12 2 24t6 24q32 0 61 -1
t54 -1h23.5h30t31 0.5t26.5 1.5q4 -11 5.5 -23t0.5 -25q-16 -7 -35 -12t-39 -7l-158 -595q-19 -7 -47 -10.5t-53 -3.5l-119 471l-4 101h-1z" />
    <glyph glyph-name="X" unicode="X" horiz-adv-x="658" 
d="M652 47q1 -13 -0.5 -25t-5.5 -23q-11 1 -27.5 1.5t-35 0.5h-37h-32.5q-37 0 -69.5 -1t-64.5 -1q-4 12 -6 24t-2 24l94 19l-150 216l-149 -216l88 -19q1 -13 -0.5 -25t-5.5 -23q-11 1 -26.5 1.5t-31.5 0.5h-31h-25q-26 0 -57 -1t-66 -1q-4 12 -6 24t-2 24q20 2 41 7t43 12
l188 274l-183 264q-20 7 -40 12t-40 7q0 12 2 24t6 24q34 0 66 -1t67 -1h30h34.5t34 0.5t26.5 1.5q4 -11 5 -23t1 -25l-80 -19l135 -194l135 193l-87 19q0 13 2 25t6 24q31 0 59.5 -1t53.5 -1h24h31.5t32.5 0.5t28 1.5q4 -11 5 -23t1 -25q-16 -7 -35 -12t-39 -7l-178 -252
l199 -286q20 -2 39 -7t35 -12z" />
    <glyph glyph-name="Y" unicode="Y" horiz-adv-x="650" 
d="M478 47q1 -13 -1 -25t-6 -23q-12 1 -31 1.5t-39 0.5h-39.5h-33.5q-38 0 -73.5 -1t-72.5 -1q-5 12 -7 24t-2 24q27 2 53.5 7t53.5 12q3 14 4 29.5t1 31.5v109l-200 368q-20 7 -40 12t-40 7q0 12 2 24t6 24q32 0 64 -1t68 -1q28 0 66.5 0.5t60.5 1.5q4 -11 5.5 -23t0.5 -25
l-88 -19l150 -279l152 279l-94 19q0 12 2 24t6 24q32 0 61.5 -1t54.5 -1h23.5h30.5t31.5 0.5t26.5 1.5q4 -11 5.5 -23t0.5 -25q-16 -7 -35 -12t-39 -7l-193 -354v-101q0 -22 1 -43t3 -40q28 -2 53.5 -7t47.5 -12z" />
    <glyph glyph-name="Z" unicode="Z" horiz-adv-x="606" 
d="M546 7l-8 -8q-23 1 -53 1.5t-61.5 0.5h-63h-57.5h-259q-6 15 -9 31.5t-2 32.5l395 540h-289q-7 -27 -11 -55t-5 -55q-13 -4 -26.5 -4.5t-26.5 4.5q-6 40 -8 82.5t-1 86.5l8 7q23 -1 53 -1.5t61.5 -0.5h63h57.5h210q10 -13 17.5 -29t11.5 -35l-397 -540h322
q10 30 19.5 60.5t16.5 61.5q13 3 26 1.5t27 -5.5q0 -44 -2.5 -88t-8.5 -88z" />
    <glyph glyph-name="bracketleft" unicode="[" horiz-adv-x="369" 
d="M122 843l8 8q52 -1 104.5 -2t106.5 -1q4 -14 4 -28.5t-4 -28.5q-31 -4 -73 -7t-68 -4v-918q26 -1 68 -4t73 -7q3 -14 3 -28.5t-3 -28.5q-54 0 -106.5 -1t-104.5 -2l-8 8v1044z" />
    <glyph glyph-name="backslash" unicode="\" horiz-adv-x="424" 
d="M309 -103l-269 782q19 10 36.5 16.5t34.5 7.5l269 -780q-13 -11 -31 -17.5t-40 -8.5z" />
    <glyph glyph-name="bracketright" unicode="]" horiz-adv-x="369" 
d="M239 851l8 -8v-1044l-8 -8q-52 1 -104.5 2t-106.5 1q-3 14 -3 28.5t3 28.5q31 4 73 7t68 4v918q-26 1 -68 4t-73 7q-4 14 -4 28.5t4 28.5q54 0 106.5 1t104.5 2z" />
    <glyph glyph-name="asciicircum" unicode="^" horiz-adv-x="508" 
d="M449 409q-10 -14 -22.5 -23.5t-28.5 -14.5l-146 187l-149 -185q-16 5 -27 14t-17 20l171 258q10 2 22 3t24 1z" />
    <glyph glyph-name="underscore" unicode="_" horiz-adv-x="500" 
d="M0 -121v59h500v-59h-500z" />
    <glyph glyph-name="grave" unicode="`" horiz-adv-x="415" 
d="M232 526l-165 170l5 19q20 10 40.5 15t42.5 6l117 -184q-6 -10 -16.5 -17t-23.5 -9z" />
    <glyph glyph-name="a" unicode="a" horiz-adv-x="487" 
d="M476 37q-23 -20 -55.5 -35.5t-58.5 -15.5q-15 0 -28.5 22.5t-20.5 57.5q-42 -37 -86.5 -58.5t-78.5 -21.5q-49 0 -81 32t-32 87q0 42 25 73.5t63.5 54t87.5 37t97 23.5q0 57 -16.5 92.5t-67.5 35.5q-19 0 -39.5 -2t-39.5 -6q-4 -19 -5.5 -39.5t-1.5 -41.5q-14 -7 -29 -9
t-29 2q-11 23 -17.5 52t-6.5 55q36 22 81.5 36.5t96.5 14.5q22 0 49.5 -5.5t51.5 -22.5t40.5 -48t16.5 -82v-188q0 -20 1 -41.5t4 -37.5q16 2 33 7t31 9q7 -7 11 -16.5t4 -20.5zM124 130q0 -28 17.5 -48t57.5 -20q22 0 54 15.5t55 36.5v118q-59 -7 -107 -20t-57 -22
t-14.5 -26.5t-5.5 -33.5z" />
    <glyph glyph-name="b" unicode="b" horiz-adv-x="545" 
d="M296 -14q-35 0 -75 15t-74 41q-15 -20 -33 -37.5t-31 -24.5q-10 1 -18 8t-11 14q16 28 24.5 58t8.5 57v559q-19 5 -39.5 9.5t-39.5 6.5q-3 10 -4 19.5t0 19.5q30 11 76 21t87 14l8 -8q-2 -75 -3 -140.5t-1 -147.5v-46q25 22 64.5 39.5t88.5 17.5q80 0 130.5 -65
t50.5 -173q0 -46 -16 -92t-43.5 -82.5t-66 -59.5t-83.5 -23zM296 412q-26 0 -61.5 -12.5t-63.5 -30.5v-254q25 -25 61.5 -43.5t74.5 -18.5q19 0 38.5 6.5t24.5 12.5q22 25 36 62.5t14 80.5q0 37 -8 73t-23.5 63t-38.5 44t-54 17z" />
    <glyph glyph-name="c" unicode="c" horiz-adv-x="454" 
d="M427 54q-34 -25 -86.5 -46.5t-96.5 -21.5q-54 0 -92.5 19t-63.5 51t-36.5 76.5t-11.5 94.5q0 45 15.5 90.5t44 81.5t69.5 59t91 23q51 0 91 -8t68 -21q0 -35 -5.5 -68t-15.5 -62q-17 -5 -31.5 -4t-27.5 8q-1 21 -2.5 41.5t-5.5 41.5q-13 2 -33 3.5t-42 1.5q-19 0 -45 -5
t-36 -14q-21 -22 -35.5 -59t-14.5 -81q0 -31 6.5 -66t22 -64t42 -48t65.5 -19q33 0 68 8t81 26q8 -7 12 -16.5t5 -21.5z" />
    <glyph glyph-name="d" unicode="d" horiz-adv-x="551" 
d="M533 37q-23 -20 -55.5 -35.5t-58.5 -15.5q-18 0 -31.5 29t-19.5 63q-31 -34 -70.5 -63t-80.5 -29q-44 0 -77.5 19t-55.5 51.5t-33 76.5t-11 94q0 53 18 99.5t47.5 80.5t68.5 54t81 20q25 0 56.5 -11t53.5 -24v230q-22 5 -45.5 9.5t-45.5 6.5q-3 10 -4 19.5t0 19.5
q32 11 81.5 21t93.5 14l8 -8q-2 -75 -3 -140.5t-1 -147.5v-333q0 -20 1 -41.5t4 -37.5q16 2 33 7t31 9q7 -7 11 -16.5t4 -20.5zM125 255q0 -38 7 -73.5t21 -63t35.5 -44t49.5 -16.5q25 0 61.5 24.5t65.5 50.5v256q-25 9 -57 17t-64 8q-16 0 -38 -5t-31 -14
q-21 -22 -35.5 -59.5t-14.5 -80.5z" />
    <glyph glyph-name="e" unicode="e" horiz-adv-x="480" 
d="M436 58q-34 -23 -89 -47.5t-104 -24.5q-53 0 -92 19t-63.5 51t-36 76.5t-11.5 95.5q0 46 16 92t44.5 82.5t68.5 59t87 22.5q51 0 85.5 -16t55 -41t29 -57.5t8.5 -64.5q0 -17 -1.5 -34.5t-3.5 -27.5l-8 -8q-31 1 -78 1.5t-103 0.5h-116q2 -30 9.5 -62t23.5 -58t41 -42.5
t62 -16.5q33 0 73 9t86 27q9 -7 12.5 -16t4.5 -20zM174 400q-17 -18 -30 -47t-18 -64h98q40 0 71.5 1.5t50.5 2.5q0 48 -19 87t-85 39q-16 0 -37.5 -5t-30.5 -14z" />
    <glyph glyph-name="f" unicode="f" horiz-adv-x="345" 
d="M316 44q0 -11 -1.5 -24.5t-4.5 -20.5q-41 1 -81 1.5t-74 0.5q-31 0 -60.5 -1t-60.5 -1q-3 6 -5 19.5t-2 25.5q21 2 43 7t37 10q2 16 3 28.5t1 27.5v292q-12 3 -34 7t-41 6q-3 10 -3 20t1 20q16 4 36.5 7t40.5 5v9q0 128 52.5 205.5t143.5 77.5q38 0 70 -7t60 -18
q0 -34 -6 -67.5t-16 -66.5q-16 -4 -30.5 -3.5t-24.5 7.5q-1 21 -2.5 42.5t-5.5 42.5q-13 2 -26.5 3.5t-26.5 1.5q-25 0 -44.5 -7t-23.5 -12q-15 -17 -25.5 -65t-10.5 -113v-32l121 -2q0 -16 -1 -31t-3 -30h-117v-272q0 -20 1 -38.5t2 -36.5q28 -1 61.5 -6t56.5 -12z" />
    <glyph glyph-name="g" unicode="g" horiz-adv-x="508" 
d="M479 -56q0 -105 -73.5 -157.5t-195.5 -52.5q-45 0 -80 12.5t-58.5 32.5t-36 45t-12.5 50q0 47 31 82.5t67 56.5q-7 8 -9.5 18t-2.5 21q0 21 13 45t34 48q-51 13 -80.5 50t-29.5 99q0 33 12.5 66.5t37 59.5t62 43t86.5 17q34 0 61 -6.5t47 -19.5q22 24 49.5 42t66.5 35
q16 -13 25 -30.5t10 -38.5q-20 -8 -52 -18.5t-63 -19.5q17 -21 25 -47t8 -54q0 -34 -12 -67t-37 -59t-64 -42.5t-91 -16.5h-10.5t-9.5 1q-5 -10 -8.5 -20.5t-3.5 -20.5t1 -17.5t3 -10.5t13.5 -4.5t26 -2t30 -1t26.5 -0.5q97 0 145.5 -34t48.5 -84zM125 321q0 -49 30 -84
t78 -35q21 0 42 4.5t28 8.5q13 7 26 35.5t13 56.5q0 19 -8 39t-22.5 35.5t-36 25.5t-48.5 10q-17 0 -36.5 -4t-26.5 -8q-14 -10 -26.5 -34t-12.5 -50zM107 -105q0 -14 5.5 -30.5t20 -30.5t40 -23.5t64.5 -9.5q38 0 72.5 6.5t59.5 22.5q10 6 19 31.5t9 51.5q0 36 -29.5 53.5
t-101.5 17.5q-40 0 -67.5 3t-45.5 8q-20 -21 -33 -47t-13 -53z" />
    <glyph glyph-name="h" unicode="h" horiz-adv-x="581" 
d="M566 44q0 -11 -1.5 -24.5t-5.5 -20.5q-10 0 -25.5 0.5t-31.5 1t-31 0.5h-24q-31 0 -62 -1t-59 -1q-3 6 -5 19.5t-2 25.5q21 2 43 7t38 10q1 16 2 28.5t1 27.5v168q0 56 -16 93t-75 37q-38 0 -69.5 -8.5t-56.5 -20.5v-249q0 -20 1 -38.5t2 -36.5q20 -2 41 -7t34 -11
q0 -11 -1.5 -24.5t-4.5 -20.5q-10 0 -25.5 0.5t-31.5 1t-31 0.5h-24q-31 0 -62 -1t-59 -1q-3 6 -5 19.5t-2 25.5q21 2 43 7t37 10q2 16 3 28.5t1 27.5v559q-19 5 -39.5 9.5t-39.5 6.5q-3 10 -4 19.5t0 19.5q30 11 76 21t87 14l8 -8q-2 -75 -3 -140.5t-1 -147.5v-38
q26 18 70 35t93 17q66 0 102 -38.5t36 -121.5v-187q0 -20 1 -38.5t2 -36.5q20 -2 41 -7t35 -11z" />
    <glyph glyph-name="i" unicode="i" horiz-adv-x="305" 
d="M159 1q-31 0 -62 -1t-59 -1q-3 6 -5 19.5t-2 25.5q21 2 43 7.5t37 10.5q2 14 3 27t1 28v276q-19 5 -39.5 9.5t-39.5 6.5q-3 10 -4 19.5t0 19.5q30 11 76 21t87 14l8 -8q-2 -75 -3 -140.5t-1 -147.5v-50q0 -20 1 -38.5t2 -36.5q20 -2 41 -7t34 -11q0 -11 -1.5 -24.5
t-4.5 -20.5q-10 0 -25.5 0.5t-31.5 1t-31 0.5h-24zM142 561q-20 0 -40 16t-20 38q0 27 20.5 52.5t48.5 25.5q22 0 41 -16t19 -39q0 -27 -20 -52t-49 -25z" />
    <glyph glyph-name="j" unicode="j" horiz-adv-x="273" 
d="M202 638q0 -27 -20 -52t-49 -25q-20 0 -40 16t-20 38q0 27 20.5 52.5t48.5 25.5q22 0 41 -16t19 -39zM187 13q0 -128 -48.5 -188.5t-119.5 -81.5q-10 5 -15.5 13t-5.5 19q48 37 76.5 96.5t28.5 155.5v366q-19 5 -39.5 9.5t-39.5 6.5q-3 10 -4 19.5t0 19.5q30 11 76 21
t87 14l8 -8q-2 -75 -3 -140.5t-1 -147.5v-174z" />
    <glyph glyph-name="k" unicode="k" horiz-adv-x="559" 
d="M558 14q-7 -4 -21.5 -8t-32 -7.5t-36.5 -6t-35 -2.5q-26 0 -51.5 21t-47.5 55t-41.5 77.5t-33.5 87.5l-73 -20v-74q0 -20 1 -38.5t2 -36.5q20 -2 41 -7t34 -11q0 -11 -1.5 -24.5t-4.5 -20.5q-10 0 -25.5 0.5t-31.5 1t-31 0.5h-24q-31 0 -62 -1t-59 -1q-3 6 -5 19.5
t-2 25.5q21 2 43 7t37 10q2 16 3 28.5t1 27.5v559q-19 5 -39.5 9.5t-39.5 6.5q-3 10 -4 19.5t0 19.5q30 11 76 21t87 14l8 -8q-2 -75 -3 -140.5t-1 -147.5v-205q23 8 44 17.5t37 17.5l92 111l-62 15q0 12 2 24.5t5 20.5q24 0 56.5 -1t65.5 -1q18 0 40 0.5t44 1.5
q3 -7 4.5 -20t1.5 -24q-16 -7 -33.5 -12t-33.5 -7l-128 -137q24 -46 55 -98t56 -80q20 -22 37.5 -32.5t45.5 -10.5q7 0 16 1t16 2q7 -7 10 -18t1 -21z" />
    <glyph glyph-name="l" unicode="l" horiz-adv-x="288" 
d="M146 1q-31 0 -62 -1t-59 -1q-3 6 -5 19.5t-2 25.5q21 2 43 7t37 10q2 16 3 28.5t1 27.5v559q-19 5 -39.5 9.5t-39.5 6.5q-3 10 -4 19.5t0 19.5q30 11 76 21t87 14l8 -8q-2 -75 -3 -140.5t-1 -147.5v-333q0 -20 1 -38.5t2 -36.5q20 -2 41 -7t34 -11q0 -11 -1.5 -24.5
t-4.5 -20.5q-10 0 -25.5 0.5t-31.5 1t-31 0.5h-24z" />
    <glyph glyph-name="m" unicode="m" horiz-adv-x="858" 
d="M843 44q0 -11 -1.5 -24.5t-5.5 -20.5q-10 0 -25 0.5t-31 1t-31 0.5h-24q-31 0 -62 -1t-59 -1q-3 6 -5 19.5t-2 25.5q21 2 43 7t37 10q2 16 3 28.5t1 27.5v168q0 56 -14 93t-73 37q-34 0 -64.5 -15t-51.5 -29q1 -10 2 -22t1 -25v-187q0 -20 0.5 -38.5t1.5 -36.5
q20 -3 35.5 -7t29.5 -11q0 -11 -1.5 -24.5t-3.5 -20.5q-20 1 -52 1.5t-50 0.5q-31 0 -60.5 -1t-50.5 -1q-3 6 -5.5 19.5t-2.5 25.5q22 4 38.5 8t32.5 9q2 16 3 28.5t1 27.5v168q0 56 -14 93t-73 37q-32 0 -61 -13.5t-50 -27.5v-237q0 -20 1 -38.5t2 -36.5q20 -2 41 -7
t34 -11q0 -11 -1.5 -24.5t-4.5 -20.5q-10 0 -25.5 0.5t-31.5 1t-31 0.5h-24q-31 0 -62 -1t-59 -1q-3 6 -5 19.5t-2 25.5q21 2 43 7t37 10q2 16 3 28.5t1 27.5v273q-19 6 -39.5 10t-39.5 6q-3 10 -4 20t0 19q28 11 66 21.5t76 14.5l8 -7q3 -9 6 -25.5t7 -32.5q28 28 68.5 48
t83.5 20q46 0 77.5 -19t44.5 -59q28 31 71.5 54.5t90.5 23.5q66 0 100 -38.5t34 -121.5v-187q0 -20 1 -38.5t2 -36.5q20 -2 41 -7t34 -11z" />
    <glyph glyph-name="n" unicode="n" horiz-adv-x="593" 
d="M578 44q0 -11 -1.5 -24.5t-5.5 -20.5q-10 0 -25 0.5t-31.5 1t-31 0.5h-23.5q-31 0 -62 -1t-60 -1q-2 6 -4 19.5t-2 25.5q20 2 42.5 7t37.5 10q2 16 3 28.5t1 27.5v168q0 56 -16 93t-75 37q-31 0 -62.5 -12t-63.5 -34v-232q0 -20 1 -38.5t2 -36.5q20 -2 41 -7t34 -11
q0 -11 -1.5 -24.5t-4.5 -20.5q-10 0 -25.5 0.5t-31.5 1t-31 0.5h-24q-31 0 -62 -1t-59 -1q-3 6 -5 19.5t-2 25.5q21 2 43 7t37 10q2 16 3 28.5t1 27.5v273q-19 6 -39.5 10t-39.5 6q-3 10 -4 20t0 19q28 11 66 21.5t76 14.5l8 -7q2 -9 5.5 -25t6.5 -32q43 31 84 49t84 18
q66 0 102 -38.5t36 -121.5v-187q0 -20 1 -38.5t2 -36.5q19 -2 40.5 -7t34.5 -11z" />
    <glyph glyph-name="o" unicode="o" horiz-adv-x="513" 
d="M473 243q0 -45 -15 -91t-43.5 -83t-70 -60t-93.5 -23q-53 0 -93 18t-66 50t-39 76.5t-13 96.5q0 45 15 91t43.5 83t70 60t93.5 23q54 0 94 -18.5t66 -50.5t38.5 -76.5t12.5 -95.5zM125 255q0 -32 7.5 -67.5t24.5 -65.5t44.5 -49.5t67.5 -19.5q16 0 38 5t31 14
q21 22 35.5 60t14.5 83q0 32 -7.5 67.5t-24.5 65.5t-44.5 49.5t-67.5 19.5q-16 0 -38 -5t-31 -14q-21 -22 -35.5 -60t-14.5 -83z" />
    <glyph glyph-name="p" unicode="p" horiz-adv-x="560" 
d="M307 -207q0 -11 -1.5 -24t-4.5 -20q-41 1 -84 1.5t-71 0.5q-31 0 -60.5 -1t-60.5 -1q-3 6 -5 19t-2 25q21 2 43 7t37 10q2 16 3 28.5t1 27.5v524q-19 6 -39.5 10t-39.5 6q-3 10 -4 20t0 19q28 11 66 21.5t76 14.5l8 -7q2 -8 5.5 -22.5t5.5 -30.5q25 24 66.5 43.5
t92.5 19.5q80 0 130.5 -65t50.5 -173q0 -46 -16 -92t-43.5 -82.5t-66 -59.5t-83.5 -23q-26 0 -60 12.5t-65 34.5v-150q0 -20 1 -38.5t2 -36.5q28 -1 61 -6t57 -12zM311 415q-26 0 -61.5 -12.5t-63.5 -30.5v-253q24 -25 60 -44t76 -19q19 0 38.5 6.5t24.5 12.5q22 25 36 62.5
t14 80.5q0 37 -8 73t-23.5 63t-38.5 44t-54 17z" />
    <glyph glyph-name="q" unicode="q" horiz-adv-x="537" 
d="M528 -207q0 -11 -1.5 -24t-4.5 -20q-25 1 -59.5 1.5t-52.5 0.5q-31 0 -71 -1t-78 -1q-3 6 -5 19t-2 25q28 2 58.5 7t49.5 10q2 16 3 28.5t1 27.5v166q-32 -17 -72 -30t-77 -13q-44 0 -77.5 18.5t-55.5 51t-33 76t-11 92.5q0 55 18.5 102t48.5 81.5t68.5 54t79.5 19.5
q34 0 73.5 -16t64.5 -36q14 19 31 35.5t30 22.5q10 -1 18 -8t11 -14q-16 -28 -24.5 -58t-8.5 -57v-467q0 -20 1 -38.5t2 -36.5q20 -2 41 -7t34 -11zM125 255q0 -37 7 -72t21 -62t35.5 -43.5t49.5 -16.5q22 0 57 5t71 15v310q-25 10 -56 18t-60 8q-32 0 -50.5 -6.5
t-24.5 -12.5q-20 -22 -35 -60.5t-15 -82.5z" />
    <glyph glyph-name="r" unicode="r" horiz-adv-x="431" 
d="M320 44q0 -11 -1.5 -24.5t-4.5 -20.5q-14 0 -35.5 0.5t-43.5 1t-43 0.5h-33q-31 0 -62 -1t-59 -1q-3 6 -5 19.5t-2 25.5q21 2 43 7t37 10q2 16 3 28.5t1 27.5v273q-19 6 -39.5 10t-39.5 6q-3 10 -4 20t0 19q28 11 66 21.5t76 14.5l8 -7q4 -13 9.5 -40.5t7.5 -46.5
q23 37 58 65.5t81 28.5q22 0 43.5 -3.5t37.5 -9.5q0 -53 -4 -91t-14 -81q-13 -4 -26 -4t-26 4q-1 25 -4.5 57t-7.5 54q-5 1 -11.5 1.5t-14.5 0.5q-28 0 -54.5 -14.5t-57.5 -63.5v-194q0 -20 1 -38.5t2 -36.5q33 -2 66 -7t52 -11z" />
    <glyph glyph-name="s" unicode="s" horiz-adv-x="424" 
d="M383 139q0 -36 -14.5 -64t-39.5 -47t-59 -29t-72 -10q-48 0 -89 8t-66 19q0 37 4.5 73t13.5 73q12 5 23.5 5t23.5 -5q1 -25 3.5 -50t6.5 -50q13 -7 39.5 -10.5t51.5 -3.5q48 0 68 15t20 59q0 25 -15 41.5t-37 28.5q-28 15 -61 26t-61.5 26.5t-48 39.5t-19.5 64
q0 37 16 63t41 41t56 22t61 7q40 0 77 -5t66 -14q0 -34 -5.5 -66t-12.5 -57q-13 -4 -26.5 -3t-24.5 5q-1 19 -5 38.5t-8 38.5q-12 4 -28.5 7t-35.5 3q-60 0 -73.5 -16.5t-13.5 -42.5q0 -38 38 -56t84 -36.5t84 -48t38 -89.5z" />
    <glyph glyph-name="t" unicode="t" horiz-adv-x="349" 
d="M345 33q-30 -18 -71 -32.5t-84 -14.5q-51 0 -71.5 37t-20.5 106v280q-14 3 -35 7t-40 6q-3 10 -3 20t1 20q18 4 38 7.5t39 4.5l33 136q12 1 24.5 0t26.5 -6v-132l156 -2q0 -16 -1 -31t-3 -30h-152v-242q0 -54 11.5 -82t35.5 -28q26 0 49 5.5t50 15.5q8 -8 12.5 -19.5
t4.5 -25.5z" />
    <glyph glyph-name="u" unicode="u" horiz-adv-x="582" 
d="M560 37q-23 -20 -56 -35.5t-59 -15.5q-18 0 -31.5 30.5t-18.5 65.5q-35 -39 -74.5 -67.5t-88.5 -28.5q-66 0 -101.5 40t-35.5 123v256q-20 7 -38.5 11.5t-39.5 8.5q0 9 1.5 22.5t4.5 23.5q30 -1 57 -1.5t59 -0.5h34l8 -8q-1 -36 -1.5 -75t-0.5 -75.5v-68.5v-54
q0 -59 17.5 -93.5t60.5 -34.5q16 0 35 8.5t38 20.5t35.5 25.5t26.5 23.5v267q-20 7 -38 11.5t-40 8.5q0 9 1.5 22.5t4.5 23.5q30 -1 57 -1.5t58 -0.5h36l8 -8q-2 -75 -2.5 -140.5t-0.5 -147.5v-36q0 -20 1 -41.5t4 -37.5q16 2 33 7t31 9q7 -7 11 -16.5t4 -20.5z" />
    <glyph glyph-name="v" unicode="v" horiz-adv-x="535" 
d="M316 9q-21 -7 -46 -10.5t-47 -3.5l-151 413q-10 6 -26 11t-29 7q0 12 2 24.5t5 20.5q19 0 44 -1t53 -1q26 0 56.5 0.5t58.5 1.5q4 -10 5 -21.5t0 -23.5l-77 -18l100 -275l4 -73h1l125 350l-77 16q0 12 2 24.5t5 20.5q23 0 52 -1t61 -1q17 0 37 0.5t40 1.5q4 -10 5 -21.5
t0 -23.5q-13 -7 -27.5 -11.5t-29.5 -6.5z" />
    <glyph glyph-name="w" unicode="w" horiz-adv-x="794" 
d="M299 9q-20 -7 -47 -10.5t-49 -3.5l-131 413q-10 5 -26 10.5t-29 7.5q0 12 2 24.5t5 20.5q19 0 44.5 -1t51.5 -1t54.5 0.5t56.5 1.5q4 -10 5 -21.5t0 -23.5l-77 -18l87 -275l5 -73h1l109 405q19 6 42.5 8t44.5 2l91 -342l6 -73h1l110 350l-77 16q0 12 2 24.5t5 20.5
q24 0 52.5 -1t59.5 -1q16 0 35 0.5t40 1.5q4 -10 5 -21.5t0 -23.5q-13 -7 -27.5 -11.5t-29.5 -6.5l-130 -399q-20 -7 -48.5 -10.5t-50.5 -3.5l-83 307l-6 79h-1z" />
    <glyph glyph-name="x" unicode="x" horiz-adv-x="552" 
d="M537 44q1 -12 0 -23.5t-5 -21.5q-27 1 -55.5 1.5t-48.5 0.5q-39 0 -71 -1t-57 -1q-3 8 -5 20.5t-2 24.5l70 14l-102 134l-100 -132l71 -16q0 -11 -1.5 -24.5t-4.5 -20.5q-20 1 -52.5 1.5t-49.5 0.5q-26 0 -53.5 -1t-50.5 -1q-4 8 -5.5 20.5t-1.5 24.5q19 2 41.5 7
t37.5 10l133 178l-128 169q-11 5 -35 10.5t-38 7.5q0 12 2 24.5t5 20.5q20 0 53 -1t60 -1q25 0 52.5 0.5t55.5 1.5q4 -10 5 -21.5t0 -23.5l-62 -12l92 -121l88 117l-64 16q0 12 2 24.5t5 20.5q22 0 51 -1t57 -1q16 0 35.5 0.5t38.5 1.5q4 -10 5 -21.5t0 -23.5
q-14 -7 -30 -11.5t-32 -6.5l-120 -162l141 -186q19 -2 38 -5.5t35 -10.5z" />
    <glyph glyph-name="y" unicode="y" horiz-adv-x="535" 
d="M314 8q-21 -57 -43.5 -105.5t-46 -83.5t-49.5 -55t-54 -20q-32 0 -58 8.5t-39 17.5q0 14 4.5 25t11.5 19h13q71 0 112 43t71 109l15 34h-30l-149 408q-10 6 -26 11t-29 7q0 12 2 24.5t5 20.5q19 0 44 -1t53 -1q26 0 56.5 0.5t58.5 1.5q4 -10 5 -21.5t0 -23.5l-77 -18
l100 -275l4 -73h1l125 350l-77 16q0 12 2 24.5t5 20.5q23 0 52 -1t61 -1q17 0 37 0.5t40 1.5q4 -10 5 -21.5t0 -23.5q-13 -7 -27.5 -11.5t-29.5 -6.5z" />
    <glyph glyph-name="z" unicode="z" horiz-adv-x="478" 
d="M421 7l-8 -8q-23 1 -53 1.5t-61.5 0.5h-63h-57.5h-123q-6 13 -10 28.5t-4 30.5l277 354h-188q-5 -22 -10 -45.5t-6 -46.5q-13 -3 -27 -3t-27 3q-5 34 -7.5 69.5t-1.5 71.5l8 8q23 -1 53 -1.5t61.5 -0.5h63h57.5h107q8 -13 12.5 -27t5.5 -30l-278 -354h202q10 25 19.5 53
t15.5 55q13 4 26 2t25 -6q1 -40 -1 -78t-7 -77z" />
    <glyph glyph-name="braceleft" unicode="{" horiz-adv-x="444" 
d="M428 -170q-1 -17 -6.5 -30t-14.5 -19q-44 10 -83.5 27t-68 41.5t-45.5 57t-17 73.5q0 16 1.5 41.5t2.5 53t2.5 54.5t1.5 48q0 16 -1 26.5t-4 14.5q-21 24 -46 42t-55 33q-5 11 -7.5 23t-2.5 23q37 20 62 36.5t49 38.5q3 4 4 15.5t1 28.5q0 22 -1.5 50.5t-2.5 57.5
t-2.5 54.5t-1.5 41.5q0 41 17 74t45.5 57t68 41t83.5 27q9 -7 14.5 -19.5t6.5 -28.5q-38 -16 -75.5 -38t-53.5 -40q-4 -4 -7.5 -17.5t-6.5 -29.5t-5 -33t-2 -28v-205q0 -29 -31 -52t-75 -44q44 -17 75 -42t31 -53v-215q0 -12 2 -28.5t5 -33t6.5 -29.5t7.5 -17
q16 -19 53.5 -40.5t75.5 -37.5z" />
    <glyph glyph-name="bar" unicode="|" horiz-adv-x="318" 
d="M122 -208v1058h74v-1058h-74z" />
    <glyph glyph-name="braceright" unicode="}" horiz-adv-x="444" 
d="M251 -20q0 -41 -17 -74t-45.5 -57t-68 -41t-83.5 -27q-9 7 -14.5 19.5t-6.5 28.5q38 16 75.5 38t53.5 40q4 4 7.5 17.5t6.5 29.5t5 33t2 28v205q0 29 31 52t75 44q-44 17 -75 42t-31 53v215q0 12 -2 28.5t-5 33t-6.5 29.5t-7.5 17q-16 19 -53.5 40.5t-75.5 37.5
q1 17 6.5 30t14.5 19q44 -10 83.5 -27t68 -41.5t45.5 -57t17 -73.5q0 -16 -1.5 -41.5t-2.5 -53t-2.5 -54.5t-1.5 -48q0 -16 1 -26.5t4 -14.5q21 -24 46 -42t55 -33q5 -11 7.5 -23t2.5 -23q-37 -20 -62 -36.5t-49 -38.5q-3 -4 -4 -15.5t-1 -28.5q0 -22 1.5 -50.5t2.5 -57.5
t2.5 -54.5t1.5 -41.5z" />
    <glyph glyph-name="asciitilde" unicode="~" horiz-adv-x="488" 
d="M323 181q-24 0 -46 8t-42.5 17.5t-40 17.5t-39.5 8q-19 0 -47.5 -12t-52.5 -28q-11 7 -17.5 18t-7.5 26q28 27 68.5 50t66.5 23q24 0 46 -8t42.5 -17.5t40 -17.5t39.5 -8q19 0 47.5 12t52.5 28q11 -7 17.5 -18t7.5 -26q-28 -27 -68.5 -50t-66.5 -23z" />
    <glyph glyph-name="uni00A0" unicode="&#xa0;" horiz-adv-x="210" 
 />
    <glyph glyph-name="exclamdown" unicode="&#xa1;" horiz-adv-x="299" 
d="M211 423q0 -24 -18 -40.5t-44 -16.5q-25 0 -43 16.5t-18 40.5t18 42.5t43 18.5q26 0 44 -18.5t18 -42.5zM120 294q7 2 14.5 3.5t14.5 1.5q6 0 12.5 -1.5t11.5 -3.5q13 -122 20 -222t7 -172q0 -26 -1 -51.5t-3 -44.5q-12 -3 -23.5 -4.5t-24.5 -1.5q-12 0 -24 1.5t-25 4.5
q-1 17 -2 42.5t-1 50.5q0 72 6.5 173t17.5 224z" />
    <glyph glyph-name="cent" unicode="&#xa2;" horiz-adv-x="469" 
d="M281 -79q-14 -3 -26.5 -3t-23.5 3v78q-47 4 -81.5 24t-56.5 52t-32.5 74t-10.5 90q0 40 12.5 81t36 75.5t57 59.5t75.5 34v88q12 4 24.5 4t25.5 -4v-84q47 -1 84 -9t64 -20q0 -35 -5.5 -68t-15.5 -62q-17 -5 -31.5 -4t-27.5 8q-1 21 -2.5 41.5t-5.5 41.5q-10 1 -26 2.5
t-34 2.5v-356q31 1 63.5 9.5t75.5 24.5q8 -7 12 -16.5t5 -21.5q-28 -21 -72 -40.5t-84 -25.5v-79zM135 267q0 -26 5 -56t16 -56.5t29.5 -48t45.5 -30.5v347q-14 -2 -27 -6.5t-19 -9.5q-21 -22 -35.5 -59t-14.5 -81z" />
    <glyph glyph-name="sterling" unicode="&#xa3;" horiz-adv-x="512" 
d="M456 7l-8 -8q-22 1 -50 1.5t-57 0.5h-57.5h-52.5h-185q-6 16 -8.5 36.5t-1.5 43.5q54 13 75 67.5t23 144.5h-78q-4 15 -4 32t4 33h79q2 61 15.5 115t37 93t58 62t77.5 23q37 0 71.5 -7.5t68.5 -18.5q1 -41 -5 -81.5t-16 -77.5q-16 -3 -28 -2t-22 6q-1 27 -4.5 53t-8.5 51
q-12 3 -29.5 4.5t-35.5 1.5q-23 0 -44 -10t-28 -20q-14 -21 -19 -75.5t-5 -116.5h137q5 -16 4.5 -32.5t-4.5 -32.5h-139q-5 -69 -26 -121t-64 -95h253q10 28 19 57t16 59q13 3 26 1.5t27 -5.5q0 -43 -2.5 -85.5t-8.5 -96.5z" />
    <glyph glyph-name="currency" unicode="&#xa4;" 
d="M275 177q-23 0 -44 5.5t-38 15.5l-66 -56q-13 7 -22.5 17t-16.5 23l56 65q-11 18 -17 39t-6 45q0 22 6.5 41.5t17.5 37.5l-59 69q7 13 17 22.5t23 16.5l68 -59q18 12 39 19t42 7q24 0 44.5 -6t37.5 -16l66 57q13 -7 23 -17t17 -23l-57 -65q11 -19 17 -40.5t6 -43.5
t-6.5 -42.5t-16.5 -37.5l58 -68q-7 -13 -17 -23t-23 -17l-67 59q-18 -12 -39 -18.5t-43 -6.5zM366 331q0 38 -26 65.5t-65 27.5t-65 -27.5t-26 -65.5q0 -39 26 -66.5t65 -27.5t65 27.5t26 66.5z" />
    <glyph glyph-name="yen" unicode="&#xa5;" horiz-adv-x="521" 
d="M410 46q1 -12 -0.5 -24t-5.5 -23q-12 1 -30 1.5t-37.5 0.5h-38.5h-33q-37 0 -71 -1t-70 -1q-5 12 -7 24t-2 23q26 2 51.5 7t51.5 11q3 13 4 37t1 39v43h-132q-3 13 -3 27t3 27h132v71h-132q-3 14 -3 27.5t3 27.5h100l-124 209q-14 7 -28.5 11.5t-28.5 6.5q0 12 1.5 24
t5.5 23q28 0 55.5 -0.5t58.5 -0.5h57t54 1q2 -10 3.5 -22t0.5 -25l-77 -18l108 -180l109 180l-82 18q0 12 1.5 24t4.5 23q28 0 52.5 -0.5t46.5 -0.5h46.5t48.5 1q3 -10 4.5 -22t0.5 -25q-11 -6 -24.5 -11t-27.5 -7l-125 -209h109q4 -13 3.5 -26.5t-3.5 -28.5h-131v-71h131
q4 -12 3.5 -26t-3.5 -28h-131v-40q0 -20 1 -40t3 -39q26 -2 50.5 -6.5t45.5 -11.5z" />
    <glyph glyph-name="brokenbar" unicode="&#xa6;" horiz-adv-x="314" 
d="M120 393v457h74v-457h-74zM120 -208v457h74v-457h-74z" />
    <glyph glyph-name="section" unicode="&#xa7;" horiz-adv-x="478" 
d="M399 14q0 -43 -16.5 -73t-41 -49t-53.5 -27.5t-53 -8.5q-43 0 -86 8t-79 21q1 35 6 67.5t13 62.5q14 3 27.5 2t25.5 -6q1 -22 3 -42.5t5 -40.5q19 -6 44 -9t47 -3q19 0 35.5 4t19.5 7q12 10 19 25.5t7 39.5q0 44 -45 70t-99 51.5t-99 59.5t-45 93q0 51 30 88t76 68
q-27 19 -44 45t-17 60q0 43 16.5 73t41 49t53.5 27.5t53 8.5q43 0 86 -8t79 -21q-1 -35 -6 -67.5t-13 -62.5q-14 -3 -27.5 -2t-25.5 6q-1 22 -3 42.5t-5 40.5q-19 6 -44 9t-47 3q-19 0 -35.5 -4t-19.5 -7q-12 -10 -19 -25.5t-7 -39.5q0 -44 45 -70t99 -51.5t99 -59.5t45 -93
q0 -51 -30 -88t-76 -68q27 -19 44 -45t17 -60zM116 283q0 -25 17 -44t43.5 -35t59 -30.5t63.5 -30.5q33 31 48 59.5t15 55.5q0 25 -17 44t-43.5 35t-59 30.5t-63.5 30.5q-33 -31 -48 -59.5t-15 -55.5z" />
    <glyph glyph-name="dieresis" unicode="&#xa8;" horiz-adv-x="415" 
d="M112 554q-19 0 -34.5 13t-15.5 32q0 23 16.5 45t42.5 22q18 0 34 -13.5t16 -33.5q0 -24 -17 -44t-42 -21zM293 554q-17 0 -33.5 13t-16.5 32q0 23 17 45t42 22q19 0 34.5 -13.5t15.5 -33.5q0 -24 -16.5 -44t-42.5 -21z" />
    <glyph glyph-name="copyright" unicode="&#xa9;" horiz-adv-x="755" 
d="M40 323q0 70 26.5 132t72 107.5t107 72t131.5 26.5t132 -26.5t107.5 -72t72 -107.5t26.5 -132t-26.5 -132t-72 -107.5t-107.5 -72t-132 -26.5t-131.5 26.5t-107 72t-72 107.5t-26.5 132zM108 323q0 -57 20.5 -107.5t57 -87.5t85.5 -59t106 -22t106.5 22t85.5 59t57 87.5
t21 107.5t-21 107.5t-57 87.5t-85.5 59t-106.5 22t-106 -22t-85.5 -59t-57 -87.5t-20.5 -107.5zM434 454q-10 1 -23.5 2t-31.5 1q-19 0 -37.5 -4t-25.5 -8q-8 -6 -24 -33t-16 -70q0 -61 28 -103.5t90 -42.5q12 0 25.5 1.5t22.5 3.5q2 17 4 32.5t3 31.5q11 4 22 4.5t23 -0.5
q4 -24 6 -49.5t2 -58.5q-25 -8 -56.5 -14t-65.5 -6q-45 0 -78.5 14t-55.5 38.5t-32.5 57t-10.5 69.5q0 34 11.5 68.5t35 61.5t58.5 44.5t82 17.5q36 0 61.5 -4.5t45.5 -11.5q0 -34 -3 -58.5t-10 -45.5q-11 -1 -21.5 -0.5t-20.5 4.5q-1 15 -3 29.5t-5 28.5z" />
    <glyph glyph-name="ordfeminine" unicode="&#xaa;" horiz-adv-x="334" 
d="M330 325q-16 -16 -40 -27.5t-46 -11.5q-11 0 -21.5 12t-17.5 30q-24 -18 -50.5 -30t-49.5 -12q-40 0 -62 19t-22 55q0 25 17 45t42.5 34.5t57 24t60.5 15.5q-1 28 -11 46t-35 18q-11 0 -22.5 -1t-22.5 -2q-3 -10 -4 -21t-1 -21q-12 -6 -24 -8t-25 1q-8 13 -13 30t-5 36
q26 15 60 24t71 9q15 0 34 -3.5t35.5 -13.5t28 -29.5t11.5 -50.5v-151q11 1 22.5 3.5t21.5 4.5q5 -4 8 -10.5t3 -14.5zM100 380q0 -14 10 -25.5t29 -11.5q13 0 29.5 6.5t29.5 15.5v64q-30 -4 -55 -9t-30 -9q-6 -4 -9.5 -14t-3.5 -17z" />
    <glyph glyph-name="guillemotleft" unicode="&#xab;" horiz-adv-x="577" 
d="M295 437l-140 -190l146 -185q-8 -13 -19 -22.5t-25 -15.5l-199 197q-1 12 0.5 25.5t5.5 26.5l195 194q12 -3 21 -11t15 -19zM515 437l-140 -190l146 -185q-8 -13 -19 -22.5t-25 -15.5l-199 197q-1 12 0.5 25.5t5.5 26.5l195 194q12 -3 21 -11t15 -19z" />
    <glyph glyph-name="logicalnot" unicode="&#xac;" 
d="M491 291v-291q-16 -4 -33 -4t-33 4v225h-375q-4 16 -4 33t4 33h441z" />
    <glyph glyph-name="uni00AD" unicode="&#xad;" horiz-adv-x="380" 
d="M316 214l-250 -4q-4 16 -3.5 33.5t4.5 33.5l249 5q4 -17 4.5 -34t-4.5 -34z" />
    <glyph glyph-name="registered" unicode="&#xae;" horiz-adv-x="520" 
d="M14 532q0 50 19.5 94t53 76t78.5 51t95 19t94.5 -19t78 -51t53.5 -76t20 -94t-20 -94t-53.5 -76.5t-78 -51t-94.5 -18.5t-95 18.5t-78.5 51t-53 76.5t-19.5 94zM71 532q0 -39 15 -73.5t40.5 -60t60 -40.5t73.5 -15t73.5 15t60 40.5t40.5 60t15 73.5t-15 73.5t-40.5 60
t-60 40.5t-73.5 15t-73.5 -15t-60 -40.5t-40.5 -60t-15 -73.5zM159 655l116 1q38 0 54.5 -20.5t16.5 -45.5q0 -21 -11.5 -37.5t-29.5 -26.5q10 -21 23 -41t32 -20q3 0 7.5 0.5t9.5 1.5q5 -7 7.5 -14t3.5 -14q-7 -4 -21.5 -9t-30.5 -5q-12 0 -23.5 8.5t-22 21.5t-18.5 28.5
t-13 29.5l-23 2v-44l28 -7q1 -9 1 -17.5t-3 -15.5h-102q-4 7 -5 16t0 18l31 6v144l-31 7q-1 10 0 18.5t4 14.5zM265 613h-29v-59h20q25 0 32 8.5t7 22.5q0 12 -8 20t-22 8z" />
    <glyph glyph-name="macron" unicode="&#xaf;" horiz-adv-x="415" 
d="M68 632h275q6 -16 6 -33.5t-6 -33.5h-275q-5 16 -4.5 33.5t4.5 33.5z" />
    <glyph glyph-name="degree" unicode="&#xb0;" horiz-adv-x="364" 
d="M33 520q0 61 44 105t105 44t105 -44t44 -105t-44 -105t-105 -44t-105 44t-44 105zM94 520q0 -37 25.5 -63.5t62.5 -26.5t62.5 26.5t25.5 63.5t-25.5 63.5t-62.5 26.5t-62.5 -26.5t-25.5 -63.5z" />
    <glyph glyph-name="plusminus" unicode="&#xb1;" 
d="M309 123q-16 -4 -32.5 -3.5t-33.5 3.5v157h-166q-4 16 -3.5 32.5t3.5 33.5h166v159q17 4 33.5 4t32.5 -4v-159h166q4 -17 4 -33.5t-4 -32.5h-166v-157zM475 0h-398q-4 16 -3.5 32.5t3.5 33.5h398q4 -17 4 -33.5t-4 -32.5z" />
    <glyph glyph-name="twosuperior" unicode="&#xb2;" horiz-adv-x="350" 
d="M307 420l-7 -7q-31 1 -76 1.5t-80 0.5h-100q-5 14 -7.5 31t-2.5 35q77 51 129 96.5t52 82.5q0 28 -16.5 46.5t-44.5 18.5q-8 0 -18 -1.5t-18 -2.5q-4 -18 -6.5 -37t-3.5 -38q-13 -3 -24.5 -3.5t-23.5 3.5q-7 24 -10.5 49.5t-3.5 58.5q31 15 63 22t66 7q54 0 88.5 -32
t34.5 -68q0 -52 -41 -97t-94 -79l-42 -27h186q4 -13 4 -30t-4 -30z" />
    <glyph glyph-name="threesuperior" unicode="&#xb3;" horiz-adv-x="350" 
d="M309 535q0 -51 -45.5 -89.5t-108.5 -38.5q-29 0 -56.5 5t-54.5 14q0 34 2.5 60t6.5 50q11 3 22.5 3.5t23.5 -0.5q3 -18 6.5 -35.5t9.5 -34.5q8 -2 19 -3t22 -1q16 0 32.5 4t20.5 7q10 7 13.5 19.5t3.5 26.5q0 22 -19.5 37t-46.5 15h-12t-11 -1l-7 7q-1 13 1 25.5t7 25.5
q36 1 54 17.5t18 33.5t-15 30t-40 13q-10 0 -20 -1t-18 -2q-4 -15 -6.5 -31.5t-3.5 -32.5q-13 -2 -24.5 -2.5t-23.5 2.5q-7 21 -10.5 44.5t-3.5 51.5q31 15 63.5 22t67.5 7q48 0 82.5 -24.5t34.5 -58.5q0 -27 -16.5 -48t-44.5 -34q40 -10 58.5 -33t18.5 -50z" />
    <glyph glyph-name="acute" unicode="&#xb4;" horiz-adv-x="415" 
d="M148 550l110 167q25 7 49.5 9.5t49.5 2.5l8 -23l-179 -184q-13 3 -22 10t-16 18z" />
    <glyph glyph-name="uni00B5" unicode="&#xb5;" horiz-adv-x="582" 
d="M109 475q12 0 24 -2.5t22 -6.5v-211q0 -79 26 -129.5t66 -50.5q27 0 50.5 18t40 47.5t26 68.5t9.5 81v176q11 4 23 6.5t24 2.5t24 -2.5t23 -6.5q-7 -53 -10 -97.5t-3 -81.5q0 -65 6.5 -113t18.5 -90q20 1 43 6t38 10q12 -10 17.5 -26t3.5 -32q-21 -24 -50 -40t-54 -16
q-28 0 -46 46.5t-17 114.5h-2q-24 -80 -64 -119t-87 -39t-76 33.5t-44 93.5h-2l25 -362q-11 -4 -23.5 -6.5t-25.5 -2.5q-12 0 -24.5 2.5t-23.5 6.5q5 128 6 222.5t1 172.5q0 39 -0.5 82t-2 84t-3.5 80t-5 71q10 4 22 6.5t24 2.5z" />
    <glyph glyph-name="paragraph" unicode="&#xb6;" horiz-adv-x="563" 
d="M456 87q0 -140 -63.5 -223t-169.5 -83q-37 0 -71.5 7.5t-56.5 23.5q-2 29 6.5 54t28.5 42l10 3q21 -21 51 -33t58 -12q24 0 49 5t40 16q12 9 21 47t9 112v161q-24 -8 -50 -12.5t-63 -4.5q-38 0 -78.5 14.5t-73.5 43.5t-54.5 72.5t-21.5 100.5q0 54 22.5 100t59.5 79.5
t85.5 52.5t99.5 19q30 0 60.5 -1.5t65.5 -1.5h25h31.5t32 0.5t26.5 1.5q4 -11 5.5 -23t0.5 -25q-18 -7 -38.5 -12t-42.5 -7q-2 -28 -3 -61t-1 -77v-379zM204 449q0 -38 7.5 -71.5t21.5 -58t33 -39t41 -14.5q15 0 30 1t31 3v337q-7 1 -16.5 1h-19.5q-27 0 -51.5 -6.5
t-41.5 -18.5q-11 -8 -23 -45t-12 -89z" />
    <glyph glyph-name="periodcentered" unicode="&#xb7;" horiz-adv-x="299" 
d="M145 169q-20 0 -40 16t-20 38q0 27 20.5 52.5t48.5 25.5q22 0 41 -16t19 -39q0 -27 -20 -52t-49 -25z" />
    <glyph glyph-name="cedilla" unicode="&#xb8;" horiz-adv-x="415" 
d="M308 -120q0 -22 -13.5 -44t-36.5 -40.5t-54 -32t-65 -19.5q-6 5 -8.5 12t-2.5 17q13 6 30 15t32 20.5t25.5 26.5t10.5 31q0 19 -18.5 32.5t-55.5 11.5l-8 8l51 102h42l-28 -63q49 -2 74 -23t25 -54z" />
    <glyph glyph-name="onesuperior" unicode="&#xb9;" horiz-adv-x="284" 
d="M249 453q1 -10 -0.5 -20t-3.5 -20q-14 1 -43.5 1.5t-54.5 0.5q-32 0 -55 -1t-45 -1q-3 10 -4 20t-1 20q16 1 31.5 3.5t31.5 6.5l2 18t1 18v220h-59q-4 7 -5.5 16.5t-0.5 20.5q31 12 65 19t72 10l7 -7v-267q0 -13 0.5 -25t1.5 -23q16 -1 31.5 -3.5t28.5 -6.5z" />
    <glyph glyph-name="ordmasculine" unicode="&#xba;" horiz-adv-x="344" 
d="M176 590q75 0 110.5 -42t35.5 -105q0 -28 -10.5 -56t-30 -50.5t-48 -36.5t-65.5 -14q-73 0 -109.5 41.5t-36.5 105.5q0 28 10.5 56t30 50.5t48.5 36.5t65 14zM179 339q9 0 21 2t17 7q12 13 19.5 33.5t7.5 45.5q0 18 -4 37t-13 35.5t-24 27t-37 10.5q-9 0 -21.5 -2.5
t-16.5 -6.5q-12 -13 -19.5 -33.5t-7.5 -45.5q0 -18 4 -37t13 -35.5t24 -27t37 -10.5z" />
    <glyph glyph-name="guillemotright" unicode="&#xbb;" horiz-adv-x="579" 
d="M63 54l138 189l-145 186q7 12 18 21.5t26 15.5l199 -198q2 -13 0.5 -26t-6.5 -26l-195 -193q-13 4 -22 11t-13 20zM284 54l138 189l-145 186q7 12 18 21.5t26 15.5l199 -198q2 -13 0.5 -26t-6.5 -26l-195 -193q-13 4 -22 11t-13 20z" />
    <glyph glyph-name="onequarter" unicode="&#xbc;" horiz-adv-x="880" 
d="M286 371q1 -10 -0.5 -20t-3.5 -20q-14 1 -43.5 1.5t-54.5 0.5q-32 0 -55 -1t-45 -1q-3 10 -4 20t-1 20q16 1 31.5 3.5t31.5 6.5l2 18t1 18v220h-59q-4 7 -5.5 16.5t-0.5 20.5q31 12 65 19t72 10l7 -7v-267q0 -13 0.5 -25t1.5 -23q16 -1 31.5 -3.5t28.5 -6.5zM192 11
l435 686q18 -4 30 -12.5t21 -20.5l-435 -685q-16 4 -28.5 11.5t-22.5 20.5zM788 29q-16 -7 -34.5 -11t-34.5 -4l-7 7v94h-146q-7 12 -9.5 25.5t-2.5 28.5l163 217q19 0 37 -3.5t34 -10.5v-205l67 -5q1 -13 0.5 -24t-3.5 -23h-64v-86zM712 295l-99 -130h99v130z" />
    <glyph glyph-name="onehalf" unicode="&#xbd;" horiz-adv-x="880" 
d="M286 371q1 -10 -0.5 -20t-3.5 -20q-14 1 -43.5 1.5t-54.5 0.5q-32 0 -55 -1t-45 -1q-3 10 -4 20t-1 20q16 1 31.5 3.5t31.5 6.5l2 18t1 18v220h-59q-4 7 -5.5 16.5t-0.5 20.5q31 12 65 19t72 10l7 -7v-267q0 -13 0.5 -25t1.5 -23q16 -1 31.5 -3.5t28.5 -6.5zM192 11
l435 686q18 -4 30 -12.5t21 -20.5l-435 -685q-16 4 -28.5 11.5t-22.5 20.5zM837 27l-7 -7q-31 1 -76 1.5t-80 0.5h-100q-5 14 -7.5 31t-2.5 35q77 51 129 96.5t52 82.5q0 28 -16.5 46.5t-44.5 18.5q-8 0 -18 -1.5t-18 -2.5q-4 -18 -6.5 -37t-3.5 -38q-13 -3 -24.5 -3.5
t-23.5 3.5q-7 24 -10.5 49.5t-3.5 58.5q31 15 63 22t66 7q54 0 88.5 -32t34.5 -68q0 -52 -41 -97t-94 -79l-42 -27h186q4 -13 4 -30t-4 -30z" />
    <glyph glyph-name="threequarters" unicode="&#xbe;" horiz-adv-x="880" 
d="M309 453q0 -51 -45.5 -89.5t-108.5 -38.5q-29 0 -56.5 5t-54.5 14q0 34 2.5 60t6.5 50q11 3 22.5 3.5t23.5 -0.5q3 -18 6.5 -35.5t9.5 -34.5q8 -2 19 -3t22 -1q16 0 32.5 4t20.5 7q10 7 13.5 19.5t3.5 26.5q0 22 -19.5 37t-46.5 15h-12t-11 -1l-7 7q-1 13 1 25.5t7 25.5
q36 1 54 17.5t18 33.5t-15 30t-40 13q-10 0 -20 -1t-18 -2q-4 -15 -6.5 -31.5t-3.5 -32.5q-13 -2 -24.5 -2.5t-23.5 2.5q-7 21 -10.5 44.5t-3.5 51.5q31 15 63.5 22t67.5 7q48 0 82.5 -24.5t34.5 -58.5q0 -27 -16.5 -48t-44.5 -34q40 -10 58.5 -33t18.5 -50zM192 11l435 686
q18 -4 30 -12.5t21 -20.5l-435 -685q-16 4 -28.5 11.5t-22.5 20.5zM788 29q-16 -7 -34.5 -11t-34.5 -4l-7 7v94h-146q-7 12 -9.5 25.5t-2.5 28.5l163 217q19 0 37 -3.5t34 -10.5v-205l67 -5q1 -13 0.5 -24t-3.5 -23h-64v-86zM712 295l-99 -130h99v130z" />
    <glyph glyph-name="questiondown" unicode="&#xbf;" horiz-adv-x="398" 
d="M280 423q0 -24 -18 -40.5t-44 -16.5q-25 0 -43 16.5t-18 40.5t18 42.5t43 18.5q26 0 44 -18.5t18 -42.5zM292 -32q13 4 26 5.5t26 -1.5q9 -38 13 -74.5t4 -74.5q-24 -14 -67.5 -26t-89.5 -12q-87 0 -132 49.5t-45 122.5q0 50 18.5 85t43 61t49 45.5t37.5 39.5
q7 12 8.5 42.5t1.5 50.5q13 11 34 14t39 -1q6 -22 10.5 -50.5t4.5 -56.5q0 -25 -25 -47t-55 -45.5t-55 -50.5t-25 -61q0 -49 31.5 -85t80.5 -36q14 0 25 1t21 2q8 25 13 49.5t8 53.5z" />
    <glyph glyph-name="Agrave" unicode="&#xc0;" horiz-adv-x="677" 
d="M667 47q1 -13 -0.5 -25t-5.5 -23q-11 1 -27 1.5t-33.5 0.5h-34.5h-29q-33 0 -64 -1t-63 -1q-4 12 -6 24t-2 24l94 19l-55 155q-40 2 -81.5 3t-76.5 1h-73l-53 -159l88 -19q1 -13 -0.5 -25t-5.5 -23q-11 1 -26.5 1.5t-31 0.5h-30h-23.5q-25 0 -54 -1t-61 -1q-4 12 -6 24
t-2 24q20 2 40 7t40 12l205 595q19 7 41 10.5t47 3.5l215 -609q20 -2 39 -7t35 -12zM332 589l-101 -303h188l-81 230l-5 73h-1zM237 902l179 -134q-3 -10 -8.5 -20.5t-13.5 -18.5l-211 95l-5 20q9 18 23 31.5t36 26.5z" />
    <glyph glyph-name="Aacute" unicode="&#xc1;" horiz-adv-x="677" 
d="M667 47q1 -13 -0.5 -25t-5.5 -23q-11 1 -27 1.5t-33.5 0.5h-34.5h-29q-33 0 -64 -1t-63 -1q-4 12 -6 24t-2 24l94 19l-55 155q-40 2 -81.5 3t-76.5 1h-73l-53 -159l88 -19q1 -13 -0.5 -25t-5.5 -23q-11 1 -26.5 1.5t-31 0.5h-30h-23.5q-25 0 -54 -1t-61 -1q-4 12 -6 24
t-2 24q20 2 40 7t40 12l205 595q19 7 41 10.5t47 3.5l215 -609q20 -2 39 -7t35 -12zM332 589l-101 -303h188l-81 230l-5 73h-1zM263 767l186 130q16 -9 28.5 -23.5t22.5 -33.5l-3 -20l-213 -93q-8 7 -13 18t-8 22z" />
    <glyph glyph-name="Acircumflex" unicode="&#xc2;" horiz-adv-x="677" 
d="M667 47q1 -13 -0.5 -25t-5.5 -23q-11 1 -27 1.5t-33.5 0.5h-34.5h-29q-33 0 -64 -1t-63 -1q-4 12 -6 24t-2 24l94 19l-55 155q-40 2 -81.5 3t-76.5 1h-73l-53 -159l88 -19q1 -13 -0.5 -25t-5.5 -23q-11 1 -26.5 1.5t-31 0.5h-30h-23.5q-25 0 -54 -1t-61 -1q-4 12 -6 24
t-2 24q20 2 40 7t40 12l205 595q19 7 41 10.5t47 3.5l215 -609q20 -2 39 -7t35 -12zM332 589l-101 -303h188l-81 230l-5 73h-1zM508 758q-5 -12 -13.5 -22t-19.5 -17l-136 93l-132 -93q-10 6 -16.5 15t-10.5 19l128 134q15 3 31 4.5t32 1.5z" />
    <glyph glyph-name="Atilde" unicode="&#xc3;" horiz-adv-x="677" 
d="M667 47q1 -13 -0.5 -25t-5.5 -23q-11 1 -27 1.5t-33.5 0.5h-34.5h-29q-33 0 -64 -1t-63 -1q-4 12 -6 24t-2 24l94 19l-55 155q-40 2 -81.5 3t-76.5 1h-73l-53 -159l88 -19q1 -13 -0.5 -25t-5.5 -23q-11 1 -26.5 1.5t-31 0.5h-30h-23.5q-25 0 -54 -1t-61 -1q-4 12 -6 24
t-2 24q20 2 40 7t40 12l205 595q19 7 41 10.5t47 3.5l215 -609q20 -2 39 -7t35 -12zM332 589l-101 -303h188l-81 230l-5 73h-1zM194 744q-13 4 -21 10.5t-12 16.5q23 43 58 71.5t65 28.5q19 0 37 -10t34.5 -22.5t32.5 -22.5t32 -10q11 0 31 14.5t39 39.5q13 -4 21 -10.5
t12 -16.5q-23 -43 -58 -71.5t-65 -28.5q-19 0 -37 10t-34.5 22.5t-32.5 22.5t-32 10q-11 0 -31 -14.5t-39 -39.5z" />
    <glyph glyph-name="Adieresis" unicode="&#xc4;" horiz-adv-x="677" 
d="M667 47q1 -13 -0.5 -25t-5.5 -23q-11 1 -27 1.5t-33.5 0.5h-34.5h-29q-33 0 -64 -1t-63 -1q-4 12 -6 24t-2 24l94 19l-55 155q-40 2 -81.5 3t-76.5 1h-73l-53 -159l88 -19q1 -13 -0.5 -25t-5.5 -23q-11 1 -26.5 1.5t-31 0.5h-30h-23.5q-25 0 -54 -1t-61 -1q-4 12 -6 24
t-2 24q20 2 40 7t40 12l205 595q19 7 41 10.5t47 3.5l215 -609q20 -2 39 -7t35 -12zM332 589l-101 -303h188l-81 230l-5 73h-1zM247 743q-18 0 -33.5 12.5t-15.5 30.5q0 22 16.5 43.5t41.5 21.5q17 0 32.5 -13t15.5 -32q0 -23 -16.5 -42.5t-40.5 -20.5zM430 743
q-16 0 -32 12.5t-16 30.5q0 22 16.5 43.5t40.5 21.5q19 0 34 -13t15 -32q0 -23 -16.5 -42.5t-41.5 -20.5z" />
    <glyph glyph-name="Aring" unicode="&#xc5;" horiz-adv-x="677" 
d="M667 47q1 -13 -0.5 -25t-5.5 -23q-11 1 -27 1.5t-33.5 0.5h-34.5h-29q-33 0 -64 -1t-63 -1q-4 12 -6 24t-2 24l94 19l-55 155q-40 2 -81.5 3t-76.5 1h-73l-53 -159l88 -19q1 -13 -0.5 -25t-5.5 -23q-11 1 -26.5 1.5t-31 0.5h-30h-23.5q-25 0 -54 -1t-61 -1q-4 12 -6 24
t-2 24q20 2 40 7t40 12l205 595q19 7 41 10.5t47 3.5l215 -609q20 -2 39 -7t35 -12zM332 589l-101 -303h188l-81 230l-5 73h-1zM338 713q-46 0 -73 24.5t-27 73.5q0 37 33.5 69t76.5 32q46 0 73 -24.5t27 -73.5q0 -36 -33.5 -68.5t-76.5 -32.5zM344 764q10 0 20 3.5t14 6.5
q5 4 9 13.5t4 22.5q0 19 -14.5 35t-34.5 16q-10 0 -20 -3t-14 -6q-5 -4 -9 -13.5t-4 -22.5q0 -19 14.5 -35.5t34.5 -16.5z" />
    <glyph glyph-name="AE" unicode="&#xc6;" horiz-adv-x="885" 
d="M827 7l-8 -8q-23 1 -52.5 1.5t-61 0.5h-63h-57.5h-106q-33 0 -64 -1t-63 -1q-4 12 -6 24t-2 24q22 2 43.5 7t43.5 12q3 14 4 29.5t1 31.5v167h-176l-104 -228l88 -19q1 -13 -0.5 -25t-5.5 -23q-11 1 -26.5 1.5t-31 0.5h-30h-23.5q-25 0 -54 -1t-61 -1q-4 12 -6 24t-2 24
q20 2 40 7t40 12l247 541l-86 16q0 12 2 24t6 24q32 0 63 -1t64 -1h193h57.5h63t61 0.5t52.5 1.5l8 -8q1 -42 -1 -84t-8 -84q-16 -4 -29 -4t-24 4q-1 28 -5 56t-11 54h-218v-248l200 4l8 -8q-1 -17 -3.5 -33.5t-6.5 -29.5l-198 4v-229h230q10 30 19.5 60.5t16.5 61.5
q13 3 26.5 1.5t26.5 -5.5q0 -44 -2.5 -88t-8.5 -88zM289 357h147v247h-34z" />
    <glyph glyph-name="Ccedilla" unicode="&#xc7;" horiz-adv-x="606" 
d="M557 19q-44 -14 -96.5 -24t-109.5 -10q-77 0 -134.5 26.5t-95.5 72t-57 107.5t-19 132q0 65 21 130t61.5 116.5t101.5 83.5t139 32q60 0 103.5 -7.5t79.5 -19.5q1 -41 -5 -83t-18 -82q-16 -3 -28.5 -2t-22.5 6q-1 28 -5 55.5t-10 54.5q-20 3 -50.5 4.5t-61.5 1.5
q-14 0 -33.5 -2.5t-38.5 -7t-35.5 -11t-25.5 -13.5q-28 -27 -54.5 -81t-26.5 -132q0 -61 13 -117.5t41.5 -98.5t75 -67.5t112.5 -25.5q25 0 52 2.5t45 6.5q6 33 9.5 63t4.5 59q13 5 26 6t27 -2q8 -44 11.5 -88.5t3.5 -84.5zM439 -120q0 -22 -13.5 -44t-36.5 -40.5t-54 -32
t-65 -19.5q-6 5 -8.5 12t-2.5 17q13 6 30 15t32 20.5t25.5 26.5t10.5 31q0 19 -18.5 32.5t-55.5 11.5l-8 8l51 102h42l-28 -63q49 -2 74 -23t25 -54z" />
    <glyph glyph-name="Egrave" unicode="&#xc8;" horiz-adv-x="583" 
d="M525 7l-8 -8q-23 1 -53 1.5t-61.5 0.5h-63h-57.5h-115q-33 0 -64 -1t-63 -1q-4 12 -6 24t-2 24q22 2 43.5 7t43.5 12q3 14 4 29.5t1 31.5v339q0 44 -1.5 77t-3.5 61q-22 7 -43.5 12t-43.5 7q0 12 2 24t6 24q32 0 63 -1t64 -1h103h57.5h63t61.5 0.5t53 1.5l8 -8
q1 -42 -1 -84t-8 -84q-13 -4 -26.5 -4t-26.5 4q-1 28 -5 56t-11 54h-223v-228l205 4l8 -8q-1 -17 -3.5 -33t-6.5 -29l-203 4v-250h235q10 30 19.5 60.5t16.5 61.5q13 3 26.5 1.5t26.5 -5.5q0 -44 -2.5 -88t-8.5 -88zM194 902l179 -134q-3 -10 -8.5 -20.5t-13.5 -18.5
l-211 95l-5 20q9 18 23 31.5t36 26.5z" />
    <glyph glyph-name="Eacute" unicode="&#xc9;" horiz-adv-x="583" 
d="M525 7l-8 -8q-23 1 -53 1.5t-61.5 0.5h-63h-57.5h-115q-33 0 -64 -1t-63 -1q-4 12 -6 24t-2 24q22 2 43.5 7t43.5 12q3 14 4 29.5t1 31.5v339q0 44 -1.5 77t-3.5 61q-22 7 -43.5 12t-43.5 7q0 12 2 24t6 24q32 0 63 -1t64 -1h103h57.5h63t61.5 0.5t53 1.5l8 -8
q1 -42 -1 -84t-8 -84q-13 -4 -26.5 -4t-26.5 4q-1 28 -5 56t-11 54h-223v-228l205 4l8 -8q-1 -17 -3.5 -33t-6.5 -29l-203 4v-250h235q10 30 19.5 60.5t16.5 61.5q13 3 26.5 1.5t26.5 -5.5q0 -44 -2.5 -88t-8.5 -88zM220 767l186 130q16 -9 28.5 -23.5t22.5 -33.5l-3 -20
l-213 -93q-8 7 -13 18t-8 22z" />
    <glyph glyph-name="Ecircumflex" unicode="&#xca;" horiz-adv-x="583" 
d="M525 7l-8 -8q-23 1 -53 1.5t-61.5 0.5h-63h-57.5h-115q-33 0 -64 -1t-63 -1q-4 12 -6 24t-2 24q22 2 43.5 7t43.5 12q3 14 4 29.5t1 31.5v339q0 44 -1.5 77t-3.5 61q-22 7 -43.5 12t-43.5 7q0 12 2 24t6 24q32 0 63 -1t64 -1h103h57.5h63t61.5 0.5t53 1.5l8 -8
q1 -42 -1 -84t-8 -84q-13 -4 -26.5 -4t-26.5 4q-1 28 -5 56t-11 54h-223v-228l205 4l8 -8q-1 -17 -3.5 -33t-6.5 -29l-203 4v-250h235q10 30 19.5 60.5t16.5 61.5q13 3 26.5 1.5t26.5 -5.5q0 -44 -2.5 -88t-8.5 -88zM465 758q-5 -12 -13.5 -22t-19.5 -17l-136 93l-132 -93
q-10 6 -16.5 15t-10.5 19l128 134q15 3 31 4.5t32 1.5z" />
    <glyph glyph-name="Edieresis" unicode="&#xcb;" horiz-adv-x="583" 
d="M525 7l-8 -8q-23 1 -53 1.5t-61.5 0.5h-63h-57.5h-115q-33 0 -64 -1t-63 -1q-4 12 -6 24t-2 24q22 2 43.5 7t43.5 12q3 14 4 29.5t1 31.5v339q0 44 -1.5 77t-3.5 61q-22 7 -43.5 12t-43.5 7q0 12 2 24t6 24q32 0 63 -1t64 -1h103h57.5h63t61.5 0.5t53 1.5l8 -8
q1 -42 -1 -84t-8 -84q-13 -4 -26.5 -4t-26.5 4q-1 28 -5 56t-11 54h-223v-228l205 4l8 -8q-1 -17 -3.5 -33t-6.5 -29l-203 4v-250h235q10 30 19.5 60.5t16.5 61.5q13 3 26.5 1.5t26.5 -5.5q0 -44 -2.5 -88t-8.5 -88zM204 743q-18 0 -33.5 12.5t-15.5 30.5q0 22 16.5 43.5
t41.5 21.5q17 0 32.5 -13t15.5 -32q0 -23 -16.5 -42.5t-40.5 -20.5zM387 743q-16 0 -32 12.5t-16 30.5q0 22 16.5 43.5t40.5 21.5q19 0 34 -13t15 -32q0 -23 -16.5 -42.5t-41.5 -20.5z" />
    <glyph glyph-name="Igrave" unicode="&#xcc;" horiz-adv-x="334" 
d="M167 1q-33 0 -64 -1t-63 -1q-4 12 -6 24t-2 24q22 2 43.5 7t43.5 12q3 14 4 29.5t1 31.5v339q0 44 -1.5 77t-3.5 61q-22 7 -43.5 12t-43.5 7q0 12 2 24t6 24q32 0 63 -1t64 -1h29h34.5t33.5 0.5t27 1.5q4 -11 5.5 -23t0.5 -25q-18 -7 -38.5 -12t-42.5 -7q-2 -28 -3 -61
t-1 -77v-317q0 -22 1 -43t3 -40q22 -2 42.5 -7t38.5 -12q1 -13 -0.5 -25t-5.5 -23q-11 1 -27 1.5t-33.5 0.5h-34.5h-29zM62 902l179 -134q-3 -10 -8.5 -20.5t-13.5 -18.5l-211 95l-5 20q9 18 23 31.5t36 26.5z" />
    <glyph glyph-name="Iacute" unicode="&#xcd;" horiz-adv-x="334" 
d="M167 1q-33 0 -64 -1t-63 -1q-4 12 -6 24t-2 24q22 2 43.5 7t43.5 12q3 14 4 29.5t1 31.5v339q0 44 -1.5 77t-3.5 61q-22 7 -43.5 12t-43.5 7q0 12 2 24t6 24q32 0 63 -1t64 -1h29h34.5t33.5 0.5t27 1.5q4 -11 5.5 -23t0.5 -25q-18 -7 -38.5 -12t-42.5 -7q-2 -28 -3 -61
t-1 -77v-317q0 -22 1 -43t3 -40q22 -2 42.5 -7t38.5 -12q1 -13 -0.5 -25t-5.5 -23q-11 1 -27 1.5t-33.5 0.5h-34.5h-29zM88 767l186 130q16 -9 28.5 -23.5t22.5 -33.5l-3 -20l-213 -93q-8 7 -13 18t-8 22z" />
    <glyph glyph-name="Icircumflex" unicode="&#xce;" horiz-adv-x="334" 
d="M167 1q-33 0 -64 -1t-63 -1q-4 12 -6 24t-2 24q22 2 43.5 7t43.5 12q3 14 4 29.5t1 31.5v339q0 44 -1.5 77t-3.5 61q-22 7 -43.5 12t-43.5 7q0 12 2 24t6 24q32 0 63 -1t64 -1h29h34.5t33.5 0.5t27 1.5q4 -11 5.5 -23t0.5 -25q-18 -7 -38.5 -12t-42.5 -7q-2 -28 -3 -61
t-1 -77v-317q0 -22 1 -43t3 -40q22 -2 42.5 -7t38.5 -12q1 -13 -0.5 -25t-5.5 -23q-11 1 -27 1.5t-33.5 0.5h-34.5h-29zM333 758q-5 -12 -13.5 -22t-19.5 -17l-136 93l-132 -93q-10 6 -16.5 15t-10.5 19l128 134q15 3 31 4.5t32 1.5z" />
    <glyph glyph-name="Idieresis" unicode="&#xcf;" horiz-adv-x="334" 
d="M167 1q-33 0 -64 -1t-63 -1q-4 12 -6 24t-2 24q22 2 43.5 7t43.5 12q3 14 4 29.5t1 31.5v339q0 44 -1.5 77t-3.5 61q-22 7 -43.5 12t-43.5 7q0 12 2 24t6 24q32 0 63 -1t64 -1h29h34.5t33.5 0.5t27 1.5q4 -11 5.5 -23t0.5 -25q-18 -7 -38.5 -12t-42.5 -7q-2 -28 -3 -61
t-1 -77v-317q0 -22 1 -43t3 -40q22 -2 42.5 -7t38.5 -12q1 -13 -0.5 -25t-5.5 -23q-11 1 -27 1.5t-33.5 0.5h-34.5h-29zM72 743q-18 0 -33.5 12.5t-15.5 30.5q0 22 16.5 43.5t41.5 21.5q17 0 32.5 -13t15.5 -32q0 -23 -16.5 -42.5t-40.5 -20.5zM255 743q-16 0 -32 12.5
t-16 30.5q0 22 16.5 43.5t40.5 21.5q19 0 34 -13t15 -32q0 -23 -16.5 -42.5t-41.5 -20.5z" />
    <glyph glyph-name="Eth" unicode="&#xd0;" horiz-adv-x="665" 
d="M621 344q0 -65 -20 -127.5t-58.5 -111t-94.5 -78.5t-127 -30q-31 0 -68 2t-83 2q-33 0 -64 -1t-63 -1q-4 12 -6 24t-2 24q22 2 43.5 7t43.5 12q3 14 4 29.5t1 31.5v176h-89q-3 16 -3.5 32.5t3.5 33.5h89v97q0 44 -1.5 77t-3.5 61q-22 7 -43.5 12t-43.5 7q0 12 2 24t6 24
q32 0 63 -1t64 -1q53 0 96 2t79 2q66 0 118 -25t87 -68.5t53 -104t18 -131.5zM347 303h-132v-239h90q19 0 40 2.5t40.5 6t34.5 8.5t22 11q33 25 60.5 75.5t27.5 134.5q0 56 -12.5 111t-38 98t-66.5 70t-97 27q-25 0 -51 -1t-50 -2v-236h132q3 -17 3 -33t-3 -33z" />
    <glyph glyph-name="Ntilde" unicode="&#xd1;" horiz-adv-x="741" 
d="M634 9q-22 -6 -46 -9.5t-48 -4.5l-315 520l-29 90h-1v-456q0 -22 1 -43t3 -40q22 -2 42.5 -7t38.5 -12q1 -13 -0.5 -25t-5.5 -23q-11 1 -26.5 1.5t-32 0.5h-31.5h-25q-27 0 -57 -1t-62 -1q-4 12 -6 24t-2 24q22 2 43.5 7t43.5 12q3 14 4 29.5t1 31.5v339q0 44 -1.5 77
t-3.5 61q-22 7 -43.5 12t-43.5 7q0 12 2 24t6 24q32 0 62 -1t57 -1q22 0 45 -1t41 -3l290 -481l27 -90h1v372q0 44 -1.5 77t-3.5 61q-22 7 -43.5 12t-43.5 7q0 12 2 24t6 24q32 0 62 -1t57 -1h25h31.5t32 0.5t26.5 1.5q4 -11 5.5 -23t0.5 -25q-18 -7 -38.5 -12t-42.5 -7
q-2 -28 -3 -61t-1 -77v-457zM226 744q-13 4 -21 10.5t-12 16.5q23 43 58 71.5t65 28.5q19 0 37 -10t34.5 -22.5t32.5 -22.5t32 -10q11 0 31 14.5t39 39.5q13 -4 21 -10.5t12 -16.5q-23 -43 -58 -71.5t-65 -28.5q-19 0 -37 10t-34.5 22.5t-32.5 22.5t-32 10q-11 0 -31 -14.5
t-39 -39.5z" />
    <glyph glyph-name="Ograve" unicode="&#xd2;" horiz-adv-x="690" 
d="M645 347q0 -65 -21.5 -130.5t-61.5 -117.5t-97.5 -84.5t-128.5 -32.5t-125.5 26.5t-91 72.5t-55.5 108.5t-19 133.5q0 65 21.5 130t61.5 117t97.5 85t128.5 33q70 0 124.5 -26.5t91.5 -72t56 -108t19 -134.5zM136 366q0 -62 13 -118.5t40.5 -99.5t71 -68.5t103.5 -25.5
q12 0 27.5 2.5t31.5 7t29.5 11t20.5 13.5q28 27 54.5 82t26.5 134q0 62 -13 118.5t-40.5 99.5t-71 68.5t-103.5 25.5q-12 0 -27.5 -2.5t-31.5 -7t-29.5 -11t-20.5 -13.5q-28 -27 -54.5 -82t-26.5 -134zM248 902l179 -134q-3 -10 -8.5 -20.5t-13.5 -18.5l-211 95l-5 20
q9 18 23 31.5t36 26.5z" />
    <glyph glyph-name="Oacute" unicode="&#xd3;" horiz-adv-x="690" 
d="M645 347q0 -65 -21.5 -130.5t-61.5 -117.5t-97.5 -84.5t-128.5 -32.5t-125.5 26.5t-91 72.5t-55.5 108.5t-19 133.5q0 65 21.5 130t61.5 117t97.5 85t128.5 33q70 0 124.5 -26.5t91.5 -72t56 -108t19 -134.5zM136 366q0 -62 13 -118.5t40.5 -99.5t71 -68.5t103.5 -25.5
q12 0 27.5 2.5t31.5 7t29.5 11t20.5 13.5q28 27 54.5 82t26.5 134q0 62 -13 118.5t-40.5 99.5t-71 68.5t-103.5 25.5q-12 0 -27.5 -2.5t-31.5 -7t-29.5 -11t-20.5 -13.5q-28 -27 -54.5 -82t-26.5 -134zM274 767l186 130q16 -9 28.5 -23.5t22.5 -33.5l-3 -20l-213 -93
q-8 7 -13 18t-8 22z" />
    <glyph glyph-name="Ocircumflex" unicode="&#xd4;" horiz-adv-x="690" 
d="M645 347q0 -65 -21.5 -130.5t-61.5 -117.5t-97.5 -84.5t-128.5 -32.5t-125.5 26.5t-91 72.5t-55.5 108.5t-19 133.5q0 65 21.5 130t61.5 117t97.5 85t128.5 33q70 0 124.5 -26.5t91.5 -72t56 -108t19 -134.5zM136 366q0 -62 13 -118.5t40.5 -99.5t71 -68.5t103.5 -25.5
q12 0 27.5 2.5t31.5 7t29.5 11t20.5 13.5q28 27 54.5 82t26.5 134q0 62 -13 118.5t-40.5 99.5t-71 68.5t-103.5 25.5q-12 0 -27.5 -2.5t-31.5 -7t-29.5 -11t-20.5 -13.5q-28 -27 -54.5 -82t-26.5 -134zM519 758q-5 -12 -13.5 -22t-19.5 -17l-136 93l-132 -93q-10 6 -16.5 15
t-10.5 19l128 134q15 3 31 4.5t32 1.5z" />
    <glyph glyph-name="Otilde" unicode="&#xd5;" horiz-adv-x="690" 
d="M645 347q0 -65 -21.5 -130.5t-61.5 -117.5t-97.5 -84.5t-128.5 -32.5t-125.5 26.5t-91 72.5t-55.5 108.5t-19 133.5q0 65 21.5 130t61.5 117t97.5 85t128.5 33q70 0 124.5 -26.5t91.5 -72t56 -108t19 -134.5zM136 366q0 -62 13 -118.5t40.5 -99.5t71 -68.5t103.5 -25.5
q12 0 27.5 2.5t31.5 7t29.5 11t20.5 13.5q28 27 54.5 82t26.5 134q0 62 -13 118.5t-40.5 99.5t-71 68.5t-103.5 25.5q-12 0 -27.5 -2.5t-31.5 -7t-29.5 -11t-20.5 -13.5q-28 -27 -54.5 -82t-26.5 -134zM205 744q-13 4 -21 10.5t-12 16.5q23 43 58 71.5t65 28.5q19 0 37 -10
t34.5 -22.5t32.5 -22.5t32 -10q11 0 31 14.5t39 39.5q13 -4 21 -10.5t12 -16.5q-23 -43 -58 -71.5t-65 -28.5q-19 0 -37 10t-34.5 22.5t-32.5 22.5t-32 10q-11 0 -31 -14.5t-39 -39.5z" />
    <glyph glyph-name="Odieresis" unicode="&#xd6;" horiz-adv-x="690" 
d="M645 347q0 -65 -21.5 -130.5t-61.5 -117.5t-97.5 -84.5t-128.5 -32.5t-125.5 26.5t-91 72.5t-55.5 108.5t-19 133.5q0 65 21.5 130t61.5 117t97.5 85t128.5 33q70 0 124.5 -26.5t91.5 -72t56 -108t19 -134.5zM136 366q0 -62 13 -118.5t40.5 -99.5t71 -68.5t103.5 -25.5
q12 0 27.5 2.5t31.5 7t29.5 11t20.5 13.5q28 27 54.5 82t26.5 134q0 62 -13 118.5t-40.5 99.5t-71 68.5t-103.5 25.5q-12 0 -27.5 -2.5t-31.5 -7t-29.5 -11t-20.5 -13.5q-28 -27 -54.5 -82t-26.5 -134zM258 743q-18 0 -33.5 12.5t-15.5 30.5q0 22 16.5 43.5t41.5 21.5
q17 0 32.5 -13t15.5 -32q0 -23 -16.5 -42.5t-40.5 -20.5zM441 743q-16 0 -32 12.5t-16 30.5q0 22 16.5 43.5t40.5 21.5q19 0 34 -13t15 -32q0 -23 -16.5 -42.5t-41.5 -20.5z" />
    <glyph glyph-name="multiply" unicode="&#xd7;" 
d="M453 125q-10 -14 -21.5 -25.5t-25.5 -20.5l-131 132l-132 -132q-15 9 -26 21t-20 26l131 131l-132 132q9 15 20 26t26 21l133 -132l132 132q15 -9 26 -20.5t21 -25.5l-133 -133z" />
    <glyph glyph-name="Oslash" unicode="&#xd8;" horiz-adv-x="690" 
d="M336 -18q-39 0 -73.5 8t-62.5 24l-42 -74q-16 4 -30 11t-21 17l43 81q-51 46 -78 117.5t-27 156.5q0 65 21.5 130t61.5 117t97.5 85t128.5 33q39 0 73 -8t63 -24l39 73q16 -2 29 -9t23 -18l-43 -79q52 -46 79.5 -118t27.5 -158q0 -65 -21.5 -130.5t-61.5 -117.5
t-97.5 -84.5t-128.5 -32.5zM136 366q0 -67 15.5 -129t48.5 -105l243 450q-23 16 -52.5 25t-64.5 9q-12 0 -27.5 -2.5t-31.5 -7t-29.5 -11t-20.5 -13.5q-28 -27 -54.5 -82t-26.5 -134zM554 304q0 68 -16 130t-50 105l-243 -450q23 -16 53 -25.5t66 -9.5q12 0 27.5 2.5t31.5 7
t29.5 11t20.5 13.5q28 27 54.5 82t26.5 134z" />
    <glyph glyph-name="Ugrave" unicode="&#xd9;" horiz-adv-x="695" 
d="M599 247q0 -58 -16 -107t-48.5 -84t-83.5 -54.5t-120 -19.5q-112 0 -170.5 59t-58.5 193v232q0 44 -1.5 77t-3.5 61q-22 7 -43.5 12t-43.5 7q0 12 2 24t6 24q32 0 63 -1t64 -1q25 0 63 0.5t60 1.5q4 -11 5.5 -23t0.5 -25q-18 -7 -38.5 -12t-42.5 -7q-2 -28 -2.5 -61
t-0.5 -77v-201q0 -109 37.5 -160t137.5 -51q42 0 77 12t45 23q9 10 25 45t16 101v231q0 44 -1.5 77t-3.5 61q-22 7 -43.5 12t-43.5 7q0 12 2 24t6 24q32 0 63 -1t64 -1q21 0 53 0.5t54 1.5q4 -11 5.5 -23t0.5 -25q-18 -7 -38.5 -12t-42.5 -7q-2 -28 -3 -61t-1 -77v-219z
M252 902l179 -134q-3 -10 -8.5 -20.5t-13.5 -18.5l-211 95l-5 20q9 18 23 31.5t36 26.5z" />
    <glyph glyph-name="Uacute" unicode="&#xda;" horiz-adv-x="695" 
d="M599 247q0 -58 -16 -107t-48.5 -84t-83.5 -54.5t-120 -19.5q-112 0 -170.5 59t-58.5 193v232q0 44 -1.5 77t-3.5 61q-22 7 -43.5 12t-43.5 7q0 12 2 24t6 24q32 0 63 -1t64 -1q25 0 63 0.5t60 1.5q4 -11 5.5 -23t0.5 -25q-18 -7 -38.5 -12t-42.5 -7q-2 -28 -2.5 -61
t-0.5 -77v-201q0 -109 37.5 -160t137.5 -51q42 0 77 12t45 23q9 10 25 45t16 101v231q0 44 -1.5 77t-3.5 61q-22 7 -43.5 12t-43.5 7q0 12 2 24t6 24q32 0 63 -1t64 -1q21 0 53 0.5t54 1.5q4 -11 5.5 -23t0.5 -25q-18 -7 -38.5 -12t-42.5 -7q-2 -28 -3 -61t-1 -77v-219z
M278 767l186 130q16 -9 28.5 -23.5t22.5 -33.5l-3 -20l-213 -93q-8 7 -13 18t-8 22z" />
    <glyph glyph-name="Ucircumflex" unicode="&#xdb;" horiz-adv-x="695" 
d="M599 247q0 -58 -16 -107t-48.5 -84t-83.5 -54.5t-120 -19.5q-112 0 -170.5 59t-58.5 193v232q0 44 -1.5 77t-3.5 61q-22 7 -43.5 12t-43.5 7q0 12 2 24t6 24q32 0 63 -1t64 -1q25 0 63 0.5t60 1.5q4 -11 5.5 -23t0.5 -25q-18 -7 -38.5 -12t-42.5 -7q-2 -28 -2.5 -61
t-0.5 -77v-201q0 -109 37.5 -160t137.5 -51q42 0 77 12t45 23q9 10 25 45t16 101v231q0 44 -1.5 77t-3.5 61q-22 7 -43.5 12t-43.5 7q0 12 2 24t6 24q32 0 63 -1t64 -1q21 0 53 0.5t54 1.5q4 -11 5.5 -23t0.5 -25q-18 -7 -38.5 -12t-42.5 -7q-2 -28 -3 -61t-1 -77v-219z
M523 758q-5 -12 -13.5 -22t-19.5 -17l-136 93l-132 -93q-10 6 -16.5 15t-10.5 19l128 134q15 3 31 4.5t32 1.5z" />
    <glyph glyph-name="Udieresis" unicode="&#xdc;" horiz-adv-x="695" 
d="M599 247q0 -58 -16 -107t-48.5 -84t-83.5 -54.5t-120 -19.5q-112 0 -170.5 59t-58.5 193v232q0 44 -1.5 77t-3.5 61q-22 7 -43.5 12t-43.5 7q0 12 2 24t6 24q32 0 63 -1t64 -1q25 0 63 0.5t60 1.5q4 -11 5.5 -23t0.5 -25q-18 -7 -38.5 -12t-42.5 -7q-2 -28 -2.5 -61
t-0.5 -77v-201q0 -109 37.5 -160t137.5 -51q42 0 77 12t45 23q9 10 25 45t16 101v231q0 44 -1.5 77t-3.5 61q-22 7 -43.5 12t-43.5 7q0 12 2 24t6 24q32 0 63 -1t64 -1q21 0 53 0.5t54 1.5q4 -11 5.5 -23t0.5 -25q-18 -7 -38.5 -12t-42.5 -7q-2 -28 -3 -61t-1 -77v-219z
M262 743q-18 0 -33.5 12.5t-15.5 30.5q0 22 16.5 43.5t41.5 21.5q17 0 32.5 -13t15.5 -32q0 -23 -16.5 -42.5t-40.5 -20.5zM445 743q-16 0 -32 12.5t-16 30.5q0 22 16.5 43.5t40.5 21.5q19 0 34 -13t15 -32q0 -23 -16.5 -42.5t-41.5 -20.5z" />
    <glyph glyph-name="Yacute" unicode="&#xdd;" horiz-adv-x="650" 
d="M478 47q1 -13 -1 -25t-6 -23q-12 1 -31 1.5t-39 0.5h-39.5h-33.5q-38 0 -73.5 -1t-72.5 -1q-5 12 -7 24t-2 24q27 2 53.5 7t53.5 12q3 14 4 29.5t1 31.5v109l-200 368q-20 7 -40 12t-40 7q0 12 2 24t6 24q32 0 64 -1t68 -1q28 0 66.5 0.5t60.5 1.5q4 -11 5.5 -23t0.5 -25
l-88 -19l150 -279l152 279l-94 19q0 12 2 24t6 24q32 0 61.5 -1t54.5 -1h23.5h30.5t31.5 0.5t26.5 1.5q4 -11 5.5 -23t0.5 -25q-16 -7 -35 -12t-39 -7l-193 -354v-101q0 -22 1 -43t3 -40q28 -2 53.5 -7t47.5 -12zM260 767l186 130q16 -9 28.5 -23.5t22.5 -33.5l-3 -20
l-213 -93q-8 7 -13 18t-8 22z" />
    <glyph glyph-name="Thorn" unicode="&#xde;" horiz-adv-x="563" 
d="M317 47q1 -13 -1 -25t-6 -23q-12 1 -31 1.5t-39 0.5h-39.5h-33.5q-33 0 -64 -1t-63 -1q-4 12 -6 24t-2 24q22 2 43.5 7t43.5 12q3 14 4 29.5t1 31.5v339q0 44 -1.5 77t-3.5 61q-22 7 -43.5 12t-43.5 7q0 12 2 24t6 24q32 0 63 -1t64 -1h33.5h39.5t39 0.5t31 1.5
q4 -11 6 -23t1 -25q-22 -7 -48 -12t-57 -6v-66q37 4 74 5.5t68 1.5q50 0 84.5 -15t56 -40t31.5 -58.5t10 -69.5q0 -38 -19 -79t-50.5 -74t-72 -54.5t-82.5 -21.5q-32 0 -56.5 1.5t-43.5 5.5v-75q31 -2 57 -7t48 -12zM327 481q-25 0 -55.5 -1.5t-59.5 -5.5v-269q19 -2 41 -3
t47 -1q37 0 68 11.5t35 15.5q17 16 29.5 44.5t12.5 63.5q0 24 -6 50t-20 47t-37 34.5t-55 13.5z" />
    <glyph glyph-name="germandbls" unicode="&#xdf;" horiz-adv-x="610" 
d="M592 139q0 -36 -14 -64t-38.5 -47t-57.5 -29t-71 -10q-47 0 -87.5 8t-64.5 19q0 37 4.5 73t13.5 73q12 5 23.5 5t23.5 -5q1 -25 3.5 -50t6.5 -50q13 -7 38.5 -10.5t48.5 -3.5q46 0 65.5 15t19.5 59q0 30 -22.5 52.5t-71.5 41.5q-53 21 -85 50.5t-32 84.5q0 32 20 63
t44.5 57.5t44.5 47t20 31.5q0 70 -34.5 110.5t-83.5 40.5q-25 0 -44.5 -7t-23.5 -12q-15 -17 -25.5 -65t-10.5 -113v-209q0 -82 1 -147.5t3 -140.5l-8 -8q-6 1 -16.5 1.5t-19.5 0.5q-31 0 -60.5 -1t-60.5 -1q-3 6 -5 19.5t-2 25.5q21 2 43 7t37 10q2 16 3 28.5t1 27.5v292
q-13 3 -34.5 7t-40.5 6q-3 10 -3 20t1 20q17 4 37.5 7t39.5 4v10q0 128 52.5 205.5t143.5 77.5q35 0 71 -10.5t65 -32.5t47.5 -56.5t18.5 -82.5q0 -31 -21.5 -58.5t-47 -53t-47 -51.5t-21.5 -52q0 -38 33.5 -56t73 -36.5t73 -48t33.5 -89.5z" />
    <glyph glyph-name="agrave" unicode="&#xe0;" horiz-adv-x="487" 
d="M476 37q-23 -20 -55.5 -35.5t-58.5 -15.5q-15 0 -28.5 22.5t-20.5 57.5q-42 -37 -86.5 -58.5t-78.5 -21.5q-49 0 -81 32t-32 87q0 42 25 73.5t63.5 54t87.5 37t97 23.5q0 57 -16.5 92.5t-67.5 35.5q-19 0 -39.5 -2t-39.5 -6q-4 -19 -5.5 -39.5t-1.5 -41.5q-14 -7 -29 -9
t-29 2q-11 23 -17.5 52t-6.5 55q36 22 81.5 36.5t96.5 14.5q22 0 49.5 -5.5t51.5 -22.5t40.5 -48t16.5 -82v-188q0 -20 1 -41.5t4 -37.5q16 2 33 7t31 9q7 -7 11 -16.5t4 -20.5zM124 130q0 -28 17.5 -48t57.5 -20q22 0 54 15.5t55 36.5v118q-59 -7 -107 -20t-57 -22
t-14.5 -26.5t-5.5 -33.5zM255 526l-165 170l5 19q20 10 40.5 15t42.5 6l117 -184q-6 -10 -16.5 -17t-23.5 -9z" />
    <glyph glyph-name="aacute" unicode="&#xe1;" horiz-adv-x="487" 
d="M476 37q-23 -20 -55.5 -35.5t-58.5 -15.5q-15 0 -28.5 22.5t-20.5 57.5q-42 -37 -86.5 -58.5t-78.5 -21.5q-49 0 -81 32t-32 87q0 42 25 73.5t63.5 54t87.5 37t97 23.5q0 57 -16.5 92.5t-67.5 35.5q-19 0 -39.5 -2t-39.5 -6q-4 -19 -5.5 -39.5t-1.5 -41.5q-14 -7 -29 -9
t-29 2q-11 23 -17.5 52t-6.5 55q36 22 81.5 36.5t96.5 14.5q22 0 49.5 -5.5t51.5 -22.5t40.5 -48t16.5 -82v-188q0 -20 1 -41.5t4 -37.5q16 2 33 7t31 9q7 -7 11 -16.5t4 -20.5zM124 130q0 -28 17.5 -48t57.5 -20q22 0 54 15.5t55 36.5v118q-59 -7 -107 -20t-57 -22
t-14.5 -26.5t-5.5 -33.5zM171 550l110 167q25 7 49.5 9.5t49.5 2.5l8 -23l-179 -184q-13 3 -22 10t-16 18z" />
    <glyph glyph-name="acircumflex" unicode="&#xe2;" horiz-adv-x="487" 
d="M476 37q-23 -20 -55.5 -35.5t-58.5 -15.5q-15 0 -28.5 22.5t-20.5 57.5q-42 -37 -86.5 -58.5t-78.5 -21.5q-49 0 -81 32t-32 87q0 42 25 73.5t63.5 54t87.5 37t97 23.5q0 57 -16.5 92.5t-67.5 35.5q-19 0 -39.5 -2t-39.5 -6q-4 -19 -5.5 -39.5t-1.5 -41.5q-14 -7 -29 -9
t-29 2q-11 23 -17.5 52t-6.5 55q36 22 81.5 36.5t96.5 14.5q22 0 49.5 -5.5t51.5 -22.5t40.5 -48t16.5 -82v-188q0 -20 1 -41.5t4 -37.5q16 2 33 7t31 9q7 -7 11 -16.5t4 -20.5zM124 130q0 -28 17.5 -48t57.5 -20q22 0 54 15.5t55 36.5v118q-59 -7 -107 -20t-57 -22
t-14.5 -26.5t-5.5 -33.5zM384 550q-4 -10 -13.5 -18.5t-22.5 -12.5l-118 123l-111 -123q-11 3 -19.5 10.5t-13.5 17.5l110 173q16 4 33 6t33 1z" />
    <glyph glyph-name="atilde" unicode="&#xe3;" horiz-adv-x="487" 
d="M476 37q-23 -20 -55.5 -35.5t-58.5 -15.5q-15 0 -28.5 22.5t-20.5 57.5q-42 -37 -86.5 -58.5t-78.5 -21.5q-49 0 -81 32t-32 87q0 42 25 73.5t63.5 54t87.5 37t97 23.5q0 57 -16.5 92.5t-67.5 35.5q-19 0 -39.5 -2t-39.5 -6q-4 -19 -5.5 -39.5t-1.5 -41.5q-14 -7 -29 -9
t-29 2q-11 23 -17.5 52t-6.5 55q36 22 81.5 36.5t96.5 14.5q22 0 49.5 -5.5t51.5 -22.5t40.5 -48t16.5 -82v-188q0 -20 1 -41.5t4 -37.5q16 2 33 7t31 9q7 -7 11 -16.5t4 -20.5zM124 130q0 -28 17.5 -48t57.5 -20q22 0 54 15.5t55 36.5v118q-59 -7 -107 -20t-57 -22
t-14.5 -26.5t-5.5 -33.5zM76 552q-13 4 -21.5 11t-12.5 17q24 45 60 74t67 29q21 0 38.5 -10.5t34 -23t33.5 -23t36 -10.5q12 0 33 15.5t40 40.5q12 -3 20.5 -9.5t14.5 -16.5q-24 -45 -61 -75t-69 -30q-20 0 -38 10.5t-34.5 23t-33 23t-34.5 10.5q-12 0 -33 -15.5t-40 -40.5
z" />
    <glyph glyph-name="adieresis" unicode="&#xe4;" horiz-adv-x="487" 
d="M476 37q-23 -20 -55.5 -35.5t-58.5 -15.5q-15 0 -28.5 22.5t-20.5 57.5q-42 -37 -86.5 -58.5t-78.5 -21.5q-49 0 -81 32t-32 87q0 42 25 73.5t63.5 54t87.5 37t97 23.5q0 57 -16.5 92.5t-67.5 35.5q-19 0 -39.5 -2t-39.5 -6q-4 -19 -5.5 -39.5t-1.5 -41.5q-14 -7 -29 -9
t-29 2q-11 23 -17.5 52t-6.5 55q36 22 81.5 36.5t96.5 14.5q22 0 49.5 -5.5t51.5 -22.5t40.5 -48t16.5 -82v-188q0 -20 1 -41.5t4 -37.5q16 2 33 7t31 9q7 -7 11 -16.5t4 -20.5zM124 130q0 -28 17.5 -48t57.5 -20q22 0 54 15.5t55 36.5v118q-59 -7 -107 -20t-57 -22
t-14.5 -26.5t-5.5 -33.5zM135 554q-19 0 -34.5 13t-15.5 32q0 23 16.5 45t42.5 22q18 0 34 -13.5t16 -33.5q0 -24 -17 -44t-42 -21zM316 554q-17 0 -33.5 13t-16.5 32q0 23 17 45t42 22q19 0 34.5 -13.5t15.5 -33.5q0 -24 -16.5 -44t-42.5 -21z" />
    <glyph glyph-name="aring" unicode="&#xe5;" horiz-adv-x="487" 
d="M476 37q-23 -20 -55.5 -35.5t-58.5 -15.5q-15 0 -28.5 22.5t-20.5 57.5q-42 -37 -86.5 -58.5t-78.5 -21.5q-49 0 -81 32t-32 87q0 42 25 73.5t63.5 54t87.5 37t97 23.5q0 57 -16.5 92.5t-67.5 35.5q-19 0 -39.5 -2t-39.5 -6q-4 -19 -5.5 -39.5t-1.5 -41.5q-14 -7 -29 -9
t-29 2q-11 23 -17.5 52t-6.5 55q36 22 81.5 36.5t96.5 14.5q22 0 49.5 -5.5t51.5 -22.5t40.5 -48t16.5 -82v-188q0 -20 1 -41.5t4 -37.5q16 2 33 7t31 9q7 -7 11 -16.5t4 -20.5zM124 130q0 -28 17.5 -48t57.5 -20q22 0 54 15.5t55 36.5v118q-59 -7 -107 -20t-57 -22
t-14.5 -26.5t-5.5 -33.5zM225 536q-46 0 -73.5 25t-27.5 74q0 37 34 69.5t77 32.5q46 0 73.5 -24.5t27.5 -74.5q0 -36 -34 -69t-77 -33zM231 589q10 0 19.5 3.5t13.5 6.5q5 4 9 13t4 22q0 19 -14.5 34.5t-33.5 15.5q-10 0 -19.5 -3t-13.5 -6q-5 -4 -9 -13t-4 -22
q0 -19 14.5 -35t33.5 -16z" />
    <glyph glyph-name="ae" unicode="&#xe6;" horiz-adv-x="748" 
d="M704 58q-34 -23 -89 -47.5t-104 -24.5q-66 0 -109.5 27.5t-65.5 75.5q-38 -41 -91.5 -72t-96.5 -31q-49 0 -81 32t-32 87q0 45 27.5 77.5t68.5 54.5t89 35.5t88 19.5q-1 56 -17.5 92.5t-66.5 36.5q-19 0 -39.5 -2t-39.5 -6q-4 -19 -5.5 -39.5t-1.5 -41.5q-14 -7 -29 -9
t-29 2q-11 23 -17.5 52t-6.5 55q36 22 81.5 36.5t96.5 14.5q33 0 72.5 -14.5t60.5 -67.5q29 37 69 60t88 23q51 0 85.5 -16t55 -41t29 -57.5t8.5 -64.5q0 -17 -1.5 -34.5t-3.5 -27.5l-8 -8q-31 1 -78 1.5t-103 0.5h-116q2 -30 9.5 -62t23.5 -58t41 -42.5t62 -16.5
q35 0 73.5 9t85.5 27q9 -7 12.5 -16t4.5 -20zM510 419q-53 0 -81.5 -36.5t-34.5 -93.5h98q40 0 71.5 1.5t50.5 2.5q0 48 -19 87t-85 39zM124 130q0 -26 17.5 -47t57.5 -21q29 0 63.5 20t59.5 45q-7 23 -10.5 49.5t-3.5 54.5q-60 -5 -107.5 -18.5t-56.5 -22.5t-14.5 -26.5
t-5.5 -33.5z" />
    <glyph glyph-name="ccedilla" unicode="&#xe7;" horiz-adv-x="454" 
d="M427 54q-34 -25 -86.5 -46.5t-96.5 -21.5q-54 0 -92.5 19t-63.5 51t-36.5 76.5t-11.5 94.5q0 45 15.5 90.5t44 81.5t69.5 59t91 23q51 0 91 -8t68 -21q0 -35 -5.5 -68t-15.5 -62q-17 -5 -31.5 -4t-27.5 8q-1 21 -2.5 41.5t-5.5 41.5q-13 2 -33 3.5t-42 1.5q-19 0 -45 -5
t-36 -14q-21 -22 -35.5 -59t-14.5 -81q0 -31 6.5 -66t22 -64t42 -48t65.5 -19q33 0 68 8t81 26q8 -7 12 -16.5t5 -21.5zM343 -120q0 -22 -13.5 -44t-36.5 -40.5t-54 -32t-65 -19.5q-6 5 -8.5 12t-2.5 17q13 6 30 15t32 20.5t25.5 26.5t10.5 31q0 19 -18.5 32.5t-55.5 11.5
l-8 8l51 102h42l-28 -63q49 -2 74 -23t25 -54z" />
    <glyph glyph-name="egrave" unicode="&#xe8;" horiz-adv-x="480" 
d="M436 58q-34 -23 -89 -47.5t-104 -24.5q-53 0 -92 19t-63.5 51t-36 76.5t-11.5 95.5q0 46 16 92t44.5 82.5t68.5 59t87 22.5q51 0 85.5 -16t55 -41t29 -57.5t8.5 -64.5q0 -17 -1.5 -34.5t-3.5 -27.5l-8 -8q-31 1 -78 1.5t-103 0.5h-116q2 -30 9.5 -62t23.5 -58t41 -42.5
t62 -16.5q33 0 73 9t86 27q9 -7 12.5 -16t4.5 -20zM174 400q-17 -18 -30 -47t-18 -64h98q40 0 71.5 1.5t50.5 2.5q0 48 -19 87t-85 39q-16 0 -37.5 -5t-30.5 -14zM276 526l-165 170l5 19q20 10 40.5 15t42.5 6l117 -184q-6 -10 -16.5 -17t-23.5 -9z" />
    <glyph glyph-name="eacute" unicode="&#xe9;" horiz-adv-x="480" 
d="M436 58q-34 -23 -89 -47.5t-104 -24.5q-53 0 -92 19t-63.5 51t-36 76.5t-11.5 95.5q0 46 16 92t44.5 82.5t68.5 59t87 22.5q51 0 85.5 -16t55 -41t29 -57.5t8.5 -64.5q0 -17 -1.5 -34.5t-3.5 -27.5l-8 -8q-31 1 -78 1.5t-103 0.5h-116q2 -30 9.5 -62t23.5 -58t41 -42.5
t62 -16.5q33 0 73 9t86 27q9 -7 12.5 -16t4.5 -20zM174 400q-17 -18 -30 -47t-18 -64h98q40 0 71.5 1.5t50.5 2.5q0 48 -19 87t-85 39q-16 0 -37.5 -5t-30.5 -14zM192 550l110 167q25 7 49.5 9.5t49.5 2.5l8 -23l-179 -184q-13 3 -22 10t-16 18z" />
    <glyph glyph-name="ecircumflex" unicode="&#xea;" horiz-adv-x="480" 
d="M436 58q-34 -23 -89 -47.5t-104 -24.5q-53 0 -92 19t-63.5 51t-36 76.5t-11.5 95.5q0 46 16 92t44.5 82.5t68.5 59t87 22.5q51 0 85.5 -16t55 -41t29 -57.5t8.5 -64.5q0 -17 -1.5 -34.5t-3.5 -27.5l-8 -8q-31 1 -78 1.5t-103 0.5h-116q2 -30 9.5 -62t23.5 -58t41 -42.5
t62 -16.5q33 0 73 9t86 27q9 -7 12.5 -16t4.5 -20zM174 400q-17 -18 -30 -47t-18 -64h98q40 0 71.5 1.5t50.5 2.5q0 48 -19 87t-85 39q-16 0 -37.5 -5t-30.5 -14zM405 550q-4 -10 -13.5 -18.5t-22.5 -12.5l-118 123l-111 -123q-11 3 -19.5 10.5t-13.5 17.5l110 173
q16 4 33 6t33 1z" />
    <glyph glyph-name="edieresis" unicode="&#xeb;" horiz-adv-x="480" 
d="M436 58q-34 -23 -89 -47.5t-104 -24.5q-53 0 -92 19t-63.5 51t-36 76.5t-11.5 95.5q0 46 16 92t44.5 82.5t68.5 59t87 22.5q51 0 85.5 -16t55 -41t29 -57.5t8.5 -64.5q0 -17 -1.5 -34.5t-3.5 -27.5l-8 -8q-31 1 -78 1.5t-103 0.5h-116q2 -30 9.5 -62t23.5 -58t41 -42.5
t62 -16.5q33 0 73 9t86 27q9 -7 12.5 -16t4.5 -20zM174 400q-17 -18 -30 -47t-18 -64h98q40 0 71.5 1.5t50.5 2.5q0 48 -19 87t-85 39q-16 0 -37.5 -5t-30.5 -14zM156 554q-19 0 -34.5 13t-15.5 32q0 23 16.5 45t42.5 22q18 0 34 -13.5t16 -33.5q0 -24 -17 -44t-42 -21z
M337 554q-17 0 -33.5 13t-16.5 32q0 23 17 45t42 22q19 0 34.5 -13.5t15.5 -33.5q0 -24 -16.5 -44t-42.5 -21z" />
    <glyph glyph-name="igrave" unicode="&#xec;" horiz-adv-x="305" 
d="M159 1q-31 0 -62 -1t-59 -1q-3 6 -5 19.5t-2 25.5q21 2 43 7.5t37 10.5q2 14 3 27t1 28v276q-19 5 -39.5 9.5t-39.5 6.5q-3 10 -4 19.5t0 19.5q30 11 76 21t87 14l8 -8q-2 -75 -3 -140.5t-1 -147.5v-50q0 -20 1 -38.5t2 -36.5q20 -2 41 -7t34 -11q0 -11 -1.5 -24.5
t-4.5 -20.5q-10 0 -25.5 0.5t-31.5 1t-31 0.5h-24zM171 526l-165 170l5 19q20 10 40.5 15t42.5 6l117 -184q-6 -10 -16.5 -17t-23.5 -9z" />
    <glyph glyph-name="iacute" unicode="&#xed;" horiz-adv-x="305" 
d="M159 1q-31 0 -62 -1t-59 -1q-3 6 -5 19.5t-2 25.5q21 2 43 7.5t37 10.5q2 14 3 27t1 28v276q-19 5 -39.5 9.5t-39.5 6.5q-3 10 -4 19.5t0 19.5q30 11 76 21t87 14l8 -8q-2 -75 -3 -140.5t-1 -147.5v-50q0 -20 1 -38.5t2 -36.5q20 -2 41 -7t34 -11q0 -11 -1.5 -24.5
t-4.5 -20.5q-10 0 -25.5 0.5t-31.5 1t-31 0.5h-24zM81 541l95 176q24 9 48.5 13.5t49.5 6.5l10 -22l-163 -199q-13 2 -23 8.5t-17 16.5z" />
    <glyph glyph-name="icircumflex" unicode="&#xee;" horiz-adv-x="305" 
d="M159 1q-31 0 -62 -1t-59 -1q-3 6 -5 19.5t-2 25.5q21 2 43 7.5t37 10.5q2 14 3 27t1 28v276q-19 5 -39.5 9.5t-39.5 6.5q-3 10 -4 19.5t0 19.5q30 11 76 21t87 14l8 -8q-2 -75 -3 -140.5t-1 -147.5v-50q0 -20 1 -38.5t2 -36.5q20 -2 41 -7t34 -11q0 -11 -1.5 -24.5
t-4.5 -20.5q-10 0 -25.5 0.5t-31.5 1t-31 0.5h-24zM253 522l-107 118l-99 -119q-13 3 -22 9t-13 17l100 173q16 4 33 6t33 1l112 -177q-6 -12 -15.5 -19t-21.5 -9z" />
    <glyph glyph-name="idieresis" unicode="&#xef;" horiz-adv-x="305" 
d="M159 1q-31 0 -62 -1t-59 -1q-3 6 -5 19.5t-2 25.5q21 2 43 7.5t37 10.5q2 14 3 27t1 28v276q-19 5 -39.5 9.5t-39.5 6.5q-3 10 -4 19.5t0 19.5q30 11 76 21t87 14l8 -8q-2 -75 -3 -140.5t-1 -147.5v-50q0 -20 1 -38.5t2 -36.5q20 -2 41 -7t34 -11q0 -11 -1.5 -24.5
t-4.5 -20.5q-10 0 -25.5 0.5t-31.5 1t-31 0.5h-24zM51 554q-19 0 -34.5 13t-15.5 32q0 23 16.5 45t42.5 22q18 0 34 -13.5t16 -33.5q0 -24 -17 -44t-42 -21zM232 554q-17 0 -33.5 13t-16.5 32q0 23 17 45t42 22q19 0 34.5 -13.5t15.5 -33.5q0 -24 -16.5 -44t-42.5 -21z" />
    <glyph glyph-name="eth" unicode="&#xf0;" horiz-adv-x="523" 
d="M475 300q0 -66 -15.5 -123.5t-44.5 -99.5t-72 -66.5t-97 -24.5q-51 0 -90 19t-64.5 51t-38.5 74.5t-13 89.5q0 50 15.5 97.5t43.5 83.5t67 57.5t85 21.5q29 0 62.5 -13.5t60.5 -42.5q-10 51 -33.5 96.5t-63.5 90.5l-105 -69q-12 10 -20 24.5t-12 30.5l96 56
q-19 17 -42 35.5t-48 37.5q4 13 11 23t18 16q34 -18 63.5 -37.5t54.5 -39.5l108 72q13 -13 20.5 -26.5t11.5 -27.5l-95 -57q75 -75 106 -162t31 -187zM126 255q0 -32 7 -67.5t23 -65.5t42 -49.5t63 -19.5q21 0 42.5 6t28.5 13q33 32 44 81t11 118q0 33 -13 60t-33 45.5
t-45 29t-49 10.5q-16 0 -38.5 -5t-31.5 -14q-22 -22 -36.5 -59.5t-14.5 -82.5z" />
    <glyph glyph-name="ntilde" unicode="&#xf1;" horiz-adv-x="593" 
d="M578 44q0 -11 -1.5 -24.5t-5.5 -20.5q-10 0 -25 0.5t-31.5 1t-31 0.5h-23.5q-31 0 -62 -1t-60 -1q-2 6 -4 19.5t-2 25.5q20 2 42.5 7t37.5 10q2 16 3 28.5t1 27.5v168q0 56 -16 93t-75 37q-31 0 -62.5 -12t-63.5 -34v-232q0 -20 1 -38.5t2 -36.5q20 -2 41 -7t34 -11
q0 -11 -1.5 -24.5t-4.5 -20.5q-10 0 -25.5 0.5t-31.5 1t-31 0.5h-24q-31 0 -62 -1t-59 -1q-3 6 -5 19.5t-2 25.5q21 2 43 7t37 10q2 16 3 28.5t1 27.5v273q-19 6 -39.5 10t-39.5 6q-3 10 -4 20t0 19q28 11 66 21.5t76 14.5l8 -7q2 -9 5.5 -25t6.5 -32q43 31 84 49t84 18
q66 0 102 -38.5t36 -121.5v-187q0 -20 1 -38.5t2 -36.5q19 -2 40.5 -7t34.5 -11zM144 552q-13 4 -21.5 11t-12.5 17q24 45 60 74t67 29q21 0 38.5 -10.5t34 -23t33.5 -23t36 -10.5q12 0 33 15.5t40 40.5q12 -3 20.5 -9.5t14.5 -16.5q-24 -45 -61 -75t-69 -30q-20 0 -38 10.5
t-34.5 23t-33 23t-34.5 10.5q-12 0 -33 -15.5t-40 -40.5z" />
    <glyph glyph-name="ograve" unicode="&#xf2;" horiz-adv-x="513" 
d="M473 243q0 -45 -15 -91t-43.5 -83t-70 -60t-93.5 -23q-53 0 -93 18t-66 50t-39 76.5t-13 96.5q0 45 15 91t43.5 83t70 60t93.5 23q54 0 94 -18.5t66 -50.5t38.5 -76.5t12.5 -95.5zM125 255q0 -32 7.5 -67.5t24.5 -65.5t44.5 -49.5t67.5 -19.5q16 0 38 5t31 14
q21 22 35.5 60t14.5 83q0 32 -7.5 67.5t-24.5 65.5t-44.5 49.5t-67.5 19.5q-16 0 -38 -5t-31 -14q-21 -22 -35.5 -60t-14.5 -83zM280 526l-165 170l5 19q20 10 40.5 15t42.5 6l117 -184q-6 -10 -16.5 -17t-23.5 -9z" />
    <glyph glyph-name="oacute" unicode="&#xf3;" horiz-adv-x="513" 
d="M473 243q0 -45 -15 -91t-43.5 -83t-70 -60t-93.5 -23q-53 0 -93 18t-66 50t-39 76.5t-13 96.5q0 45 15 91t43.5 83t70 60t93.5 23q54 0 94 -18.5t66 -50.5t38.5 -76.5t12.5 -95.5zM125 255q0 -32 7.5 -67.5t24.5 -65.5t44.5 -49.5t67.5 -19.5q16 0 38 5t31 14
q21 22 35.5 60t14.5 83q0 32 -7.5 67.5t-24.5 65.5t-44.5 49.5t-67.5 19.5q-16 0 -38 -5t-31 -14q-21 -22 -35.5 -60t-14.5 -83zM196 550l110 167q25 7 49.5 9.5t49.5 2.5l8 -23l-179 -184q-13 3 -22 10t-16 18z" />
    <glyph glyph-name="ocircumflex" unicode="&#xf4;" horiz-adv-x="513" 
d="M473 243q0 -45 -15 -91t-43.5 -83t-70 -60t-93.5 -23q-53 0 -93 18t-66 50t-39 76.5t-13 96.5q0 45 15 91t43.5 83t70 60t93.5 23q54 0 94 -18.5t66 -50.5t38.5 -76.5t12.5 -95.5zM125 255q0 -32 7.5 -67.5t24.5 -65.5t44.5 -49.5t67.5 -19.5q16 0 38 5t31 14
q21 22 35.5 60t14.5 83q0 32 -7.5 67.5t-24.5 65.5t-44.5 49.5t-67.5 19.5q-16 0 -38 -5t-31 -14q-21 -22 -35.5 -60t-14.5 -83zM409 550q-4 -10 -13.5 -18.5t-22.5 -12.5l-118 123l-111 -123q-11 3 -19.5 10.5t-13.5 17.5l110 173q16 4 33 6t33 1z" />
    <glyph glyph-name="otilde" unicode="&#xf5;" horiz-adv-x="513" 
d="M473 243q0 -45 -15 -91t-43.5 -83t-70 -60t-93.5 -23q-53 0 -93 18t-66 50t-39 76.5t-13 96.5q0 45 15 91t43.5 83t70 60t93.5 23q54 0 94 -18.5t66 -50.5t38.5 -76.5t12.5 -95.5zM125 255q0 -32 7.5 -67.5t24.5 -65.5t44.5 -49.5t67.5 -19.5q16 0 38 5t31 14
q21 22 35.5 60t14.5 83q0 32 -7.5 67.5t-24.5 65.5t-44.5 49.5t-67.5 19.5q-16 0 -38 -5t-31 -14q-21 -22 -35.5 -60t-14.5 -83zM101 552q-13 4 -21.5 11t-12.5 17q24 45 60 74t67 29q21 0 38.5 -10.5t34 -23t33.5 -23t36 -10.5q12 0 33 15.5t40 40.5q12 -3 20.5 -9.5
t14.5 -16.5q-24 -45 -61 -75t-69 -30q-20 0 -38 10.5t-34.5 23t-33 23t-34.5 10.5q-12 0 -33 -15.5t-40 -40.5z" />
    <glyph glyph-name="odieresis" unicode="&#xf6;" horiz-adv-x="513" 
d="M473 243q0 -45 -15 -91t-43.5 -83t-70 -60t-93.5 -23q-53 0 -93 18t-66 50t-39 76.5t-13 96.5q0 45 15 91t43.5 83t70 60t93.5 23q54 0 94 -18.5t66 -50.5t38.5 -76.5t12.5 -95.5zM125 255q0 -32 7.5 -67.5t24.5 -65.5t44.5 -49.5t67.5 -19.5q16 0 38 5t31 14
q21 22 35.5 60t14.5 83q0 32 -7.5 67.5t-24.5 65.5t-44.5 49.5t-67.5 19.5q-16 0 -38 -5t-31 -14q-21 -22 -35.5 -60t-14.5 -83zM160 554q-19 0 -34.5 13t-15.5 32q0 23 16.5 45t42.5 22q18 0 34 -13.5t16 -33.5q0 -24 -17 -44t-42 -21zM341 554q-17 0 -33.5 13t-16.5 32
q0 23 17 45t42 22q19 0 34.5 -13.5t15.5 -33.5q0 -24 -16.5 -44t-42.5 -21z" />
    <glyph glyph-name="divide" unicode="&#xf7;" 
d="M224 413q0 19 15.5 33t37.5 14q21 0 36 -14t15 -33q0 -22 -15 -37t-36 -15q-22 0 -37.5 15t-15.5 37zM482 225h-412q-4 16 -3.5 32.5t3.5 33.5h412q4 -17 4 -33.5t-4 -32.5zM224 103q0 20 15.5 34t37.5 14q21 0 36 -14t15 -34q0 -21 -15 -36t-36 -15q-22 0 -37.5 15
t-15.5 36z" />
    <glyph glyph-name="oslash" unicode="&#xf8;" horiz-adv-x="513" 
d="M251 -14q-23 0 -44 3.5t-39 10.5l-35 -72q-15 2 -27 7.5t-22 16.5l36 74q-40 31 -60 83.5t-20 117.5q0 45 15 91t43.5 83t70 60t93.5 23q22 0 41 -3t36 -9l35 72q14 -2 26.5 -7t21.5 -15l-36 -74q44 -31 65.5 -85t21.5 -120q0 -45 -15 -91t-43.5 -83t-70 -60t-93.5 -23z
M125 255q0 -35 7.5 -75t28.5 -71l144 295q-13 6 -28 9.5t-33 3.5q-61 0 -90 -46.5t-29 -115.5zM388 215q0 37 -8.5 79.5t-32.5 73.5l-145 -298q13 -8 30 -12.5t37 -4.5q61 0 90 46.5t29 115.5z" />
    <glyph glyph-name="ugrave" unicode="&#xf9;" horiz-adv-x="582" 
d="M560 37q-23 -20 -56 -35.5t-59 -15.5q-18 0 -31.5 30.5t-18.5 65.5q-35 -39 -74.5 -67.5t-88.5 -28.5q-66 0 -101.5 40t-35.5 123v256q-20 7 -38.5 11.5t-39.5 8.5q0 9 1.5 22.5t4.5 23.5q30 -1 57 -1.5t59 -0.5h34l8 -8q-1 -36 -1.5 -75t-0.5 -75.5v-68.5v-54
q0 -59 17.5 -93.5t60.5 -34.5q16 0 35 8.5t38 20.5t35.5 25.5t26.5 23.5v267q-20 7 -38 11.5t-40 8.5q0 9 1.5 22.5t4.5 23.5q30 -1 57 -1.5t58 -0.5h36l8 -8q-2 -75 -2.5 -140.5t-0.5 -147.5v-36q0 -20 1 -41.5t4 -37.5q16 2 33 7t31 9q7 -7 11 -16.5t4 -20.5zM295 526
l-165 170l5 19q20 10 40.5 15t42.5 6l117 -184q-6 -10 -16.5 -17t-23.5 -9z" />
    <glyph glyph-name="uacute" unicode="&#xfa;" horiz-adv-x="582" 
d="M560 37q-23 -20 -56 -35.5t-59 -15.5q-18 0 -31.5 30.5t-18.5 65.5q-35 -39 -74.5 -67.5t-88.5 -28.5q-66 0 -101.5 40t-35.5 123v256q-20 7 -38.5 11.5t-39.5 8.5q0 9 1.5 22.5t4.5 23.5q30 -1 57 -1.5t59 -0.5h34l8 -8q-1 -36 -1.5 -75t-0.5 -75.5v-68.5v-54
q0 -59 17.5 -93.5t60.5 -34.5q16 0 35 8.5t38 20.5t35.5 25.5t26.5 23.5v267q-20 7 -38 11.5t-40 8.5q0 9 1.5 22.5t4.5 23.5q30 -1 57 -1.5t58 -0.5h36l8 -8q-2 -75 -2.5 -140.5t-0.5 -147.5v-36q0 -20 1 -41.5t4 -37.5q16 2 33 7t31 9q7 -7 11 -16.5t4 -20.5zM211 550
l110 167q25 7 49.5 9.5t49.5 2.5l8 -23l-179 -184q-13 3 -22 10t-16 18z" />
    <glyph glyph-name="ucircumflex" unicode="&#xfb;" horiz-adv-x="582" 
d="M560 37q-23 -20 -56 -35.5t-59 -15.5q-18 0 -31.5 30.5t-18.5 65.5q-35 -39 -74.5 -67.5t-88.5 -28.5q-66 0 -101.5 40t-35.5 123v256q-20 7 -38.5 11.5t-39.5 8.5q0 9 1.5 22.5t4.5 23.5q30 -1 57 -1.5t59 -0.5h34l8 -8q-1 -36 -1.5 -75t-0.5 -75.5v-68.5v-54
q0 -59 17.5 -93.5t60.5 -34.5q16 0 35 8.5t38 20.5t35.5 25.5t26.5 23.5v267q-20 7 -38 11.5t-40 8.5q0 9 1.5 22.5t4.5 23.5q30 -1 57 -1.5t58 -0.5h36l8 -8q-2 -75 -2.5 -140.5t-0.5 -147.5v-36q0 -20 1 -41.5t4 -37.5q16 2 33 7t31 9q7 -7 11 -16.5t4 -20.5zM424 550
q-4 -10 -13.5 -18.5t-22.5 -12.5l-118 123l-111 -123q-11 3 -19.5 10.5t-13.5 17.5l110 173q16 4 33 6t33 1z" />
    <glyph glyph-name="udieresis" unicode="&#xfc;" horiz-adv-x="582" 
d="M560 37q-23 -20 -56 -35.5t-59 -15.5q-18 0 -31.5 30.5t-18.5 65.5q-35 -39 -74.5 -67.5t-88.5 -28.5q-66 0 -101.5 40t-35.5 123v256q-20 7 -38.5 11.5t-39.5 8.5q0 9 1.5 22.5t4.5 23.5q30 -1 57 -1.5t59 -0.5h34l8 -8q-1 -36 -1.5 -75t-0.5 -75.5v-68.5v-54
q0 -59 17.5 -93.5t60.5 -34.5q16 0 35 8.5t38 20.5t35.5 25.5t26.5 23.5v267q-20 7 -38 11.5t-40 8.5q0 9 1.5 22.5t4.5 23.5q30 -1 57 -1.5t58 -0.5h36l8 -8q-2 -75 -2.5 -140.5t-0.5 -147.5v-36q0 -20 1 -41.5t4 -37.5q16 2 33 7t31 9q7 -7 11 -16.5t4 -20.5zM175 554
q-19 0 -34.5 13t-15.5 32q0 23 16.5 45t42.5 22q18 0 34 -13.5t16 -33.5q0 -24 -17 -44t-42 -21zM356 554q-17 0 -33.5 13t-16.5 32q0 23 17 45t42 22q19 0 34.5 -13.5t15.5 -33.5q0 -24 -16.5 -44t-42.5 -21z" />
    <glyph glyph-name="yacute" unicode="&#xfd;" horiz-adv-x="535" 
d="M314 8q-21 -57 -43.5 -105.5t-46 -83.5t-49.5 -55t-54 -20q-32 0 -58 8.5t-39 17.5q0 14 4.5 25t11.5 19h13q71 0 112 43t71 109l15 34h-30l-149 408q-10 6 -26 11t-29 7q0 12 2 24.5t5 20.5q19 0 44 -1t53 -1q26 0 56.5 0.5t58.5 1.5q4 -10 5 -21.5t0 -23.5l-77 -18
l100 -275l4 -73h1l125 350l-77 16q0 12 2 24.5t5 20.5q23 0 52 -1t61 -1q17 0 37 0.5t40 1.5q4 -10 5 -21.5t0 -23.5q-13 -7 -27.5 -11.5t-29.5 -6.5zM215 550l110 167q25 7 49.5 9.5t49.5 2.5l8 -23l-179 -184q-13 3 -22 10t-16 18z" />
    <glyph glyph-name="thorn" unicode="&#xfe;" horiz-adv-x="542" 
d="M288 -206q0 -11 -1.5 -24t-4.5 -20q-41 1 -84 1.5t-71 0.5q-31 0 -60.5 -1t-60.5 -1q-3 6 -5 19t-2 25q21 2 43 7t37 10q2 16 3 28.5t1 27.5v809q-19 5 -39.5 9.5t-39.5 6.5q-3 10 -4 19.5t0 19.5q30 11 76 21t87 14l8 -8q-2 -75 -3 -140.5t-1 -147.5v-47q25 22 65 40
t89 18q80 0 130.5 -64.5t50.5 -171.5q0 -45 -16 -91t-43.5 -82.5t-66 -59.5t-83.5 -23q-27 0 -60.5 12.5t-65.5 34.5v-149q0 -20 1 -38.5t2 -36.5q28 -1 61 -6t57 -12zM293 412q-26 0 -61.5 -12t-64.5 -30v-250q24 -25 60.5 -44.5t76.5 -19.5q19 0 38.5 6.5t24.5 12.5
q22 25 36 62t14 80q0 37 -8 72t-23.5 62.5t-38.5 44t-54 16.5z" />
    <glyph glyph-name="ydieresis" unicode="&#xff;" horiz-adv-x="535" 
d="M314 8q-21 -57 -43.5 -105.5t-46 -83.5t-49.5 -55t-54 -20q-32 0 -58 8.5t-39 17.5q0 14 4.5 25t11.5 19h13q71 0 112 43t71 109l15 34h-30l-149 408q-10 6 -26 11t-29 7q0 12 2 24.5t5 20.5q19 0 44 -1t53 -1q26 0 56.5 0.5t58.5 1.5q4 -10 5 -21.5t0 -23.5l-77 -18
l100 -275l4 -73h1l125 350l-77 16q0 12 2 24.5t5 20.5q23 0 52 -1t61 -1q17 0 37 0.5t40 1.5q4 -10 5 -21.5t0 -23.5q-13 -7 -27.5 -11.5t-29.5 -6.5zM179 554q-19 0 -34.5 13t-15.5 32q0 23 16.5 45t42.5 22q18 0 34 -13.5t16 -33.5q0 -24 -17 -44t-42 -21zM360 554
q-17 0 -33.5 13t-16.5 32q0 23 17 45t42 22q19 0 34.5 -13.5t15.5 -33.5q0 -24 -16.5 -44t-42.5 -21z" />
    <glyph glyph-name="Amacron" unicode="&#x100;" horiz-adv-x="677" 
d="M667 47q1 -13 -0.5 -25t-5.5 -23q-11 1 -27 1.5t-33.5 0.5h-34.5h-29q-33 0 -64 -1t-63 -1q-4 12 -6 24t-2 24l94 19l-55 155q-40 2 -81.5 3t-76.5 1h-73l-53 -159l88 -19q1 -13 -0.5 -25t-5.5 -23q-11 1 -26.5 1.5t-31 0.5h-30h-23.5q-25 0 -54 -1t-61 -1q-4 12 -6 24
t-2 24q20 2 40 7t40 12l205 595q19 7 41 10.5t47 3.5l215 -609q20 -2 39 -7t35 -12zM332 589l-101 -303h188l-81 230l-5 73h-1zM200 809h283q6 -16 6 -32.5t-6 -32.5h-283q-5 16 -4.5 32.5t4.5 32.5z" />
    <glyph glyph-name="amacron" unicode="&#x101;" horiz-adv-x="487" 
d="M476 37q-23 -20 -55.5 -35.5t-58.5 -15.5q-15 0 -28.5 22.5t-20.5 57.5q-42 -37 -86.5 -58.5t-78.5 -21.5q-49 0 -81 32t-32 87q0 42 25 73.5t63.5 54t87.5 37t97 23.5q0 57 -16.5 92.5t-67.5 35.5q-19 0 -39.5 -2t-39.5 -6q-4 -19 -5.5 -39.5t-1.5 -41.5q-14 -7 -29 -9
t-29 2q-11 23 -17.5 52t-6.5 55q36 22 81.5 36.5t96.5 14.5q22 0 49.5 -5.5t51.5 -22.5t40.5 -48t16.5 -82v-188q0 -20 1 -41.5t4 -37.5q16 2 33 7t31 9q7 -7 11 -16.5t4 -20.5zM124 130q0 -28 17.5 -48t57.5 -20q22 0 54 15.5t55 36.5v118q-59 -7 -107 -20t-57 -22
t-14.5 -26.5t-5.5 -33.5zM91 632h275q6 -16 6 -33.5t-6 -33.5h-275q-5 16 -4.5 33.5t4.5 33.5z" />
    <glyph glyph-name="Abreve" unicode="&#x102;" horiz-adv-x="677" 
d="M667 47q1 -13 -0.5 -25t-5.5 -23q-11 1 -27 1.5t-33.5 0.5h-34.5h-29q-33 0 -64 -1t-63 -1q-4 12 -6 24t-2 24l94 19l-55 155q-40 2 -81.5 3t-76.5 1h-73l-53 -159l88 -19q1 -13 -0.5 -25t-5.5 -23q-11 1 -26.5 1.5t-31 0.5h-30h-23.5q-25 0 -54 -1t-61 -1q-4 12 -6 24
t-2 24q20 2 40 7t40 12l205 595q19 7 41 10.5t47 3.5l215 -609q20 -2 39 -7t35 -12zM332 589l-101 -303h188l-81 230l-5 73h-1zM335 735q-32 0 -57.5 10.5t-44 25.5t-31 32.5t-17.5 32.5q4 10 12 17t21 11q21 -22 54 -40t73 -18q43 0 73 18.5t50 39.5q13 -4 21 -11t10 -17
q-19 -37 -60 -69t-104 -32z" />
    <glyph glyph-name="abreve" unicode="&#x103;" horiz-adv-x="487" 
d="M476 37q-23 -20 -55.5 -35.5t-58.5 -15.5q-15 0 -28.5 22.5t-20.5 57.5q-42 -37 -86.5 -58.5t-78.5 -21.5q-49 0 -81 32t-32 87q0 42 25 73.5t63.5 54t87.5 37t97 23.5q0 57 -16.5 92.5t-67.5 35.5q-19 0 -39.5 -2t-39.5 -6q-4 -19 -5.5 -39.5t-1.5 -41.5q-14 -7 -29 -9
t-29 2q-11 23 -17.5 52t-6.5 55q36 22 81.5 36.5t96.5 14.5q22 0 49.5 -5.5t51.5 -22.5t40.5 -48t16.5 -82v-188q0 -20 1 -41.5t4 -37.5q16 2 33 7t31 9q7 -7 11 -16.5t4 -20.5zM124 130q0 -28 17.5 -48t57.5 -20q22 0 54 15.5t55 36.5v118q-59 -7 -107 -20t-57 -22
t-14.5 -26.5t-5.5 -33.5zM223 544q-32 0 -57.5 12t-44.5 30t-31.5 38.5t-17.5 36.5q4 10 12 17t21 11q21 -27 54 -49t73 -22q43 0 73 22.5t50 48.5q13 -4 21 -11t10 -17q-5 -16 -19.5 -36t-35.5 -38t-48.5 -30.5t-59.5 -12.5z" />
    <glyph glyph-name="Aogonek" unicode="&#x104;" horiz-adv-x="677" 
d="M628 -182q-29 -17 -55.5 -25t-53.5 -8q-36 0 -60 21t-24 49q0 37 32.5 75t113.5 69v2h-23.5h-20.5q-33 0 -64 -1t-63 -1q-4 12 -6 24t-2 24l94 19l-55 155q-40 2 -81.5 3t-76.5 1h-73l-53 -159l88 -19q1 -13 -0.5 -25t-5.5 -23q-11 1 -26.5 1.5t-31 0.5h-30h-23.5
q-25 0 -54 -1t-61 -1q-4 12 -6 24t-2 24q20 2 40 7t40 12l205 595q19 7 41 10.5t47 3.5l215 -609q20 -2 39 -7t35 -12q1 -13 -0.5 -25t-5.5 -23q-5 0 -12 0.5t-15 0.5q-57 -26 -87 -58t-30 -55q0 -18 12 -28t28 -10q14 0 27 2.5t31 7.5q6 -8 9.5 -18t3.5 -23zM332 589
l-101 -303h188l-81 230l-5 73h-1z" />
    <glyph glyph-name="aogonek" unicode="&#x105;" horiz-adv-x="487" 
d="M451 -181q-29 -17 -55.5 -25t-53.5 -8q-36 0 -60 24t-24 58t22 63.5t68 59.5q-10 9 -20 29t-15 46q-42 -37 -86.5 -58.5t-78.5 -21.5q-49 0 -81 32t-32 87q0 42 25 73.5t63.5 54t87.5 37t97 23.5q0 57 -16.5 92.5t-67.5 35.5q-19 0 -39.5 -2t-39.5 -6q-4 -19 -5.5 -39.5
t-1.5 -41.5q-14 -7 -29 -9t-29 2q-11 23 -17.5 52t-6.5 55q36 22 81.5 36.5t96.5 14.5q22 0 49.5 -5.5t51.5 -22.5t40.5 -48t16.5 -82v-188q0 -20 1 -41.5t4 -37.5q16 2 33 7t31 9q7 -7 11 -16.5t4 -20.5q-71 -40 -103.5 -75.5t-32.5 -63.5q0 -22 11.5 -35t30.5 -13
q13 0 25.5 2.5t30.5 7.5q6 -8 9.5 -18t3.5 -23zM124 130q0 -28 17.5 -48t57.5 -20q22 0 54 15.5t55 36.5v118q-59 -7 -107 -20t-57 -22t-14.5 -26.5t-5.5 -33.5z" />
    <glyph glyph-name="Cacute" unicode="&#x106;" horiz-adv-x="606" 
d="M557 19q-44 -14 -96.5 -24t-109.5 -10q-77 0 -134.5 26.5t-95.5 72t-57 107.5t-19 132q0 65 21 130t61.5 116.5t101.5 83.5t139 32q60 0 103.5 -7.5t79.5 -19.5q1 -41 -5 -83t-18 -82q-16 -3 -28.5 -2t-22.5 6q-1 28 -5 55.5t-10 54.5q-20 3 -50.5 4.5t-61.5 1.5
q-14 0 -33.5 -2.5t-38.5 -7t-35.5 -11t-25.5 -13.5q-28 -27 -54.5 -81t-26.5 -132q0 -61 13 -117.5t41.5 -98.5t75 -67.5t112.5 -25.5q25 0 52 2.5t45 6.5q6 33 9.5 63t4.5 59q13 5 26 6t27 -2q8 -44 11.5 -88.5t3.5 -84.5zM271 767l186 130q16 -9 28.5 -23.5t22.5 -33.5
l-3 -20l-213 -93q-8 7 -13 18t-8 22z" />
    <glyph glyph-name="cacute" unicode="&#x107;" horiz-adv-x="454" 
d="M427 54q-34 -25 -86.5 -46.5t-96.5 -21.5q-54 0 -92.5 19t-63.5 51t-36.5 76.5t-11.5 94.5q0 45 15.5 90.5t44 81.5t69.5 59t91 23q51 0 91 -8t68 -21q0 -35 -5.5 -68t-15.5 -62q-17 -5 -31.5 -4t-27.5 8q-1 21 -2.5 41.5t-5.5 41.5q-13 2 -33 3.5t-42 1.5q-19 0 -45 -5
t-36 -14q-21 -22 -35.5 -59t-14.5 -81q0 -31 6.5 -66t22 -64t42 -48t65.5 -19q33 0 68 8t81 26q8 -7 12 -16.5t5 -21.5zM193 550l110 167q25 7 49.5 9.5t49.5 2.5l8 -23l-179 -184q-13 3 -22 10t-16 18z" />
    <glyph glyph-name="Ccircumflex" unicode="&#x108;" horiz-adv-x="606" 
d="M557 19q-44 -14 -96.5 -24t-109.5 -10q-77 0 -134.5 26.5t-95.5 72t-57 107.5t-19 132q0 65 21 130t61.5 116.5t101.5 83.5t139 32q60 0 103.5 -7.5t79.5 -19.5q1 -41 -5 -83t-18 -82q-16 -3 -28.5 -2t-22.5 6q-1 28 -5 55.5t-10 54.5q-20 3 -50.5 4.5t-61.5 1.5
q-14 0 -33.5 -2.5t-38.5 -7t-35.5 -11t-25.5 -13.5q-28 -27 -54.5 -81t-26.5 -132q0 -61 13 -117.5t41.5 -98.5t75 -67.5t112.5 -25.5q25 0 52 2.5t45 6.5q6 33 9.5 63t4.5 59q13 5 26 6t27 -2q8 -44 11.5 -88.5t3.5 -84.5zM516 758q-5 -12 -13.5 -22t-19.5 -17l-136 93
l-132 -93q-10 6 -16.5 15t-10.5 19l128 134q15 3 31 4.5t32 1.5z" />
    <glyph glyph-name="ccircumflex" unicode="&#x109;" horiz-adv-x="454" 
d="M427 54q-34 -25 -86.5 -46.5t-96.5 -21.5q-54 0 -92.5 19t-63.5 51t-36.5 76.5t-11.5 94.5q0 45 15.5 90.5t44 81.5t69.5 59t91 23q51 0 91 -8t68 -21q0 -35 -5.5 -68t-15.5 -62q-17 -5 -31.5 -4t-27.5 8q-1 21 -2.5 41.5t-5.5 41.5q-13 2 -33 3.5t-42 1.5q-19 0 -45 -5
t-36 -14q-21 -22 -35.5 -59t-14.5 -81q0 -31 6.5 -66t22 -64t42 -48t65.5 -19q33 0 68 8t81 26q8 -7 12 -16.5t5 -21.5zM406 550q-4 -10 -13.5 -18.5t-22.5 -12.5l-118 123l-111 -123q-11 3 -19.5 10.5t-13.5 17.5l110 173q16 4 33 6t33 1z" />
    <glyph glyph-name="Cdotaccent" unicode="&#x10a;" horiz-adv-x="606" 
d="M557 19q-44 -14 -96.5 -24t-109.5 -10q-77 0 -134.5 26.5t-95.5 72t-57 107.5t-19 132q0 65 21 130t61.5 116.5t101.5 83.5t139 32q60 0 103.5 -7.5t79.5 -19.5q1 -41 -5 -83t-18 -82q-16 -3 -28.5 -2t-22.5 6q-1 28 -5 55.5t-10 54.5q-20 3 -50.5 4.5t-61.5 1.5
q-14 0 -33.5 -2.5t-38.5 -7t-35.5 -11t-25.5 -13.5q-28 -27 -54.5 -81t-26.5 -132q0 -61 13 -117.5t41.5 -98.5t75 -67.5t112.5 -25.5q25 0 52 2.5t45 6.5q6 33 9.5 63t4.5 59q13 5 26 6t27 -2q8 -44 11.5 -88.5t3.5 -84.5zM347 740q-19 0 -36.5 14t-17.5 35q0 24 18.5 47.5
t44.5 23.5q20 0 37 -14t17 -36q0 -25 -18 -47.5t-45 -22.5z" />
    <glyph glyph-name="cdotaccent" unicode="&#x10b;" horiz-adv-x="454" 
d="M427 54q-34 -25 -86.5 -46.5t-96.5 -21.5q-54 0 -92.5 19t-63.5 51t-36.5 76.5t-11.5 94.5q0 45 15.5 90.5t44 81.5t69.5 59t91 23q51 0 91 -8t68 -21q0 -35 -5.5 -68t-15.5 -62q-17 -5 -31.5 -4t-27.5 8q-1 21 -2.5 41.5t-5.5 41.5q-13 2 -33 3.5t-42 1.5q-19 0 -45 -5
t-36 -14q-21 -22 -35.5 -59t-14.5 -81q0 -31 6.5 -66t22 -64t42 -48t65.5 -19q33 0 68 8t81 26q8 -7 12 -16.5t5 -21.5zM248 561q-20 0 -40 16t-20 38q0 27 20.5 52.5t48.5 25.5q22 0 41 -16t19 -39q0 -27 -20 -52t-49 -25z" />
    <glyph glyph-name="Ccaron" unicode="&#x10c;" horiz-adv-x="606" 
d="M557 19q-44 -14 -96.5 -24t-109.5 -10q-77 0 -134.5 26.5t-95.5 72t-57 107.5t-19 132q0 65 21 130t61.5 116.5t101.5 83.5t139 32q60 0 103.5 -7.5t79.5 -19.5q1 -41 -5 -83t-18 -82q-16 -3 -28.5 -2t-22.5 6q-1 28 -5 55.5t-10 54.5q-20 3 -50.5 4.5t-61.5 1.5
q-14 0 -33.5 -2.5t-38.5 -7t-35.5 -11t-25.5 -13.5q-28 -27 -54.5 -81t-26.5 -132q0 -61 13 -117.5t41.5 -98.5t75 -67.5t112.5 -25.5q25 0 52 2.5t45 6.5q6 33 9.5 63t4.5 59q13 5 26 6t27 -2q8 -44 11.5 -88.5t3.5 -84.5zM387 732q-15 -3 -31 -4.5t-32 -1.5l-137 135
q5 12 13.5 22t19.5 17l136 -93l132 93q10 -6 16.5 -15t10.5 -19z" />
    <glyph glyph-name="ccaron" unicode="&#x10d;" horiz-adv-x="454" 
d="M427 54q-34 -25 -86.5 -46.5t-96.5 -21.5q-54 0 -92.5 19t-63.5 51t-36.5 76.5t-11.5 94.5q0 45 15.5 90.5t44 81.5t69.5 59t91 23q51 0 91 -8t68 -21q0 -35 -5.5 -68t-15.5 -62q-17 -5 -31.5 -4t-27.5 8q-1 21 -2.5 41.5t-5.5 41.5q-13 2 -33 3.5t-42 1.5q-19 0 -45 -5
t-36 -14q-21 -22 -35.5 -59t-14.5 -81q0 -31 6.5 -66t22 -64t42 -48t65.5 -19q33 0 68 8t81 26q8 -7 12 -16.5t5 -21.5zM293 540q-16 -4 -33 -6t-33 -1l-122 177q4 10 13.5 18.5t22.5 12.5l118 -123l111 123q11 -3 19.5 -10.5t13.5 -17.5z" />
    <glyph glyph-name="Dcaron" unicode="&#x10e;" horiz-adv-x="663" 
d="M618 344q0 -65 -20 -127.5t-58.5 -111t-94.5 -78.5t-127 -30q-31 0 -68 2t-83 2q-33 0 -64 -1t-63 -1q-4 12 -6 24t-2 24q22 2 43.5 7t43.5 12q3 14 4 29.5t1 31.5v339q0 44 -1.5 77t-3.5 61q-22 7 -43.5 12t-43.5 7q0 12 2 24t6 24q32 0 63 -1t64 -1q53 0 96 2t79 2
q66 0 118 -25t87 -68.5t53 -104t18 -131.5zM313 608q-25 0 -51 -1t-50 -2v-541h90q19 0 40 2.5t40.5 6t34.5 8.5t22 11q33 25 60.5 75.5t27.5 134.5q0 56 -12.5 111t-38 98t-66.5 70t-97 27zM346 732q-15 -3 -31 -4.5t-32 -1.5l-137 135q5 12 13.5 22t19.5 17l136 -93
l132 93q10 -6 16.5 -15t10.5 -19z" />
    <glyph glyph-name="dcaron" unicode="&#x10f;" horiz-adv-x="631" 
d="M533 37q-23 -20 -55.5 -35.5t-58.5 -15.5q-18 0 -31.5 29t-19.5 63q-31 -34 -70.5 -63t-80.5 -29q-44 0 -77.5 19t-55.5 51.5t-33 76.5t-11 94q0 53 18 99.5t47.5 80.5t68.5 54t81 20q25 0 56.5 -11t53.5 -24v230q-22 5 -45.5 9.5t-45.5 6.5q-3 10 -4 19.5t0 19.5
q32 11 81.5 21t93.5 14l8 -8q-2 -75 -3 -140.5t-1 -147.5v-333q0 -20 1 -41.5t4 -37.5q16 2 33 7t31 9q7 -7 11 -16.5t4 -20.5zM125 255q0 -38 7 -73.5t21 -63t35.5 -44t49.5 -16.5q25 0 61.5 24.5t65.5 50.5v256q-25 9 -57 17t-64 8q-16 0 -38 -5t-31 -14
q-21 -22 -35.5 -59.5t-14.5 -80.5zM518 758l8 8q22 3 42.5 -0.5t36.5 -16.5l-47 -210q-10 -1 -21.5 -0.5t-21.5 5.5z" />
    <glyph glyph-name="Dcroat" unicode="&#x110;" horiz-adv-x="665" 
d="M621 344q0 -65 -20 -127.5t-58.5 -111t-94.5 -78.5t-127 -30q-31 0 -68 2t-83 2q-33 0 -64 -1t-63 -1q-4 12 -6 24t-2 24q22 2 43.5 7t43.5 12q3 14 4 29.5t1 31.5v176h-89q-3 16 -3.5 32.5t3.5 33.5h89v97q0 44 -1.5 77t-3.5 61q-22 7 -43.5 12t-43.5 7q0 12 2 24t6 24
q32 0 63 -1t64 -1q53 0 96 2t79 2q66 0 118 -25t87 -68.5t53 -104t18 -131.5zM347 303h-132v-239h90q19 0 40 2.5t40.5 6t34.5 8.5t22 11q33 25 60.5 75.5t27.5 134.5q0 56 -12.5 111t-38 98t-66.5 70t-97 27q-25 0 -51 -1t-50 -2v-236h132q3 -17 3 -33t-3 -33z" />
    <glyph glyph-name="dcroat" unicode="&#x111;" horiz-adv-x="553" 
d="M533 37q-23 -20 -55.5 -35.5t-58.5 -15.5q-18 0 -31.5 29t-19.5 63q-31 -34 -70.5 -63t-80.5 -29q-44 0 -77.5 19t-55.5 51.5t-33 76.5t-11 94q0 53 18 99.5t47.5 80.5t68.5 54t81 20q25 0 56.5 -11t53.5 -24v108h-150q-3 13 -3.5 27.5t3.5 28.5h150v66q-22 5 -45.5 9.5
t-45.5 6.5q-3 10 -4 19.5t0 19.5q32 11 81.5 21t93.5 14l8 -8q-1 -40 -2 -75.5t-1 -72.5h74q3 -14 3 -28t-3 -28h-75v-40.5v-43.5v-333q0 -20 1 -41.5t4 -37.5q16 2 33 7t31 9q7 -7 11 -16.5t4 -20.5zM125 255q0 -38 7 -73.5t21 -63t35.5 -44t49.5 -16.5q25 0 61.5 24.5
t65.5 50.5v256q-25 9 -57 17t-64 8q-16 0 -38 -5t-31 -14q-21 -22 -35.5 -59.5t-14.5 -80.5z" />
    <glyph glyph-name="Emacron" unicode="&#x112;" horiz-adv-x="583" 
d="M525 7l-8 -8q-23 1 -53 1.5t-61.5 0.5h-63h-57.5h-115q-33 0 -64 -1t-63 -1q-4 12 -6 24t-2 24q22 2 43.5 7t43.5 12q3 14 4 29.5t1 31.5v339q0 44 -1.5 77t-3.5 61q-22 7 -43.5 12t-43.5 7q0 12 2 24t6 24q32 0 63 -1t64 -1h103h57.5h63t61.5 0.5t53 1.5l8 -8
q1 -42 -1 -84t-8 -84q-13 -4 -26.5 -4t-26.5 4q-1 28 -5 56t-11 54h-223v-228l205 4l8 -8q-1 -17 -3.5 -33t-6.5 -29l-203 4v-250h235q10 30 19.5 60.5t16.5 61.5q13 3 26.5 1.5t26.5 -5.5q0 -44 -2.5 -88t-8.5 -88zM157 809h283q6 -16 6 -32.5t-6 -32.5h-283
q-5 16 -4.5 32.5t4.5 32.5z" />
    <glyph glyph-name="emacron" unicode="&#x113;" horiz-adv-x="480" 
d="M436 58q-34 -23 -89 -47.5t-104 -24.5q-53 0 -92 19t-63.5 51t-36 76.5t-11.5 95.5q0 46 16 92t44.5 82.5t68.5 59t87 22.5q51 0 85.5 -16t55 -41t29 -57.5t8.5 -64.5q0 -17 -1.5 -34.5t-3.5 -27.5l-8 -8q-31 1 -78 1.5t-103 0.5h-116q2 -30 9.5 -62t23.5 -58t41 -42.5
t62 -16.5q33 0 73 9t86 27q9 -7 12.5 -16t4.5 -20zM174 400q-17 -18 -30 -47t-18 -64h98q40 0 71.5 1.5t50.5 2.5q0 48 -19 87t-85 39q-16 0 -37.5 -5t-30.5 -14zM112 632h275q6 -16 6 -33.5t-6 -33.5h-275q-5 16 -4.5 33.5t4.5 33.5z" />
    <glyph glyph-name="Ebreve" unicode="&#x114;" horiz-adv-x="583" 
d="M525 7l-8 -8q-23 1 -53 1.5t-61.5 0.5h-63h-57.5h-115q-33 0 -64 -1t-63 -1q-4 12 -6 24t-2 24q22 2 43.5 7t43.5 12q3 14 4 29.5t1 31.5v339q0 44 -1.5 77t-3.5 61q-22 7 -43.5 12t-43.5 7q0 12 2 24t6 24q32 0 63 -1t64 -1h103h57.5h63t61.5 0.5t53 1.5l8 -8
q1 -42 -1 -84t-8 -84q-13 -4 -26.5 -4t-26.5 4q-1 28 -5 56t-11 54h-223v-228l205 4l8 -8q-1 -17 -3.5 -33t-6.5 -29l-203 4v-250h235q10 30 19.5 60.5t16.5 61.5q13 3 26.5 1.5t26.5 -5.5q0 -44 -2.5 -88t-8.5 -88zM292 735q-32 0 -57.5 10.5t-44 25.5t-31 32.5t-17.5 32.5
q4 10 12 17t21 11q21 -22 54 -40t73 -18q43 0 73 18.5t50 39.5q13 -4 21 -11t10 -17q-19 -37 -60 -69t-104 -32z" />
    <glyph glyph-name="ebreve" unicode="&#x115;" horiz-adv-x="480" 
d="M436 58q-34 -23 -89 -47.5t-104 -24.5q-53 0 -92 19t-63.5 51t-36 76.5t-11.5 95.5q0 46 16 92t44.5 82.5t68.5 59t87 22.5q51 0 85.5 -16t55 -41t29 -57.5t8.5 -64.5q0 -17 -1.5 -34.5t-3.5 -27.5l-8 -8q-31 1 -78 1.5t-103 0.5h-116q2 -30 9.5 -62t23.5 -58t41 -42.5
t62 -16.5q33 0 73 9t86 27q9 -7 12.5 -16t4.5 -20zM174 400q-17 -18 -30 -47t-18 -64h98q40 0 71.5 1.5t50.5 2.5q0 48 -19 87t-85 39q-16 0 -37.5 -5t-30.5 -14zM244 544q-32 0 -57.5 12t-44.5 30t-31.5 38.5t-17.5 36.5q4 10 12 17t21 11q21 -27 54 -49t73 -22
q43 0 73 22.5t50 48.5q13 -4 21 -11t10 -17q-5 -16 -19.5 -36t-35.5 -38t-48.5 -30.5t-59.5 -12.5z" />
    <glyph glyph-name="Edotaccent" unicode="&#x116;" horiz-adv-x="583" 
d="M525 7l-8 -8q-23 1 -53 1.5t-61.5 0.5h-63h-57.5h-115q-33 0 -64 -1t-63 -1q-4 12 -6 24t-2 24q22 2 43.5 7t43.5 12q3 14 4 29.5t1 31.5v339q0 44 -1.5 77t-3.5 61q-22 7 -43.5 12t-43.5 7q0 12 2 24t6 24q32 0 63 -1t64 -1h103h57.5h63t61.5 0.5t53 1.5l8 -8
q1 -42 -1 -84t-8 -84q-13 -4 -26.5 -4t-26.5 4q-1 28 -5 56t-11 54h-223v-228l205 4l8 -8q-1 -17 -3.5 -33t-6.5 -29l-203 4v-250h235q10 30 19.5 60.5t16.5 61.5q13 3 26.5 1.5t26.5 -5.5q0 -44 -2.5 -88t-8.5 -88zM296 740q-19 0 -36.5 14t-17.5 35q0 24 18.5 47.5
t44.5 23.5q20 0 37 -14t17 -36q0 -25 -18 -47.5t-45 -22.5z" />
    <glyph glyph-name="edotaccent" unicode="&#x117;" horiz-adv-x="480" 
d="M436 58q-34 -23 -89 -47.5t-104 -24.5q-53 0 -92 19t-63.5 51t-36 76.5t-11.5 95.5q0 46 16 92t44.5 82.5t68.5 59t87 22.5q51 0 85.5 -16t55 -41t29 -57.5t8.5 -64.5q0 -17 -1.5 -34.5t-3.5 -27.5l-8 -8q-31 1 -78 1.5t-103 0.5h-116q2 -30 9.5 -62t23.5 -58t41 -42.5
t62 -16.5q33 0 73 9t86 27q9 -7 12.5 -16t4.5 -20zM174 400q-17 -18 -30 -47t-18 -64h98q40 0 71.5 1.5t50.5 2.5q0 48 -19 87t-85 39q-16 0 -37.5 -5t-30.5 -14zM247 561q-20 0 -40 16t-20 38q0 27 20.5 52.5t48.5 25.5q22 0 41 -16t19 -39q0 -27 -20 -52t-49 -25z" />
    <glyph glyph-name="Eogonek" unicode="&#x118;" horiz-adv-x="583" 
d="M536 183q0 -44 -2.5 -88t-8.5 -88l-8 -8q-57 -25 -88 -57t-31 -55q0 -18 12 -28t28 -10q14 0 27 2.5t31 7.5q6 -8 9.5 -18t3.5 -23q-29 -17 -55.5 -25t-53.5 -8q-36 0 -60 21t-24 49q0 37 32.5 75t113.5 69v2h-295q-33 0 -64 -1t-63 -1q-4 12 -6 24t-2 24q22 2 43.5 7
t43.5 12q3 14 4 29.5t1 31.5v339q0 44 -1.5 77t-3.5 61q-22 7 -43.5 12t-43.5 7q0 12 2 24t6 24q32 0 63 -1t64 -1h103h57.5h63t61.5 0.5t53 1.5l8 -8q1 -42 -1 -84t-8 -84q-13 -4 -26.5 -4t-26.5 4q-1 28 -5 56t-11 54h-223v-228l205 4l8 -8q-1 -17 -3.5 -33t-6.5 -29
l-203 4v-250h235q10 30 19.5 60.5t16.5 61.5q13 3 26.5 1.5t26.5 -5.5z" />
    <glyph glyph-name="eogonek" unicode="&#x119;" horiz-adv-x="480" 
d="M411 -181q-29 -17 -55.5 -25t-53.5 -8q-36 0 -60 24t-24 55q0 28 21 62.5t78 69.5l-1 2q-19 -6 -37.5 -9.5t-35.5 -3.5q-53 0 -92 19t-63.5 51t-36 76.5t-11.5 95.5q0 46 16 92t44.5 82.5t68.5 59t87 22.5q51 0 85.5 -16t55 -41t29 -57.5t8.5 -64.5q0 -17 -1.5 -34.5
t-3.5 -27.5l-8 -8q-31 1 -78 1.5t-103 0.5h-116q2 -30 9.5 -62t23.5 -58t41 -42.5t62 -16.5q33 0 73 9t86 27q9 -7 12.5 -16t4.5 -20q-1 -1 -3 -2t-3 -2q-68 -45 -99 -84.5t-31 -70.5q0 -22 12 -35.5t28 -13.5q14 0 27 2.5t31 7.5q6 -8 9.5 -18t3.5 -23zM174 400
q-17 -18 -30 -47t-18 -64h98q40 0 71.5 1.5t50.5 2.5q0 48 -19 87t-85 39q-16 0 -37.5 -5t-30.5 -14z" />
    <glyph glyph-name="Ecaron" unicode="&#x11a;" horiz-adv-x="583" 
d="M525 7l-8 -8q-23 1 -53 1.5t-61.5 0.5h-63h-57.5h-115q-33 0 -64 -1t-63 -1q-4 12 -6 24t-2 24q22 2 43.5 7t43.5 12q3 14 4 29.5t1 31.5v339q0 44 -1.5 77t-3.5 61q-22 7 -43.5 12t-43.5 7q0 12 2 24t6 24q32 0 63 -1t64 -1h103h57.5h63t61.5 0.5t53 1.5l8 -8
q1 -42 -1 -84t-8 -84q-13 -4 -26.5 -4t-26.5 4q-1 28 -5 56t-11 54h-223v-228l205 4l8 -8q-1 -17 -3.5 -33t-6.5 -29l-203 4v-250h235q10 30 19.5 60.5t16.5 61.5q13 3 26.5 1.5t26.5 -5.5q0 -44 -2.5 -88t-8.5 -88zM336 732q-15 -3 -31 -4.5t-32 -1.5l-137 135
q5 12 13.5 22t19.5 17l136 -93l132 93q10 -6 16.5 -15t10.5 -19z" />
    <glyph glyph-name="ecaron" unicode="&#x11b;" horiz-adv-x="480" 
d="M436 58q-34 -23 -89 -47.5t-104 -24.5q-53 0 -92 19t-63.5 51t-36 76.5t-11.5 95.5q0 46 16 92t44.5 82.5t68.5 59t87 22.5q51 0 85.5 -16t55 -41t29 -57.5t8.5 -64.5q0 -17 -1.5 -34.5t-3.5 -27.5l-8 -8q-31 1 -78 1.5t-103 0.5h-116q2 -30 9.5 -62t23.5 -58t41 -42.5
t62 -16.5q33 0 73 9t86 27q9 -7 12.5 -16t4.5 -20zM174 400q-17 -18 -30 -47t-18 -64h98q40 0 71.5 1.5t50.5 2.5q0 48 -19 87t-85 39q-16 0 -37.5 -5t-30.5 -14zM292 540q-16 -4 -33 -6t-33 -1l-122 177q4 10 13.5 18.5t22.5 12.5l118 -123l111 123q11 -3 19.5 -10.5
t13.5 -17.5z" />
    <glyph glyph-name="Gcircumflex" unicode="&#x11c;" horiz-adv-x="659" 
d="M558 40q-38 -17 -97 -36t-125 -19q-72 0 -127 26.5t-91 72t-54.5 107.5t-18.5 132q0 65 21 130t62 116.5t103.5 83.5t144.5 32q63 0 107.5 -7.5t80.5 -19.5q1 -41 -5 -83t-18 -82q-16 -3 -28.5 -2t-22.5 6q-1 28 -5 55.5t-10 54.5q-25 3 -57 4.5t-68 1.5
q-14 0 -33.5 -2.5t-38.5 -7t-35.5 -11t-25.5 -13.5q-28 -27 -54.5 -81t-26.5 -132q0 -61 13 -117.5t41.5 -98.5t75 -67.5t112.5 -25.5q21 0 45.5 3.5t50.5 9.5v31q0 44 -1.5 77t-3.5 61q-21 6 -44.5 11t-48.5 7q0 12 2 24t6 24q31 0 60.5 -1t55.5 -1h29h34.5t33.5 0.5
t27 1.5q4 -11 5.5 -23t0.5 -25q-15 -7 -32.5 -12t-36.5 -7q-1 -19 -2 -68.5t-1 -99.5v-30zM518 758q-5 -12 -13.5 -22t-19.5 -17l-136 93l-132 -93q-10 6 -16.5 15t-10.5 19l128 134q15 3 31 4.5t32 1.5z" />
    <glyph glyph-name="gcircumflex" unicode="&#x11d;" horiz-adv-x="508" 
d="M479 -56q0 -105 -73.5 -157.5t-195.5 -52.5q-45 0 -80 12.5t-58.5 32.5t-36 45t-12.5 50q0 47 31 82.5t67 56.5q-7 8 -9.5 18t-2.5 21q0 21 13 45t34 48q-51 13 -80.5 50t-29.5 99q0 33 12.5 66.5t37 59.5t62 43t86.5 17q34 0 61 -6.5t47 -19.5q22 24 49.5 42t66.5 35
q16 -13 25 -30.5t10 -38.5q-20 -8 -52 -18.5t-63 -19.5q17 -21 25 -47t8 -54q0 -34 -12 -67t-37 -59t-64 -42.5t-91 -16.5h-10.5t-9.5 1q-5 -10 -8.5 -20.5t-3.5 -20.5t1 -17.5t3 -10.5t13.5 -4.5t26 -2t30 -1t26.5 -0.5q97 0 145.5 -34t48.5 -84zM125 321q0 -49 30 -84
t78 -35q21 0 42 4.5t28 8.5q13 7 26 35.5t13 56.5q0 19 -8 39t-22.5 35.5t-36 25.5t-48.5 10q-17 0 -36.5 -4t-26.5 -8q-14 -10 -26.5 -34t-12.5 -50zM107 -105q0 -14 5.5 -30.5t20 -30.5t40 -23.5t64.5 -9.5q38 0 72.5 6.5t59.5 22.5q10 6 19 31.5t9 51.5q0 36 -29.5 53.5
t-101.5 17.5q-40 0 -67.5 3t-45.5 8q-20 -21 -33 -47t-13 -53zM390 550q-4 -10 -13.5 -18.5t-22.5 -12.5l-118 123l-111 -123q-11 3 -19.5 10.5t-13.5 17.5l110 173q16 4 33 6t33 1z" />
    <glyph glyph-name="Gbreve" unicode="&#x11e;" horiz-adv-x="659" 
d="M558 40q-38 -17 -97 -36t-125 -19q-72 0 -127 26.5t-91 72t-54.5 107.5t-18.5 132q0 65 21 130t62 116.5t103.5 83.5t144.5 32q63 0 107.5 -7.5t80.5 -19.5q1 -41 -5 -83t-18 -82q-16 -3 -28.5 -2t-22.5 6q-1 28 -5 55.5t-10 54.5q-25 3 -57 4.5t-68 1.5
q-14 0 -33.5 -2.5t-38.5 -7t-35.5 -11t-25.5 -13.5q-28 -27 -54.5 -81t-26.5 -132q0 -61 13 -117.5t41.5 -98.5t75 -67.5t112.5 -25.5q21 0 45.5 3.5t50.5 9.5v31q0 44 -1.5 77t-3.5 61q-21 6 -44.5 11t-48.5 7q0 12 2 24t6 24q31 0 60.5 -1t55.5 -1h29h34.5t33.5 0.5
t27 1.5q4 -11 5.5 -23t0.5 -25q-15 -7 -32.5 -12t-36.5 -7q-1 -19 -2 -68.5t-1 -99.5v-30zM345 735q-32 0 -57.5 10.5t-44 25.5t-31 32.5t-17.5 32.5q4 10 12 17t21 11q21 -22 54 -40t73 -18q43 0 73 18.5t50 39.5q13 -4 21 -11t10 -17q-19 -37 -60 -69t-104 -32z" />
    <glyph glyph-name="gbreve" unicode="&#x11f;" horiz-adv-x="508" 
d="M479 -56q0 -105 -73.5 -157.5t-195.5 -52.5q-45 0 -80 12.5t-58.5 32.5t-36 45t-12.5 50q0 47 31 82.5t67 56.5q-7 8 -9.5 18t-2.5 21q0 21 13 45t34 48q-51 13 -80.5 50t-29.5 99q0 33 12.5 66.5t37 59.5t62 43t86.5 17q34 0 61 -6.5t47 -19.5q22 24 49.5 42t66.5 35
q16 -13 25 -30.5t10 -38.5q-20 -8 -52 -18.5t-63 -19.5q17 -21 25 -47t8 -54q0 -34 -12 -67t-37 -59t-64 -42.5t-91 -16.5h-10.5t-9.5 1q-5 -10 -8.5 -20.5t-3.5 -20.5t1 -17.5t3 -10.5t13.5 -4.5t26 -2t30 -1t26.5 -0.5q97 0 145.5 -34t48.5 -84zM125 321q0 -49 30 -84
t78 -35q21 0 42 4.5t28 8.5q13 7 26 35.5t13 56.5q0 19 -8 39t-22.5 35.5t-36 25.5t-48.5 10q-17 0 -36.5 -4t-26.5 -8q-14 -10 -26.5 -34t-12.5 -50zM107 -105q0 -14 5.5 -30.5t20 -30.5t40 -23.5t64.5 -9.5q38 0 72.5 6.5t59.5 22.5q10 6 19 31.5t9 51.5q0 36 -29.5 53.5
t-101.5 17.5q-40 0 -67.5 3t-45.5 8q-20 -21 -33 -47t-13 -53zM229 544q-32 0 -57.5 12t-44.5 30t-31.5 38.5t-17.5 36.5q4 10 12 17t21 11q21 -27 54 -49t73 -22q43 0 73 22.5t50 48.5q13 -4 21 -11t10 -17q-5 -16 -19.5 -36t-35.5 -38t-48.5 -30.5t-59.5 -12.5z" />
    <glyph glyph-name="Gdotaccent" unicode="&#x120;" horiz-adv-x="659" 
d="M558 40q-38 -17 -97 -36t-125 -19q-72 0 -127 26.5t-91 72t-54.5 107.5t-18.5 132q0 65 21 130t62 116.5t103.5 83.5t144.5 32q63 0 107.5 -7.5t80.5 -19.5q1 -41 -5 -83t-18 -82q-16 -3 -28.5 -2t-22.5 6q-1 28 -5 55.5t-10 54.5q-25 3 -57 4.5t-68 1.5
q-14 0 -33.5 -2.5t-38.5 -7t-35.5 -11t-25.5 -13.5q-28 -27 -54.5 -81t-26.5 -132q0 -61 13 -117.5t41.5 -98.5t75 -67.5t112.5 -25.5q21 0 45.5 3.5t50.5 9.5v31q0 44 -1.5 77t-3.5 61q-21 6 -44.5 11t-48.5 7q0 12 2 24t6 24q31 0 60.5 -1t55.5 -1h29h34.5t33.5 0.5
t27 1.5q4 -11 5.5 -23t0.5 -25q-15 -7 -32.5 -12t-36.5 -7q-1 -19 -2 -68.5t-1 -99.5v-30zM349 740q-19 0 -36.5 14t-17.5 35q0 24 18.5 47.5t44.5 23.5q20 0 37 -14t17 -36q0 -25 -18 -47.5t-45 -22.5z" />
    <glyph glyph-name="gdotaccent" unicode="&#x121;" horiz-adv-x="508" 
d="M479 -56q0 -105 -73.5 -157.5t-195.5 -52.5q-45 0 -80 12.5t-58.5 32.5t-36 45t-12.5 50q0 47 31 82.5t67 56.5q-7 8 -9.5 18t-2.5 21q0 21 13 45t34 48q-51 13 -80.5 50t-29.5 99q0 33 12.5 66.5t37 59.5t62 43t86.5 17q34 0 61 -6.5t47 -19.5q22 24 49.5 42t66.5 35
q16 -13 25 -30.5t10 -38.5q-20 -8 -52 -18.5t-63 -19.5q17 -21 25 -47t8 -54q0 -34 -12 -67t-37 -59t-64 -42.5t-91 -16.5h-10.5t-9.5 1q-5 -10 -8.5 -20.5t-3.5 -20.5t1 -17.5t3 -10.5t13.5 -4.5t26 -2t30 -1t26.5 -0.5q97 0 145.5 -34t48.5 -84zM125 321q0 -49 30 -84
t78 -35q21 0 42 4.5t28 8.5q13 7 26 35.5t13 56.5q0 19 -8 39t-22.5 35.5t-36 25.5t-48.5 10q-17 0 -36.5 -4t-26.5 -8q-14 -10 -26.5 -34t-12.5 -50zM107 -105q0 -14 5.5 -30.5t20 -30.5t40 -23.5t64.5 -9.5q38 0 72.5 6.5t59.5 22.5q10 6 19 31.5t9 51.5q0 36 -29.5 53.5
t-101.5 17.5q-40 0 -67.5 3t-45.5 8q-20 -21 -33 -47t-13 -53zM232 561q-20 0 -40 16t-20 38q0 27 20.5 52.5t48.5 25.5q22 0 41 -16t19 -39q0 -27 -20 -52t-49 -25z" />
    <glyph glyph-name="uni0122" unicode="&#x122;" horiz-adv-x="659" 
d="M558 40q-38 -17 -97 -36t-125 -19q-72 0 -127 26.5t-91 72t-54.5 107.5t-18.5 132q0 65 21 130t62 116.5t103.5 83.5t144.5 32q63 0 107.5 -7.5t80.5 -19.5q1 -41 -5 -83t-18 -82q-16 -3 -28.5 -2t-22.5 6q-1 28 -5 55.5t-10 54.5q-25 3 -57 4.5t-68 1.5
q-14 0 -33.5 -2.5t-38.5 -7t-35.5 -11t-25.5 -13.5q-28 -27 -54.5 -81t-26.5 -132q0 -61 13 -117.5t41.5 -98.5t75 -67.5t112.5 -25.5q21 0 45.5 3.5t50.5 9.5v31q0 44 -1.5 77t-3.5 61q-21 6 -44.5 11t-48.5 7q0 12 2 24t6 24q31 0 60.5 -1t55.5 -1h29h34.5t33.5 0.5
t27 1.5q4 -11 5.5 -23t0.5 -25q-15 -7 -32.5 -12t-36.5 -7q-1 -19 -2 -68.5t-1 -99.5v-30zM284 -91q11 11 29.5 20.5t37.5 11.5q25 -19 35 -42t10 -45q0 -36 -22 -72.5t-69 -66.5q-8 4 -14 9.5t-8 13.5q20 27 26 50.5t6 42.5t-9 38.5t-22 39.5z" />
    <glyph glyph-name="uni0123" unicode="&#x123;" horiz-adv-x="508" 
d="M479 -56q0 -105 -73.5 -157.5t-195.5 -52.5q-45 0 -80 12.5t-58.5 32.5t-36 45t-12.5 50q0 47 31 82.5t67 56.5q-7 8 -9.5 18t-2.5 21q0 21 13 45t34 48q-51 13 -80.5 50t-29.5 99q0 33 12.5 66.5t37 59.5t62 43t86.5 17q34 0 61 -6.5t47 -19.5q22 24 49.5 42t66.5 35
q16 -13 25 -30.5t10 -38.5q-20 -8 -52 -18.5t-63 -19.5q17 -21 25 -47t8 -54q0 -34 -12 -67t-37 -59t-64 -42.5t-91 -16.5h-10.5t-9.5 1q-5 -10 -8.5 -20.5t-3.5 -20.5t1 -17.5t3 -10.5t13.5 -4.5t26 -2t30 -1t26.5 -0.5q97 0 145.5 -34t48.5 -84zM125 321q0 -49 30 -84
t78 -35q21 0 42 4.5t28 8.5q13 7 26 35.5t13 56.5q0 19 -8 39t-22.5 35.5t-36 25.5t-48.5 10q-17 0 -36.5 -4t-26.5 -8q-14 -10 -26.5 -34t-12.5 -50zM107 -105q0 -14 5.5 -30.5t20 -30.5t40 -23.5t64.5 -9.5q38 0 72.5 6.5t59.5 22.5q10 6 19 31.5t9 51.5q0 36 -29.5 53.5
t-101.5 17.5q-40 0 -67.5 3t-45.5 8q-20 -21 -33 -47t-13 -53zM286 569q-11 -11 -28.5 -20t-36.5 -11q-23 19 -32.5 40t-9.5 43q0 34 20.5 69.5t65.5 63.5q9 -3 15 -9t7 -13q-20 -25 -26 -47.5t-6 -41.5q0 -18 9 -36.5t22 -37.5z" />
    <glyph glyph-name="Hcircumflex" unicode="&#x124;" horiz-adv-x="754" 
d="M717 47q1 -13 -0.5 -25t-5.5 -23q-11 1 -27 1.5t-33.5 0.5h-34.5h-29q-33 0 -64 -1t-63 -1q-4 12 -6 24t-2 24q22 2 43.5 7t43.5 12q4 22 4.5 47t0.5 48v154q-52 2 -104 3.5t-102 1.5h-126v-171q0 -22 1 -43t3 -40q22 -2 42.5 -7t38.5 -12q1 -13 -0.5 -25t-5.5 -23
q-11 1 -27 1.5t-33.5 0.5h-34.5h-29q-33 0 -64 -1t-63 -1q-4 12 -6 24t-2 24q22 2 43.5 7t43.5 12q4 22 4.5 47t0.5 48v305q0 44 -1.5 77t-3.5 61q-22 7 -43.5 12t-43.5 7q0 12 2 24t6 24q32 0 63 -1t64 -1h29h34.5t33.5 0.5t27 1.5q4 -11 5.5 -23t0.5 -25q-18 -7 -38.5 -12
t-42.5 -7q-3 -33 -3.5 -74.5t-0.5 -98.5v-49h332v84q0 44 -1.5 77t-3.5 61q-22 7 -43.5 12t-43.5 7q0 12 2 24t6 24q32 0 63 -1t64 -1h29h34.5t33.5 0.5t27 1.5q4 -11 5.5 -23t0.5 -25q-18 -7 -38.5 -12t-42.5 -7q-3 -33 -3.5 -74.5t-0.5 -98.5v-282q0 -22 1 -43t3 -40
q22 -2 42.5 -7t38.5 -12zM541 758q-5 -12 -13.5 -22t-19.5 -17l-136 93l-132 -93q-10 6 -16.5 15t-10.5 19l128 134q15 3 31 4.5t32 1.5z" />
    <glyph glyph-name="hcircumflex" unicode="&#x125;" horiz-adv-x="581" 
d="M566 44q0 -11 -1.5 -24.5t-5.5 -20.5q-10 0 -25.5 0.5t-31.5 1t-31 0.5h-24q-31 0 -62 -1t-59 -1q-3 6 -5 19.5t-2 25.5q21 2 43 7t38 10q1 16 2 28.5t1 27.5v168q0 56 -16 93t-75 37q-38 0 -69.5 -8.5t-56.5 -20.5v-249q0 -20 1 -38.5t2 -36.5q20 -2 41 -7t34 -11
q0 -11 -1.5 -24.5t-4.5 -20.5q-10 0 -25.5 0.5t-31.5 1t-31 0.5h-24q-31 0 -62 -1t-59 -1q-3 6 -5 19.5t-2 25.5q21 2 43 7t37 10q2 16 3 28.5t1 27.5v559q-19 5 -39.5 9.5t-39.5 6.5q-3 10 -4 19.5t0 19.5q30 11 76 21t87 14l8 -8q-2 -75 -3 -140.5t-1 -147.5v-38
q26 18 70 35t93 17q66 0 102 -38.5t36 -121.5v-187q0 -20 1 -38.5t2 -36.5q20 -2 41 -7t35 -11zM301 838q-5 -12 -13.5 -22t-19.5 -17l-136 93l-132 -93q-10 6 -16.5 15t-10.5 19l128 134q15 3 31 4.5t32 1.5z" />
    <glyph glyph-name="Hbar" unicode="&#x126;" horiz-adv-x="758" 
d="M720 47q1 -13 -0.5 -25t-5.5 -23q-11 1 -27 1.5t-33.5 0.5h-34.5h-29q-33 0 -64 -1t-63 -1q-4 12 -6 24t-2 24q22 2 43.5 7t43.5 12q4 22 4.5 47t0.5 48v154q-52 2 -104 3.5t-102 1.5h-126v-171q0 -22 1 -43t3 -40q22 -2 42.5 -7t38.5 -12q1 -13 -0.5 -25t-5.5 -23
q-11 1 -27 1.5t-33.5 0.5h-34.5h-29q-33 0 -64 -1t-63 -1q-4 12 -6 24t-2 24q22 2 43.5 7t43.5 12q4 22 4.5 47t0.5 48v304h-89q-3 15 -3.5 30.5t3.5 31.5h88q-1 22 -2 41t-2 36q-22 7 -43.5 12t-43.5 7q0 12 2 24t6 24q32 0 63 -1t64 -1h29h34.5t33.5 0.5t27 1.5
q4 -11 5.5 -23t0.5 -25q-18 -7 -38.5 -12t-42.5 -7q-1 -17 -2 -36t-2 -41h331q-1 22 -2 41t-2 36q-22 7 -43.5 12t-43.5 7q0 12 2 24t6 24q32 0 63 -1t64 -1h29h34.5t33.5 0.5t27 1.5q4 -11 5.5 -23t0.5 -25q-18 -7 -38.5 -12t-42.5 -7q-1 -17 -2 -36t-2 -41h82q3 -16 3 -31
t-3 -31h-82v-16.5v-17.5v-282q0 -22 1 -43t3 -40q22 -2 42.5 -7t38.5 -12zM215 431v-49h332v83h-332v-16.5v-17.5z" />
    <glyph glyph-name="hbar" unicode="&#x127;" horiz-adv-x="583" 
d="M568 44q0 -11 -1.5 -24.5t-5.5 -20.5q-10 0 -25.5 0.5t-31.5 1t-31 0.5h-24q-31 0 -62 -1t-59 -1q-3 6 -5 19.5t-2 25.5q21 2 43 7t38 10q1 16 2 28.5t1 27.5v156q0 53 -16 87.5t-75 34.5q-38 0 -69.5 -8.5t-56.5 -20.5v-229q0 -20 1 -38.5t2 -36.5q20 -2 41 -7t34 -11
q0 -11 -1.5 -24.5t-4.5 -20.5q-10 0 -25.5 0.5t-31.5 1t-31 0.5h-24q-31 0 -62 -1t-59 -1q-3 6 -5 19.5t-2 25.5q21 2 43 7t37 10q2 16 3 28.5t1 27.5v417h-78q-3 13 -3.5 27.5t3.5 28.5h78v86q-19 5 -39.5 9.5t-39.5 6.5q-3 10 -4 19.5t0 19.5q30 11 76 21t87 14l8 -8
q-1 -45 -2 -85.5t-1 -82.5h146q3 -14 3 -28t-3 -28h-147v-31v-33v-58q26 18 70 35t93 17q66 0 102 -36.5t36 -114.5v-176q0 -20 1 -38.5t2 -36.5q20 -2 41 -7t35 -11z" />
    <glyph glyph-name="Itilde" unicode="&#x128;" horiz-adv-x="334" 
d="M167 1q-33 0 -64 -1t-63 -1q-4 12 -6 24t-2 24q22 2 43.5 7t43.5 12q3 14 4 29.5t1 31.5v339q0 44 -1.5 77t-3.5 61q-22 7 -43.5 12t-43.5 7q0 12 2 24t6 24q32 0 63 -1t64 -1h29h34.5t33.5 0.5t27 1.5q4 -11 5.5 -23t0.5 -25q-18 -7 -38.5 -12t-42.5 -7q-2 -28 -3 -61
t-1 -77v-317q0 -22 1 -43t3 -40q22 -2 42.5 -7t38.5 -12q1 -13 -0.5 -25t-5.5 -23q-11 1 -27 1.5t-33.5 0.5h-34.5h-29zM19 744q-13 4 -21 10.5t-12 16.5q23 43 58 71.5t65 28.5q19 0 37 -10t34.5 -22.5t32.5 -22.5t32 -10q11 0 31 14.5t39 39.5q13 -4 21 -10.5t12 -16.5
q-23 -43 -58 -71.5t-65 -28.5q-19 0 -37 10t-34.5 22.5t-32.5 22.5t-32 10q-11 0 -31 -14.5t-39 -39.5z" />
    <glyph glyph-name="itilde" unicode="&#x129;" horiz-adv-x="305" 
d="M159 1q-31 0 -62 -1t-59 -1q-3 6 -5 19.5t-2 25.5q21 2 43 7.5t37 10.5q2 14 3 27t1 28v276q-19 5 -39.5 9.5t-39.5 6.5q-3 10 -4 19.5t0 19.5q30 11 76 21t87 14l8 -8q-2 -75 -3 -140.5t-1 -147.5v-50q0 -20 1 -38.5t2 -36.5q20 -2 41 -7t34 -11q0 -11 -1.5 -24.5
t-4.5 -20.5q-10 0 -25.5 0.5t-31.5 1t-31 0.5h-24zM-8 552q-13 4 -21.5 11t-12.5 17q24 45 60 74t67 29q21 0 38.5 -10.5t34 -23t33.5 -23t36 -10.5q12 0 33 15.5t40 40.5q12 -3 20.5 -9.5t14.5 -16.5q-24 -45 -61 -75t-69 -30q-20 0 -38 10.5t-34.5 23t-33 23t-34.5 10.5
q-12 0 -33 -15.5t-40 -40.5z" />
    <glyph glyph-name="Imacron" unicode="&#x12a;" horiz-adv-x="334" 
d="M167 1q-33 0 -64 -1t-63 -1q-4 12 -6 24t-2 24q22 2 43.5 7t43.5 12q3 14 4 29.5t1 31.5v339q0 44 -1.5 77t-3.5 61q-22 7 -43.5 12t-43.5 7q0 12 2 24t6 24q32 0 63 -1t64 -1h29h34.5t33.5 0.5t27 1.5q4 -11 5.5 -23t0.5 -25q-18 -7 -38.5 -12t-42.5 -7q-2 -28 -3 -61
t-1 -77v-317q0 -22 1 -43t3 -40q22 -2 42.5 -7t38.5 -12q1 -13 -0.5 -25t-5.5 -23q-11 1 -27 1.5t-33.5 0.5h-34.5h-29zM25 809h283q6 -16 6 -32.5t-6 -32.5h-283q-5 16 -4.5 32.5t4.5 32.5z" />
    <glyph glyph-name="imacron" unicode="&#x12b;" horiz-adv-x="305" 
d="M159 1q-31 0 -62 -1t-59 -1q-3 6 -5 19.5t-2 25.5q21 2 43 7.5t37 10.5q2 14 3 27t1 28v276q-19 5 -39.5 9.5t-39.5 6.5q-3 10 -4 19.5t0 19.5q30 11 76 21t87 14l8 -8q-2 -75 -3 -140.5t-1 -147.5v-50q0 -20 1 -38.5t2 -36.5q20 -2 41 -7t34 -11q0 -11 -1.5 -24.5
t-4.5 -20.5q-10 0 -25.5 0.5t-31.5 1t-31 0.5h-24zM13 632h261q6 -16 6 -33.5t-6 -33.5h-261q-5 16 -4.5 33.5t4.5 33.5z" />
    <glyph glyph-name="Ibreve" unicode="&#x12c;" horiz-adv-x="334" 
d="M167 1q-33 0 -64 -1t-63 -1q-4 12 -6 24t-2 24q22 2 43.5 7t43.5 12q3 14 4 29.5t1 31.5v339q0 44 -1.5 77t-3.5 61q-22 7 -43.5 12t-43.5 7q0 12 2 24t6 24q32 0 63 -1t64 -1h29h34.5t33.5 0.5t27 1.5q4 -11 5.5 -23t0.5 -25q-18 -7 -38.5 -12t-42.5 -7q-2 -28 -3 -61
t-1 -77v-317q0 -22 1 -43t3 -40q22 -2 42.5 -7t38.5 -12q1 -13 -0.5 -25t-5.5 -23q-11 1 -27 1.5t-33.5 0.5h-34.5h-29zM160 735q-32 0 -57.5 10.5t-44 25.5t-31 32.5t-17.5 32.5q4 10 12 17t21 11q21 -22 54 -40t73 -18q43 0 73 18.5t50 39.5q13 -4 21 -11t10 -17
q-19 -37 -60 -69t-104 -32z" />
    <glyph glyph-name="ibreve" unicode="&#x12d;" horiz-adv-x="305" 
d="M159 1q-31 0 -62 -1t-59 -1q-3 6 -5 19.5t-2 25.5q21 2 43 7.5t37 10.5q2 14 3 27t1 28v276q-19 5 -39.5 9.5t-39.5 6.5q-3 10 -4 19.5t0 19.5q30 11 76 21t87 14l8 -8q-2 -75 -3 -140.5t-1 -147.5v-50q0 -20 1 -38.5t2 -36.5q20 -2 41 -7t34 -11q0 -11 -1.5 -24.5
t-4.5 -20.5q-10 0 -25.5 0.5t-31.5 1t-31 0.5h-24zM139 544q-32 0 -57.5 12t-44.5 30t-31.5 38.5t-17.5 36.5q4 10 12 17t21 11q21 -27 54 -49t73 -22q43 0 73 22.5t50 48.5q13 -4 21 -11t10 -17q-5 -16 -19.5 -36t-35.5 -38t-48.5 -30.5t-59.5 -12.5z" />
    <glyph glyph-name="Iogonek" unicode="&#x12e;" horiz-adv-x="334" 
d="M257 -182q-29 -17 -55.5 -25t-53.5 -8q-36 0 -60 21t-24 49q0 37 26 73.5t92 71.5v1q-33 0 -71.5 -1t-70.5 -1q-4 12 -6 24t-2 24q22 2 43.5 7t43.5 12q3 14 4 29.5t1 31.5v339q0 44 -1.5 77t-3.5 61q-22 7 -43.5 12t-43.5 7q0 12 2 24t6 24q32 0 63 -1t64 -1h29h34.5
t33.5 0.5t27 1.5q4 -11 5.5 -23t0.5 -25q-18 -7 -38.5 -12t-42.5 -7q-2 -28 -3 -61t-1 -77v-317q0 -22 1 -43t3 -40q22 -2 42.5 -7t38.5 -12q1 -13 -0.5 -25t-5.5 -23q-11 1 -25.5 1.5t-30.5 0.5q-48 -31 -68.5 -61t-20.5 -53q0 -18 12 -28t28 -10q14 0 27 2.5t31 7.5
q6 -8 9.5 -18t3.5 -23z" />
    <glyph glyph-name="iogonek" unicode="&#x12f;" horiz-adv-x="305" 
d="M255 -181q-29 -17 -55.5 -25t-53.5 -8q-36 0 -60 24t-24 57q0 34 25.5 71t89.5 62v1h-9.5h-8.5q-31 0 -62 -1t-59 -1q-3 6 -5 19.5t-2 25.5q21 2 43 7.5t37 10.5q2 14 3 27t1 28v276q-19 5 -39.5 9.5t-39.5 6.5q-3 10 -4 19.5t0 19.5q30 11 76 21t87 14l8 -8
q-2 -75 -3 -140.5t-1 -147.5v-50q0 -20 1 -38.5t2 -36.5q20 -2 41 -7t34 -11q0 -11 -1.5 -24.5t-4.5 -20.5q-7 0 -17.5 0.5t-21.5 0.5q-49 -29 -68.5 -54.5t-19.5 -49.5q0 -22 12 -34t28 -12q14 0 27 2.5t31 7.5q6 -8 9.5 -18t3.5 -23zM142 561q-20 0 -40 16t-20 38
q0 27 20.5 52.5t48.5 25.5q22 0 41 -16t19 -39q0 -27 -20 -52t-49 -25z" />
    <glyph glyph-name="Idotaccent" unicode="&#x130;" horiz-adv-x="334" 
d="M167 1q-33 0 -64 -1t-63 -1q-4 12 -6 24t-2 24q22 2 43.5 7t43.5 12q3 14 4 29.5t1 31.5v339q0 44 -1.5 77t-3.5 61q-22 7 -43.5 12t-43.5 7q0 12 2 24t6 24q32 0 63 -1t64 -1h29h34.5t33.5 0.5t27 1.5q4 -11 5.5 -23t0.5 -25q-18 -7 -38.5 -12t-42.5 -7q-2 -28 -3 -61
t-1 -77v-317q0 -22 1 -43t3 -40q22 -2 42.5 -7t38.5 -12q1 -13 -0.5 -25t-5.5 -23q-11 1 -27 1.5t-33.5 0.5h-34.5h-29zM164 740q-19 0 -36.5 14t-17.5 35q0 24 18.5 47.5t44.5 23.5q20 0 37 -14t17 -36q0 -25 -18 -47.5t-45 -22.5z" />
    <glyph glyph-name="dotlessi" unicode="&#x131;" horiz-adv-x="305" 
d="M159 1q-31 0 -62 -1t-59 -1q-3 6 -5 19.5t-2 25.5q21 2 43 7.5t37 10.5q2 14 3 27t1 28v276q-19 5 -39.5 9.5t-39.5 6.5q-3 10 -4 19.5t0 19.5q30 11 76 21t87 14l8 -8q-2 -75 -3 -140.5t-1 -147.5v-50q0 -20 1 -38.5t2 -36.5q20 -2 41 -7t34 -11q0 -11 -1.5 -24.5
t-4.5 -20.5q-10 0 -25.5 0.5t-31.5 1t-31 0.5h-24z" />
    <glyph glyph-name="IJ" unicode="&#x132;" horiz-adv-x="640" 
d="M167 1q-33 0 -64 -1t-63 -1q-4 12 -6 24t-2 24q22 2 43.5 7t43.5 12q3 14 4 29.5t1 31.5v339q0 44 -1.5 77t-3.5 61q-22 7 -43.5 12t-43.5 7q0 12 2 24t6 24q32 0 63 -1t64 -1h29h34.5t33.5 0.5t27 1.5q4 -11 5.5 -23t0.5 -25q-18 -7 -38.5 -12t-42.5 -7q-2 -28 -3 -61
t-1 -77v-317q0 -22 1 -43t3 -40q22 -2 42.5 -7t38.5 -12q1 -13 -0.5 -25t-5.5 -23q-11 1 -27 1.5t-33.5 0.5h-34.5h-29zM533 27q0 -119 -61.5 -175t-164.5 -67q-8 8 -12.5 21t-4.5 30q77 29 116 76t39 135v419q0 44 -1.5 77t-3.5 61q-22 7 -43.5 12t-43.5 7q0 12 2 24t6 24
q32 0 63 -1t64 -1h29h34.5t33.5 0.5t27 1.5q4 -11 5.5 -23t0.5 -25q-18 -7 -38.5 -12t-42.5 -7q-2 -28 -3 -61t-1 -77v-439z" />
    <glyph glyph-name="ij" unicode="&#x133;" horiz-adv-x="578" 
d="M159 1q-31 0 -62 -1t-59 -1q-3 6 -5 19.5t-2 25.5q21 2 43 7.5t37 10.5q2 14 3 27t1 28v276q-19 5 -39.5 9.5t-39.5 6.5q-3 10 -4 19.5t0 19.5q30 11 76 21t87 14l8 -8q-2 -75 -3 -140.5t-1 -147.5v-50q0 -20 1 -38.5t2 -36.5q20 -2 41 -7t34 -11q0 -11 -1.5 -24.5
t-4.5 -20.5q-10 0 -25.5 0.5t-31.5 1t-31 0.5h-24zM142 561q-20 0 -40 16t-20 38q0 27 20.5 52.5t48.5 25.5q22 0 41 -16t19 -39q0 -27 -20 -52t-49 -25zM507 638q0 -27 -20 -52t-49 -25q-20 0 -40 16t-20 38q0 27 20.5 52.5t48.5 25.5q22 0 41 -16t19 -39zM492 13
q0 -128 -48.5 -188.5t-119.5 -81.5q-10 5 -15.5 13t-5.5 19q48 37 76.5 96.5t28.5 155.5v366q-19 5 -39.5 9.5t-39.5 6.5q-3 10 -4 19.5t0 19.5q30 11 76 21t87 14l8 -8q-2 -75 -3 -140.5t-1 -147.5v-174z" />
    <glyph glyph-name="Jcircumflex" unicode="&#x134;" horiz-adv-x="306" 
d="M199 27q0 -119 -61.5 -175t-164.5 -67q-8 8 -12.5 21t-4.5 30q77 29 116 76t39 135v419q0 44 -1.5 77t-3.5 61q-22 7 -43.5 12t-43.5 7q0 12 2 24t6 24q32 0 63 -1t64 -1h29h34.5t33.5 0.5t27 1.5q4 -11 5.5 -23t0.5 -25q-18 -7 -38.5 -12t-42.5 -7q-2 -28 -3 -61t-1 -77
v-439zM320 758q-5 -12 -13.5 -22t-19.5 -17l-136 93l-132 -93q-10 6 -16.5 15t-10.5 19l128 134q15 3 31 4.5t32 1.5z" />
    <glyph glyph-name="jcircumflex" unicode="&#x135;" horiz-adv-x="272" 
d="M186 13q0 -128 -48.5 -188.5t-119.5 -81.5q-10 5 -15.5 13t-5.5 19q48 37 76.5 96.5t28.5 155.5v366q-19 5 -39.5 9.5t-39.5 6.5q-3 10 -4 19.5t0 19.5q30 11 76 21t87 14l8 -8q-2 -75 -3 -140.5t-1 -147.5v-174zM243 522l-107 118l-99 -119q-13 3 -22 9t-13 17l100 173
q16 4 33 6t33 1l112 -177q-6 -12 -15.5 -19t-21.5 -9z" />
    <glyph glyph-name="uni0136" unicode="&#x136;" horiz-adv-x="659" 
d="M654 47q0 -12 -1.5 -26.5t-5.5 -21.5q-25 1 -56 1h-59h-36l-218 321l-66 -67v-105q0 -22 1 -43t3 -40q22 -2 42.5 -7t38.5 -12q1 -13 -0.5 -25t-5.5 -23q-11 1 -27 1.5t-33.5 0.5h-34.5h-29q-33 0 -64 -1t-63 -1q-4 12 -6 24t-2 24q22 2 43.5 7t43.5 12q4 22 4.5 47
t0.5 48v305q0 44 -1.5 77t-3.5 61q-22 7 -43.5 12t-43.5 7q0 12 2 24t6 24q32 0 63 -1t64 -1h29h34.5t33.5 0.5t27 1.5q4 -11 5.5 -23t0.5 -25q-18 -7 -38.5 -12t-42.5 -7q-3 -33 -3.5 -74.5t-0.5 -98.5v-89l258 262l-93 18q0 13 2 25t6 24q32 0 61.5 -1t56.5 -1h25.5h33
t34.5 0.5t29 1.5q4 -11 5.5 -23t0.5 -25q-16 -7 -35 -12t-39 -7l-210 -213l220 -325q24 -3 46 -7.5t41 -11.5zM313 -91q11 11 29.5 20.5t37.5 11.5q25 -19 35 -42t10 -45q0 -36 -22 -72.5t-69 -66.5q-8 4 -14 9.5t-8 13.5q20 27 26 50.5t6 42.5t-9 38.5t-22 39.5z" />
    <glyph glyph-name="uni0137" unicode="&#x137;" horiz-adv-x="559" 
d="M558 14q-7 -4 -21.5 -8t-32 -7.5t-36.5 -6t-35 -2.5q-26 0 -51.5 21t-47.5 55t-41.5 77.5t-33.5 87.5l-73 -20v-74q0 -20 1 -38.5t2 -36.5q20 -2 41 -7t34 -11q0 -11 -1.5 -24.5t-4.5 -20.5q-10 0 -25.5 0.5t-31.5 1t-31 0.5h-24q-31 0 -62 -1t-59 -1q-3 6 -5 19.5
t-2 25.5q21 2 43 7t37 10q2 16 3 28.5t1 27.5v559q-19 5 -39.5 9.5t-39.5 6.5q-3 10 -4 19.5t0 19.5q30 11 76 21t87 14l8 -8q-2 -75 -3 -140.5t-1 -147.5v-205q23 8 44 17.5t37 17.5l92 111l-62 15q0 12 2 24.5t5 20.5q24 0 56.5 -1t65.5 -1q18 0 40 0.5t44 1.5
q3 -7 4.5 -20t1.5 -24q-16 -7 -33.5 -12t-33.5 -7l-128 -137q24 -46 55 -98t56 -80q20 -22 37.5 -32.5t45.5 -10.5q7 0 16 1t16 2q7 -7 10 -18t1 -21zM256 -91q11 11 29.5 20.5t37.5 11.5q25 -19 35 -42t10 -45q0 -36 -22 -72.5t-69 -66.5q-8 4 -14 9.5t-8 13.5
q20 27 26 50.5t6 42.5t-9 38.5t-22 39.5z" />
    <glyph glyph-name="kgreenlandic" unicode="&#x138;" horiz-adv-x="572" 
d="M571 14q-7 -4 -21.5 -8t-32 -7.5t-36.5 -6t-35 -2.5q-26 0 -51.5 21t-47.5 55t-41.5 77.5t-33.5 87.5l-73 -20v-12v-12v-50q0 -20 1 -38.5t2 -36.5q20 -2 41 -7t34 -11q0 -11 -1.5 -24.5t-4.5 -20.5q-10 0 -25.5 0.5t-31.5 1t-31 0.5h-24q-31 0 -62 -1t-59 -1
q-3 6 -5 19.5t-2 25.5q21 2 43 7.5t37 10.5q3 21 3.5 42.5t0.5 43.5v245q-19 5 -39.5 9.5t-39.5 6.5q-3 10 -4 19.5t0 19.5q30 11 76 21t87 14l8 -8q-1 -56 -2 -106t-2 -104q23 8 44 17.5t37 17.5l92 111l-62 15q0 12 2 24.5t5 20.5q24 0 56.5 -1t65.5 -1q18 0 40 0.5
t44 1.5q3 -7 4.5 -20t1.5 -24q-16 -7 -33.5 -12t-33.5 -7l-128 -137q24 -46 55 -98t56 -80q20 -22 37.5 -32.5t45.5 -10.5q7 0 16 1t16 2q7 -7 10 -18t1 -21z" />
    <glyph glyph-name="Lacute" unicode="&#x139;" horiz-adv-x="551" 
d="M525 7l-8 -8q-23 1 -53 1.5t-61.5 0.5h-63h-57.5h-115q-33 0 -64 -1t-63 -1q-4 12 -6 24t-2 24q22 2 43.5 7t43.5 12q3 14 4 29.5t1 31.5v339q0 44 -1.5 77t-3.5 61q-22 7 -43.5 12t-43.5 7q0 12 2 24t6 24q35 0 68.5 -1t69.5 -1h31h36.5t36 0.5t28.5 1.5q4 -11 6 -23
t1 -25q-22 -7 -47.5 -12t-53.5 -7q-2 -28 -3 -61t-1 -77v-401h235q10 33 19.5 66.5t16.5 67.5q13 3 26.5 1.5t26.5 -5.5q0 -47 -2.5 -94t-8.5 -94zM96 767l186 130q16 -9 28.5 -23.5t22.5 -33.5l-3 -20l-213 -93q-8 7 -13 18t-8 22z" />
    <glyph glyph-name="lacute" unicode="&#x13a;" horiz-adv-x="288" 
d="M146 1q-31 0 -62 -1t-59 -1q-3 6 -5 19.5t-2 25.5q21 2 43 7t37 10q2 16 3 28.5t1 27.5v559q-19 5 -39.5 9.5t-39.5 6.5q-3 10 -4 19.5t0 19.5q30 11 76 21t87 14l8 -8q-2 -75 -3 -140.5t-1 -147.5v-333q0 -20 1 -38.5t2 -36.5q20 -2 41 -7t34 -11q0 -11 -1.5 -24.5
t-4.5 -20.5q-10 0 -25.5 0.5t-31.5 1t-31 0.5h-24zM56 847l186 130q16 -9 28.5 -23.5t22.5 -33.5l-3 -20l-213 -93q-8 7 -13 18t-8 22z" />
    <glyph glyph-name="uni013B" unicode="&#x13b;" horiz-adv-x="551" 
d="M525 7l-8 -8q-23 1 -53 1.5t-61.5 0.5h-63h-57.5h-115q-33 0 -64 -1t-63 -1q-4 12 -6 24t-2 24q22 2 43.5 7t43.5 12q3 14 4 29.5t1 31.5v339q0 44 -1.5 77t-3.5 61q-22 7 -43.5 12t-43.5 7q0 12 2 24t6 24q35 0 68.5 -1t69.5 -1h31h36.5t36 0.5t28.5 1.5q4 -11 6 -23
t1 -25q-22 -7 -47.5 -12t-53.5 -7q-2 -28 -3 -61t-1 -77v-401h235q10 33 19.5 66.5t16.5 67.5q13 3 26.5 1.5t26.5 -5.5q0 -47 -2.5 -94t-8.5 -94zM237 -91q11 11 29.5 20.5t37.5 11.5q25 -19 35 -42t10 -45q0 -36 -22 -72.5t-69 -66.5q-8 4 -14 9.5t-8 13.5q20 27 26 50.5
t6 42.5t-9 38.5t-22 39.5z" />
    <glyph glyph-name="uni013C" unicode="&#x13c;" horiz-adv-x="288" 
d="M146 1q-31 0 -62 -1t-59 -1q-3 6 -5 19.5t-2 25.5q21 2 43 7t37 10q2 16 3 28.5t1 27.5v559q-19 5 -39.5 9.5t-39.5 6.5q-3 10 -4 19.5t0 19.5q30 11 76 21t87 14l8 -8q-2 -75 -3 -140.5t-1 -147.5v-333q0 -20 1 -38.5t2 -36.5q20 -2 41 -7t34 -11q0 -11 -1.5 -24.5
t-4.5 -20.5q-10 0 -25.5 0.5t-31.5 1t-31 0.5h-24zM92 -91q11 11 29.5 20.5t37.5 11.5q25 -19 35 -42t10 -45q0 -36 -22 -72.5t-69 -66.5q-8 4 -14 9.5t-8 13.5q20 27 26 50.5t6 42.5t-9 38.5t-22 39.5z" />
    <glyph glyph-name="Lcaron" unicode="&#x13d;" horiz-adv-x="551" 
d="M525 7l-8 -8q-23 1 -53 1.5t-61.5 0.5h-63h-57.5h-115q-33 0 -64 -1t-63 -1q-4 12 -6 24t-2 24q22 2 43.5 7t43.5 12q3 14 4 29.5t1 31.5v339q0 44 -1.5 77t-3.5 61q-22 7 -43.5 12t-43.5 7q0 12 2 24t6 24q35 0 68.5 -1t69.5 -1h31h36.5t36 0.5t28.5 1.5q4 -11 6 -23
t1 -25q-22 -7 -47.5 -12t-53.5 -7q-2 -28 -3 -61t-1 -77v-401h235q10 33 19.5 66.5t16.5 67.5q13 3 26.5 1.5t26.5 -5.5q0 -47 -2.5 -94t-8.5 -94zM357 695l8 8q22 3 42.5 -0.5t36.5 -16.5l-47 -210q-10 -1 -21.5 -0.5t-21.5 5.5z" />
    <glyph glyph-name="lcaron" unicode="&#x13e;" horiz-adv-x="368" 
d="M146 1q-31 0 -62 -1t-59 -1q-3 6 -5 19.5t-2 25.5q21 2 43 7t37 10q2 16 3 28.5t1 27.5v559q-19 5 -39.5 9.5t-39.5 6.5q-3 10 -4 19.5t0 19.5q30 11 76 21t87 14l8 -8q-2 -75 -3 -140.5t-1 -147.5v-333q0 -20 1 -38.5t2 -36.5q20 -2 41 -7t34 -11q0 -11 -1.5 -24.5
t-4.5 -20.5q-10 0 -25.5 0.5t-31.5 1t-31 0.5h-24zM255 758l8 8q22 3 42.5 -0.5t36.5 -16.5l-47 -210q-10 -1 -21.5 -0.5t-21.5 5.5z" />
    <glyph glyph-name="Ldot" unicode="&#x13f;" horiz-adv-x="551" 
d="M525 7l-8 -8q-23 1 -53 1.5t-61.5 0.5h-63h-57.5h-115q-33 0 -64 -1t-63 -1q-4 12 -6 24t-2 24q22 2 43.5 7t43.5 12q3 14 4 29.5t1 31.5v339q0 44 -1.5 77t-3.5 61q-22 7 -43.5 12t-43.5 7q0 12 2 24t6 24q35 0 68.5 -1t69.5 -1h31h36.5t36 0.5t28.5 1.5q4 -11 6 -23
t1 -25q-22 -7 -47.5 -12t-53.5 -7q-2 -28 -3 -61t-1 -77v-401h235q10 33 19.5 66.5t16.5 67.5q13 3 26.5 1.5t26.5 -5.5q0 -47 -2.5 -94t-8.5 -94zM437 307q-20 0 -40 16t-20 38q0 27 20.5 52.5t48.5 25.5q22 0 41 -16t19 -39q0 -27 -20 -52t-49 -25z" />
    <glyph glyph-name="ldot" unicode="&#x140;" horiz-adv-x="368" 
d="M146 1q-31 0 -62 -1t-59 -1q-3 6 -5 19.5t-2 25.5q21 2 43 7t37 10q2 16 3 28.5t1 27.5v559q-19 5 -39.5 9.5t-39.5 6.5q-3 10 -4 19.5t0 19.5q30 11 76 21t87 14l8 -8q-2 -75 -3 -140.5t-1 -147.5v-333q0 -20 1 -38.5t2 -36.5q20 -2 41 -7t34 -11q0 -11 -1.5 -24.5
t-4.5 -20.5q-10 0 -25.5 0.5t-31.5 1t-31 0.5h-24zM319 313q-20 0 -40 16t-20 38q0 27 20.5 52.5t48.5 25.5q22 0 41 -16t19 -39q0 -27 -20 -52t-49 -25z" />
    <glyph glyph-name="Lslash" unicode="&#x141;" horiz-adv-x="556" 
d="M530 7l-8 -8q-23 1 -53 1.5t-61.5 0.5h-63h-57.5h-115q-33 0 -64 -1t-63 -1q-4 12 -6 24t-2 24q22 2 43.5 7t43.5 12q3 14 4 29.5t1 31.5v137l-87 -55q-11 9 -19.5 22.5t-13.5 29.5l120 69v136q0 44 -1.5 77t-3.5 61q-22 7 -43.5 12t-43.5 7q0 12 2 24t6 24q35 0 68.5 -1
t69.5 -1h31h36.5t36 0.5t28.5 1.5q4 -11 6 -23t1 -25q-22 -7 -47.5 -12t-53.5 -7q-2 -28 -3 -61t-1 -77v-82l166 106q13 -13 20.5 -26.5t11.5 -26.5l-198 -118v-254h235q10 33 19.5 66.5t16.5 67.5q13 3 26.5 1.5t26.5 -5.5q0 -47 -2.5 -94t-8.5 -94z" />
    <glyph glyph-name="lslash" unicode="&#x142;" horiz-adv-x="308" 
d="M279 44q0 -11 -1.5 -24.5t-4.5 -20.5q-10 0 -25.5 0.5t-31.5 1t-31 0.5h-24q-31 0 -62 -1t-59 -1q-3 6 -5 19.5t-2 25.5q21 2 43 7t37 10q2 16 3 28.5t1 27.5v229l-73 -48q-12 10 -20 24.5t-12 30.5l105 61v262q-19 5 -39.5 9.5t-39.5 6.5q-3 10 -4 19.5t0 19.5
q30 11 76 21t87 14l8 -8q-2 -75 -3 -140.5t-1 -147.5v-2l72 48q13 -13 20.5 -26.5t11.5 -27.5l-104 -63v-262q0 -20 1 -38.5t2 -36.5q20 -2 41 -7t34 -11z" />
    <glyph glyph-name="Nacute" unicode="&#x143;" horiz-adv-x="741" 
d="M634 9q-22 -6 -46 -9.5t-48 -4.5l-315 520l-29 90h-1v-456q0 -22 1 -43t3 -40q22 -2 42.5 -7t38.5 -12q1 -13 -0.5 -25t-5.5 -23q-11 1 -26.5 1.5t-32 0.5h-31.5h-25q-27 0 -57 -1t-62 -1q-4 12 -6 24t-2 24q22 2 43.5 7t43.5 12q3 14 4 29.5t1 31.5v339q0 44 -1.5 77
t-3.5 61q-22 7 -43.5 12t-43.5 7q0 12 2 24t6 24q32 0 62 -1t57 -1q22 0 45 -1t41 -3l290 -481l27 -90h1v372q0 44 -1.5 77t-3.5 61q-22 7 -43.5 12t-43.5 7q0 12 2 24t6 24q32 0 62 -1t57 -1h25h31.5t32 0.5t26.5 1.5q4 -11 5.5 -23t0.5 -25q-18 -7 -38.5 -12t-42.5 -7
q-2 -28 -3 -61t-1 -77v-457zM295 767l186 130q16 -9 28.5 -23.5t22.5 -33.5l-3 -20l-213 -93q-8 7 -13 18t-8 22z" />
    <glyph glyph-name="nacute" unicode="&#x144;" horiz-adv-x="593" 
d="M578 44q0 -11 -1.5 -24.5t-5.5 -20.5q-10 0 -25 0.5t-31.5 1t-31 0.5h-23.5q-31 0 -62 -1t-60 -1q-2 6 -4 19.5t-2 25.5q20 2 42.5 7t37.5 10q2 16 3 28.5t1 27.5v168q0 56 -16 93t-75 37q-31 0 -62.5 -12t-63.5 -34v-232q0 -20 1 -38.5t2 -36.5q20 -2 41 -7t34 -11
q0 -11 -1.5 -24.5t-4.5 -20.5q-10 0 -25.5 0.5t-31.5 1t-31 0.5h-24q-31 0 -62 -1t-59 -1q-3 6 -5 19.5t-2 25.5q21 2 43 7t37 10q2 16 3 28.5t1 27.5v273q-19 6 -39.5 10t-39.5 6q-3 10 -4 20t0 19q28 11 66 21.5t76 14.5l8 -7q2 -9 5.5 -25t6.5 -32q43 31 84 49t84 18
q66 0 102 -38.5t36 -121.5v-187q0 -20 1 -38.5t2 -36.5q19 -2 40.5 -7t34.5 -11zM239 550l110 167q25 7 49.5 9.5t49.5 2.5l8 -23l-179 -184q-13 3 -22 10t-16 18z" />
    <glyph glyph-name="uni0145" unicode="&#x145;" horiz-adv-x="741" 
d="M634 9q-22 -6 -46 -9.5t-48 -4.5l-315 520l-29 90h-1v-456q0 -22 1 -43t3 -40q22 -2 42.5 -7t38.5 -12q1 -13 -0.5 -25t-5.5 -23q-11 1 -26.5 1.5t-32 0.5h-31.5h-25q-27 0 -57 -1t-62 -1q-4 12 -6 24t-2 24q22 2 43.5 7t43.5 12q3 14 4 29.5t1 31.5v339q0 44 -1.5 77
t-3.5 61q-22 7 -43.5 12t-43.5 7q0 12 2 24t6 24q32 0 62 -1t57 -1q22 0 45 -1t41 -3l290 -481l27 -90h1v372q0 44 -1.5 77t-3.5 61q-22 7 -43.5 12t-43.5 7q0 12 2 24t6 24q32 0 62 -1t57 -1h25h31.5t32 0.5t26.5 1.5q4 -11 5.5 -23t0.5 -25q-18 -7 -38.5 -12t-42.5 -7
q-2 -28 -3 -61t-1 -77v-457zM329 -91q11 11 29.5 20.5t37.5 11.5q25 -19 35 -42t10 -45q0 -36 -22 -72.5t-69 -66.5q-8 4 -14 9.5t-8 13.5q20 27 26 50.5t6 42.5t-9 38.5t-22 39.5z" />
    <glyph glyph-name="uni0146" unicode="&#x146;" horiz-adv-x="593" 
d="M578 44q0 -11 -1.5 -24.5t-5.5 -20.5q-10 0 -25 0.5t-31.5 1t-31 0.5h-23.5q-31 0 -62 -1t-60 -1q-2 6 -4 19.5t-2 25.5q20 2 42.5 7t37.5 10q2 16 3 28.5t1 27.5v168q0 56 -16 93t-75 37q-31 0 -62.5 -12t-63.5 -34v-232q0 -20 1 -38.5t2 -36.5q20 -2 41 -7t34 -11
q0 -11 -1.5 -24.5t-4.5 -20.5q-10 0 -25.5 0.5t-31.5 1t-31 0.5h-24q-31 0 -62 -1t-59 -1q-3 6 -5 19.5t-2 25.5q21 2 43 7t37 10q2 16 3 28.5t1 27.5v273q-19 6 -39.5 10t-39.5 6q-3 10 -4 20t0 19q28 11 66 21.5t76 14.5l8 -7q2 -9 5.5 -25t6.5 -32q43 31 84 49t84 18
q66 0 102 -38.5t36 -121.5v-187q0 -20 1 -38.5t2 -36.5q19 -2 40.5 -7t34.5 -11zM253 -91q11 11 29.5 20.5t37.5 11.5q25 -19 35 -42t10 -45q0 -36 -22 -72.5t-69 -66.5q-8 4 -14 9.5t-8 13.5q20 27 26 50.5t6 42.5t-9 38.5t-22 39.5z" />
    <glyph glyph-name="Ncaron" unicode="&#x147;" horiz-adv-x="741" 
d="M634 9q-22 -6 -46 -9.5t-48 -4.5l-315 520l-29 90h-1v-456q0 -22 1 -43t3 -40q22 -2 42.5 -7t38.5 -12q1 -13 -0.5 -25t-5.5 -23q-11 1 -26.5 1.5t-32 0.5h-31.5h-25q-27 0 -57 -1t-62 -1q-4 12 -6 24t-2 24q22 2 43.5 7t43.5 12q3 14 4 29.5t1 31.5v339q0 44 -1.5 77
t-3.5 61q-22 7 -43.5 12t-43.5 7q0 12 2 24t6 24q32 0 62 -1t57 -1q22 0 45 -1t41 -3l290 -481l27 -90h1v372q0 44 -1.5 77t-3.5 61q-22 7 -43.5 12t-43.5 7q0 12 2 24t6 24q32 0 62 -1t57 -1h25h31.5t32 0.5t26.5 1.5q4 -11 5.5 -23t0.5 -25q-18 -7 -38.5 -12t-42.5 -7
q-2 -28 -3 -61t-1 -77v-457zM411 732q-15 -3 -31 -4.5t-32 -1.5l-137 135q5 12 13.5 22t19.5 17l136 -93l132 93q10 -6 16.5 -15t10.5 -19z" />
    <glyph glyph-name="ncaron" unicode="&#x148;" horiz-adv-x="593" 
d="M578 44q0 -11 -1.5 -24.5t-5.5 -20.5q-10 0 -25 0.5t-31.5 1t-31 0.5h-23.5q-31 0 -62 -1t-60 -1q-2 6 -4 19.5t-2 25.5q20 2 42.5 7t37.5 10q2 16 3 28.5t1 27.5v168q0 56 -16 93t-75 37q-31 0 -62.5 -12t-63.5 -34v-232q0 -20 1 -38.5t2 -36.5q20 -2 41 -7t34 -11
q0 -11 -1.5 -24.5t-4.5 -20.5q-10 0 -25.5 0.5t-31.5 1t-31 0.5h-24q-31 0 -62 -1t-59 -1q-3 6 -5 19.5t-2 25.5q21 2 43 7t37 10q2 16 3 28.5t1 27.5v273q-19 6 -39.5 10t-39.5 6q-3 10 -4 20t0 19q28 11 66 21.5t76 14.5l8 -7q2 -9 5.5 -25t6.5 -32q43 31 84 49t84 18
q66 0 102 -38.5t36 -121.5v-187q0 -20 1 -38.5t2 -36.5q19 -2 40.5 -7t34.5 -11zM339 540q-16 -4 -33 -6t-33 -1l-122 177q4 10 13.5 18.5t22.5 12.5l118 -123l111 123q11 -3 19.5 -10.5t13.5 -17.5z" />
    <glyph glyph-name="napostrophe" unicode="&#x149;" horiz-adv-x="593" 
d="M578 44q0 -11 -1.5 -24.5t-5.5 -20.5q-10 0 -25 0.5t-31.5 1t-31 0.5h-23.5q-31 0 -62 -1t-60 -1q-2 6 -4 19.5t-2 25.5q20 2 42.5 7t37.5 10q2 16 3 28.5t1 27.5v168q0 56 -16 93t-75 37q-31 0 -62.5 -12t-63.5 -34v-232q0 -20 1 -38.5t2 -36.5q20 -2 41 -7t34 -11
q0 -11 -1.5 -24.5t-4.5 -20.5q-10 0 -25.5 0.5t-31.5 1t-31 0.5h-24q-31 0 -62 -1t-59 -1q-3 6 -5 19.5t-2 25.5q21 2 43 7t37 10q2 16 3 28.5t1 27.5v273q-19 6 -39.5 10t-39.5 6q-3 10 -4 20t0 19q28 11 66 21.5t76 14.5l8 -7q2 -9 5.5 -25t6.5 -32q43 31 84 49t84 18
q66 0 102 -38.5t36 -121.5v-187q0 -20 1 -38.5t2 -36.5q19 -2 40.5 -7t34.5 -11zM9 660q2 27 20 43t41 16q28 0 45 -18t17 -48q0 -24 -11 -49.5t-29 -48.5t-40 -42t-44 -29q-9 4 -15 10t-7 16q21 20 39 50t18 55q0 15 -7.5 27t-26.5 18z" />
    <glyph glyph-name="Eng" unicode="&#x14a;" horiz-adv-x="741" 
d="M634 45q0 -59 -10 -114.5t-30.5 -98t-53 -68t-77.5 -25.5q-19 0 -39 2.5t-40 10.5q-1 23 3.5 46t19.5 39l9 4q15 -8 31 -12.5t29 -4.5q16 0 33 4.5t27 15.5q7 7 16.5 47.5t10.5 108.5h-26l-312 515l-29 90h-1v-456q0 -22 1 -43t3 -40q22 -2 42.5 -7t38.5 -12
q1 -13 -0.5 -25t-5.5 -23q-11 1 -26.5 1.5t-32 0.5h-31.5h-25q-27 0 -57 -1t-62 -1q-4 12 -6 24t-2 24q22 2 43.5 7t43.5 12q3 14 4 29.5t1 31.5v339q0 44 -1.5 77t-3.5 61q-22 7 -43.5 12t-43.5 7q0 12 2 24t6 24q32 0 62 -1t57 -1q22 0 45 -1t41 -3l290 -481l27 -90h1v372
q0 44 -1.5 77t-3.5 61q-22 7 -43.5 12t-43.5 7q0 12 2 24t6 24q32 0 62 -1t57 -1h25h31.5t32 0.5t26.5 1.5q4 -11 5.5 -23t0.5 -25q-18 -7 -38.5 -12t-42.5 -7q-2 -28 -3 -61t-1 -77v-421z" />
    <glyph glyph-name="eng" unicode="&#x14b;" horiz-adv-x="573" 
d="M500 74q0 -72 -14 -133.5t-39 -106t-61 -70t-80 -25.5q-19 0 -33.5 2.5t-35.5 9.5q1 21 5.5 43t17.5 38l9 4q15 -8 31 -12.5t29 -4.5q16 0 33 4.5t27 16.5t18.5 65.5t8.5 153.5v226q0 56 -16 93t-75 37q-34 0 -68 -14.5t-58 -30.5v-233q0 -20 1 -38.5t2 -36.5
q20 -2 41 -7t34 -11q0 -11 -1.5 -24.5t-4.5 -20.5q-10 0 -25.5 0.5t-31.5 1t-31 0.5h-24q-31 0 -62 -1t-59 -1q-3 6 -5 19.5t-2 25.5q21 2 43 7t37 10q2 16 3 28.5t1 27.5v273q-19 6 -39.5 10t-39.5 6q-3 10 -4 20t0 19q28 11 66 21.5t76 14.5l8 -7q3 -9 6.5 -25.5
t6.5 -33.5q34 28 77 48.5t90 20.5q66 0 102 -38.5t36 -121.5v-250z" />
    <glyph glyph-name="Omacron" unicode="&#x14c;" horiz-adv-x="690" 
d="M645 347q0 -65 -21.5 -130.5t-61.5 -117.5t-97.5 -84.5t-128.5 -32.5t-125.5 26.5t-91 72.5t-55.5 108.5t-19 133.5q0 65 21.5 130t61.5 117t97.5 85t128.5 33q70 0 124.5 -26.5t91.5 -72t56 -108t19 -134.5zM136 366q0 -62 13 -118.5t40.5 -99.5t71 -68.5t103.5 -25.5
q12 0 27.5 2.5t31.5 7t29.5 11t20.5 13.5q28 27 54.5 82t26.5 134q0 62 -13 118.5t-40.5 99.5t-71 68.5t-103.5 25.5q-12 0 -27.5 -2.5t-31.5 -7t-29.5 -11t-20.5 -13.5q-28 -27 -54.5 -82t-26.5 -134zM211 809h283q6 -16 6 -32.5t-6 -32.5h-283q-5 16 -4.5 32.5t4.5 32.5z
" />
    <glyph glyph-name="omacron" unicode="&#x14d;" horiz-adv-x="513" 
d="M473 243q0 -45 -15 -91t-43.5 -83t-70 -60t-93.5 -23q-53 0 -93 18t-66 50t-39 76.5t-13 96.5q0 45 15 91t43.5 83t70 60t93.5 23q54 0 94 -18.5t66 -50.5t38.5 -76.5t12.5 -95.5zM125 255q0 -32 7.5 -67.5t24.5 -65.5t44.5 -49.5t67.5 -19.5q16 0 38 5t31 14
q21 22 35.5 60t14.5 83q0 32 -7.5 67.5t-24.5 65.5t-44.5 49.5t-67.5 19.5q-16 0 -38 -5t-31 -14q-21 -22 -35.5 -60t-14.5 -83zM116 632h275q6 -16 6 -33.5t-6 -33.5h-275q-5 16 -4.5 33.5t4.5 33.5z" />
    <glyph glyph-name="Obreve" unicode="&#x14e;" horiz-adv-x="690" 
d="M645 347q0 -65 -21.5 -130.5t-61.5 -117.5t-97.5 -84.5t-128.5 -32.5t-125.5 26.5t-91 72.5t-55.5 108.5t-19 133.5q0 65 21.5 130t61.5 117t97.5 85t128.5 33q70 0 124.5 -26.5t91.5 -72t56 -108t19 -134.5zM136 366q0 -62 13 -118.5t40.5 -99.5t71 -68.5t103.5 -25.5
q12 0 27.5 2.5t31.5 7t29.5 11t20.5 13.5q28 27 54.5 82t26.5 134q0 62 -13 118.5t-40.5 99.5t-71 68.5t-103.5 25.5q-12 0 -27.5 -2.5t-31.5 -7t-29.5 -11t-20.5 -13.5q-28 -27 -54.5 -82t-26.5 -134zM346 735q-32 0 -57.5 10.5t-44 25.5t-31 32.5t-17.5 32.5q4 10 12 17
t21 11q21 -22 54 -40t73 -18q43 0 73 18.5t50 39.5q13 -4 21 -11t10 -17q-19 -37 -60 -69t-104 -32z" />
    <glyph glyph-name="obreve" unicode="&#x14f;" horiz-adv-x="513" 
d="M473 243q0 -45 -15 -91t-43.5 -83t-70 -60t-93.5 -23q-53 0 -93 18t-66 50t-39 76.5t-13 96.5q0 45 15 91t43.5 83t70 60t93.5 23q54 0 94 -18.5t66 -50.5t38.5 -76.5t12.5 -95.5zM125 255q0 -32 7.5 -67.5t24.5 -65.5t44.5 -49.5t67.5 -19.5q16 0 38 5t31 14
q21 22 35.5 60t14.5 83q0 32 -7.5 67.5t-24.5 65.5t-44.5 49.5t-67.5 19.5q-16 0 -38 -5t-31 -14q-21 -22 -35.5 -60t-14.5 -83zM248 544q-32 0 -57.5 12t-44.5 30t-31.5 38.5t-17.5 36.5q4 10 12 17t21 11q21 -27 54 -49t73 -22q43 0 73 22.5t50 48.5q13 -4 21 -11t10 -17
q-5 -16 -19.5 -36t-35.5 -38t-48.5 -30.5t-59.5 -12.5z" />
    <glyph glyph-name="Ohungarumlaut" unicode="&#x150;" horiz-adv-x="690" 
d="M645 347q0 -65 -21.5 -130.5t-61.5 -117.5t-97.5 -84.5t-128.5 -32.5t-125.5 26.5t-91 72.5t-55.5 108.5t-19 133.5q0 65 21.5 130t61.5 117t97.5 85t128.5 33q70 0 124.5 -26.5t91.5 -72t56 -108t19 -134.5zM136 366q0 -62 13 -118.5t40.5 -99.5t71 -68.5t103.5 -25.5
q12 0 27.5 2.5t31.5 7t29.5 11t20.5 13.5q28 27 54.5 82t26.5 134q0 62 -13 118.5t-40.5 99.5t-71 68.5t-103.5 25.5q-12 0 -27.5 -2.5t-31.5 -7t-29.5 -11t-20.5 -13.5q-28 -27 -54.5 -82t-26.5 -134zM395 908l6 -23l-112 -162q-13 2 -22.5 7.5t-16.5 13.5l65 150
q20 7 40.5 10.5t39.5 3.5zM551 908l6 -23l-112 -162q-13 2 -22.5 7.5t-16.5 13.5l65 150q20 7 40.5 10.5t39.5 3.5z" />
    <glyph glyph-name="ohungarumlaut" unicode="&#x151;" horiz-adv-x="513" 
d="M473 243q0 -45 -15 -91t-43.5 -83t-70 -60t-93.5 -23q-53 0 -93 18t-66 50t-39 76.5t-13 96.5q0 45 15 91t43.5 83t70 60t93.5 23q54 0 94 -18.5t66 -50.5t38.5 -76.5t12.5 -95.5zM125 255q0 -32 7.5 -67.5t24.5 -65.5t44.5 -49.5t67.5 -19.5q16 0 38 5t31 14
q21 22 35.5 60t14.5 83q0 32 -7.5 67.5t-24.5 65.5t-44.5 49.5t-67.5 19.5q-16 0 -38 -5t-31 -14q-21 -22 -35.5 -60t-14.5 -83zM431 741l5 -18l-103 -185q-13 1 -24 5.5t-18 11.5l54 165q20 10 40.5 15.5t45.5 5.5zM288 741l5 -18l-103 -185q-13 1 -23.5 5.5t-17.5 11.5
l54 165q19 10 39.5 15.5t45.5 5.5z" />
    <glyph glyph-name="OE" unicode="&#x152;" horiz-adv-x="919" 
d="M619 1h-144q-34 -5 -70.5 -9t-68.5 -4q-71 0 -125.5 26t-91 71t-55.5 106.5t-19 131.5q0 63 21.5 127.5t61.5 115.5t97.5 83.5t128.5 32.5q35 0 71 -4t61 -9h121h57.5h63t61 0.5t52.5 1.5l8 -8q1 -42 -1 -84t-8 -84q-16 -4 -29 -4t-24 4q-1 28 -5 56t-11 54h-218v-228
l200 4l8 -8q-1 -17 -3.5 -33.5t-6.5 -29.5l-198 4v-249h230q10 30 19.5 60.5t16.5 61.5q13 3 26.5 1.5t26.5 -5.5q0 -44 -2.5 -88t-8.5 -88l-8 -8q-23 1 -52.5 1.5t-61 0.5h-63h-57.5zM136 365q0 -60 13 -115.5t40.5 -97.5t71 -67t103.5 -25q25 0 51.5 2.5t53.5 6.5v535
q-28 2 -59 4t-64 2q-37 0 -76 -10t-53 -23q-28 -27 -54.5 -80.5t-26.5 -131.5z" />
    <glyph glyph-name="oe" unicode="&#x153;" horiz-adv-x="829" 
d="M785 58q-34 -23 -89 -47.5t-104 -24.5q-63 0 -105.5 26t-65.5 69q-28 -40 -71.5 -67.5t-98.5 -27.5q-53 0 -93 18t-66 50t-39 76.5t-13 96.5q0 45 15 91t43.5 83t70 60t93.5 23q63 0 107 -27t69 -70q28 43 71.5 70t95.5 27q51 0 85.5 -16t55 -41t29 -57.5t8.5 -64.5
q0 -17 -1.5 -34.5t-3.5 -27.5l-8 -8q-31 1 -78 1.5t-103 0.5h-116q2 -30 9.5 -62t23.5 -58t41 -42.5t62 -16.5q35 0 73.5 9t85.5 27q9 -7 12.5 -16t4.5 -20zM591 419q-53 0 -81.5 -36.5t-34.5 -93.5h98q40 0 71.5 1.5t50.5 2.5q0 48 -19 87t-85 39zM125 255q0 -32 7.5 -67.5
t24.5 -65.5t44.5 -49.5t67.5 -19.5q61 0 90 46.5t29 115.5q0 32 -7.5 67.5t-24.5 65.5t-44.5 49.5t-67.5 19.5q-61 0 -90 -46.5t-29 -115.5z" />
    <glyph glyph-name="Racute" unicode="&#x154;" horiz-adv-x="617" 
d="M605 47q0 -12 -1.5 -26.5t-5.5 -21.5q-25 1 -54.5 1h-57.5h-37l-138 282q-22 0 -48 1.5t-51 5.5v-140q0 -22 1 -43t3 -40q22 -2 42.5 -7t38.5 -12q1 -13 -0.5 -25t-5.5 -23q-11 1 -27 1.5t-33.5 0.5h-34.5h-29q-33 0 -64 -1t-63 -1q-4 12 -6 24t-2 24q22 2 43.5 7
t43.5 12q4 24 4.5 51t0.5 52v297q0 44 -1.5 77t-3.5 61q-22 7 -43.5 12t-43.5 7q0 12 2 24t6 24q32 0 63 -1t64 -1q53 0 102 2t85 2q52 0 87 -15t56 -38.5t30 -53t9 -58.5t-9.5 -59.5t-27 -58t-42 -50.5t-55.5 -38l116 -236q24 -3 46 -7.5t41 -11.5zM327 608q-25 0 -57.5 -1
t-57.5 -2v-249q22 -2 43 -3t43 -1q35 0 67 10t36 13q21 16 32 42.5t11 57.5q0 60 -31.5 96.5t-85.5 36.5zM215 767l186 130q16 -9 28.5 -23.5t22.5 -33.5l-3 -20l-213 -93q-8 7 -13 18t-8 22z" />
    <glyph glyph-name="racute" unicode="&#x155;" horiz-adv-x="431" 
d="M320 44q0 -11 -1.5 -24.5t-4.5 -20.5q-14 0 -35.5 0.5t-43.5 1t-43 0.5h-33q-31 0 -62 -1t-59 -1q-3 6 -5 19.5t-2 25.5q21 2 43 7t37 10q2 16 3 28.5t1 27.5v273q-19 6 -39.5 10t-39.5 6q-3 10 -4 20t0 19q28 11 66 21.5t76 14.5l8 -7q4 -13 9.5 -40.5t7.5 -46.5
q23 37 58 65.5t81 28.5q22 0 43.5 -3.5t37.5 -9.5q0 -53 -4 -91t-14 -81q-13 -4 -26 -4t-26 4q-1 25 -4.5 57t-7.5 54q-5 1 -11.5 1.5t-14.5 0.5q-28 0 -54.5 -14.5t-57.5 -63.5v-194q0 -20 1 -38.5t2 -36.5q33 -2 66 -7t52 -11zM183 550l110 167q25 7 49.5 9.5t49.5 2.5
l8 -23l-179 -184q-13 3 -22 10t-16 18z" />
    <glyph glyph-name="uni0156" unicode="&#x156;" horiz-adv-x="617" 
d="M605 47q0 -12 -1.5 -26.5t-5.5 -21.5q-25 1 -54.5 1h-57.5h-37l-138 282q-22 0 -48 1.5t-51 5.5v-140q0 -22 1 -43t3 -40q22 -2 42.5 -7t38.5 -12q1 -13 -0.5 -25t-5.5 -23q-11 1 -27 1.5t-33.5 0.5h-34.5h-29q-33 0 -64 -1t-63 -1q-4 12 -6 24t-2 24q22 2 43.5 7
t43.5 12q4 24 4.5 51t0.5 52v297q0 44 -1.5 77t-3.5 61q-22 7 -43.5 12t-43.5 7q0 12 2 24t6 24q32 0 63 -1t64 -1q53 0 102 2t85 2q52 0 87 -15t56 -38.5t30 -53t9 -58.5t-9.5 -59.5t-27 -58t-42 -50.5t-55.5 -38l116 -236q24 -3 46 -7.5t41 -11.5zM327 608q-25 0 -57.5 -1
t-57.5 -2v-249q22 -2 43 -3t43 -1q35 0 67 10t36 13q21 16 32 42.5t11 57.5q0 60 -31.5 96.5t-85.5 36.5zM288 -91q11 11 29.5 20.5t37.5 11.5q25 -19 35 -42t10 -45q0 -36 -22 -72.5t-69 -66.5q-8 4 -14 9.5t-8 13.5q20 27 26 50.5t6 42.5t-9 38.5t-22 39.5z" />
    <glyph glyph-name="uni0157" unicode="&#x157;" horiz-adv-x="431" 
d="M320 44q0 -11 -1.5 -24.5t-4.5 -20.5q-14 0 -35.5 0.5t-43.5 1t-43 0.5h-33q-31 0 -62 -1t-59 -1q-3 6 -5 19.5t-2 25.5q21 2 43 7t37 10q2 16 3 28.5t1 27.5v273q-19 6 -39.5 10t-39.5 6q-3 10 -4 20t0 19q28 11 66 21.5t76 14.5l8 -7q4 -13 9.5 -40.5t7.5 -46.5
q23 37 58 65.5t81 28.5q22 0 43.5 -3.5t37.5 -9.5q0 -53 -4 -91t-14 -81q-13 -4 -26 -4t-26 4q-1 25 -4.5 57t-7.5 54q-5 1 -11.5 1.5t-14.5 0.5q-28 0 -54.5 -14.5t-57.5 -63.5v-194q0 -20 1 -38.5t2 -36.5q33 -2 66 -7t52 -11zM114 -91q11 11 29.5 20.5t37.5 11.5
q25 -19 35 -42t10 -45q0 -36 -22 -72.5t-69 -66.5q-8 4 -14 9.5t-8 13.5q20 27 26 50.5t6 42.5t-9 38.5t-22 39.5z" />
    <glyph glyph-name="Rcaron" unicode="&#x158;" horiz-adv-x="617" 
d="M605 47q0 -12 -1.5 -26.5t-5.5 -21.5q-25 1 -54.5 1h-57.5h-37l-138 282q-22 0 -48 1.5t-51 5.5v-140q0 -22 1 -43t3 -40q22 -2 42.5 -7t38.5 -12q1 -13 -0.5 -25t-5.5 -23q-11 1 -27 1.5t-33.5 0.5h-34.5h-29q-33 0 -64 -1t-63 -1q-4 12 -6 24t-2 24q22 2 43.5 7
t43.5 12q4 24 4.5 51t0.5 52v297q0 44 -1.5 77t-3.5 61q-22 7 -43.5 12t-43.5 7q0 12 2 24t6 24q32 0 63 -1t64 -1q53 0 102 2t85 2q52 0 87 -15t56 -38.5t30 -53t9 -58.5t-9.5 -59.5t-27 -58t-42 -50.5t-55.5 -38l116 -236q24 -3 46 -7.5t41 -11.5zM327 608q-25 0 -57.5 -1
t-57.5 -2v-249q22 -2 43 -3t43 -1q35 0 67 10t36 13q21 16 32 42.5t11 57.5q0 60 -31.5 96.5t-85.5 36.5zM331 732q-15 -3 -31 -4.5t-32 -1.5l-137 135q5 12 13.5 22t19.5 17l136 -93l132 93q10 -6 16.5 -15t10.5 -19z" />
    <glyph glyph-name="rcaron" unicode="&#x159;" horiz-adv-x="431" 
d="M320 44q0 -11 -1.5 -24.5t-4.5 -20.5q-14 0 -35.5 0.5t-43.5 1t-43 0.5h-33q-31 0 -62 -1t-59 -1q-3 6 -5 19.5t-2 25.5q21 2 43 7t37 10q2 16 3 28.5t1 27.5v273q-19 6 -39.5 10t-39.5 6q-3 10 -4 20t0 19q28 11 66 21.5t76 14.5l8 -7q4 -13 9.5 -40.5t7.5 -46.5
q23 37 58 65.5t81 28.5q22 0 43.5 -3.5t37.5 -9.5q0 -53 -4 -91t-14 -81q-13 -4 -26 -4t-26 4q-1 25 -4.5 57t-7.5 54q-5 1 -11.5 1.5t-14.5 0.5q-28 0 -54.5 -14.5t-57.5 -63.5v-194q0 -20 1 -38.5t2 -36.5q33 -2 66 -7t52 -11zM283 540q-16 -4 -33 -6t-33 -1l-122 177
q4 10 13.5 18.5t22.5 12.5l118 -123l111 123q11 -3 19.5 -10.5t13.5 -17.5z" />
    <glyph glyph-name="Sacute" unicode="&#x15a;" horiz-adv-x="544" 
d="M497 210q0 -47 -16 -88t-45.5 -71.5t-72 -48t-95.5 -17.5q-65 0 -124 12t-96 32q1 44 7.5 86.5t16.5 85.5q14 4 27 2t26 -6q1 -28 4.5 -58.5t9.5 -63.5q27 -9 59.5 -13.5t75.5 -4.5q36 0 64 10.5t32 14.5q17 16 25.5 41.5t8.5 60.5q0 39 -31 67t-69 42l-73 28
q-28 10 -58 24.5t-55 35t-41 48.5t-16 66q0 52 21 88.5t53.5 59t73 32.5t78.5 10q45 0 98 -9.5t95 -25.5q-1 -41 -6.5 -79t-15.5 -73q-15 -4 -28.5 -3t-23.5 7q-2 25 -5.5 49.5t-9.5 48.5q-25 7 -54.5 10t-60.5 3q-35 0 -63 -6t-32 -10q-13 -11 -21 -28t-8 -43
q0 -22 9.5 -40t24.5 -32t33.5 -24.5t36.5 -16.5l86 -31q28 -10 56 -25t50 -36t35.5 -48.5t13.5 -62.5zM201 767l186 130q16 -9 28.5 -23.5t22.5 -33.5l-3 -20l-213 -93q-8 7 -13 18t-8 22z" />
    <glyph glyph-name="sacute" unicode="&#x15b;" horiz-adv-x="424" 
d="M383 139q0 -36 -14.5 -64t-39.5 -47t-59 -29t-72 -10q-48 0 -89 8t-66 19q0 37 4.5 73t13.5 73q12 5 23.5 5t23.5 -5q1 -25 3.5 -50t6.5 -50q13 -7 39.5 -10.5t51.5 -3.5q48 0 68 15t20 59q0 25 -15 41.5t-37 28.5q-28 15 -61 26t-61.5 26.5t-48 39.5t-19.5 64
q0 37 16 63t41 41t56 22t61 7q40 0 77 -5t66 -14q0 -34 -5.5 -66t-12.5 -57q-13 -4 -26.5 -3t-24.5 5q-1 19 -5 38.5t-8 38.5q-12 4 -28.5 7t-35.5 3q-60 0 -73.5 -16.5t-13.5 -42.5q0 -38 38 -56t84 -36.5t84 -48t38 -89.5zM149 550l110 167q25 7 49.5 9.5t49.5 2.5l8 -23
l-179 -184q-13 3 -22 10t-16 18z" />
    <glyph glyph-name="Scircumflex" unicode="&#x15c;" horiz-adv-x="544" 
d="M497 210q0 -47 -16 -88t-45.5 -71.5t-72 -48t-95.5 -17.5q-65 0 -124 12t-96 32q1 44 7.5 86.5t16.5 85.5q14 4 27 2t26 -6q1 -28 4.5 -58.5t9.5 -63.5q27 -9 59.5 -13.5t75.5 -4.5q36 0 64 10.5t32 14.5q17 16 25.5 41.5t8.5 60.5q0 39 -31 67t-69 42l-73 28
q-28 10 -58 24.5t-55 35t-41 48.5t-16 66q0 52 21 88.5t53.5 59t73 32.5t78.5 10q45 0 98 -9.5t95 -25.5q-1 -41 -6.5 -79t-15.5 -73q-15 -4 -28.5 -3t-23.5 7q-2 25 -5.5 49.5t-9.5 48.5q-25 7 -54.5 10t-60.5 3q-35 0 -63 -6t-32 -10q-13 -11 -21 -28t-8 -43
q0 -22 9.5 -40t24.5 -32t33.5 -24.5t36.5 -16.5l86 -31q28 -10 56 -25t50 -36t35.5 -48.5t13.5 -62.5zM446 758q-5 -12 -13.5 -22t-19.5 -17l-136 93l-132 -93q-10 6 -16.5 15t-10.5 19l128 134q15 3 31 4.5t32 1.5z" />
    <glyph glyph-name="scircumflex" unicode="&#x15d;" horiz-adv-x="424" 
d="M383 139q0 -36 -14.5 -64t-39.5 -47t-59 -29t-72 -10q-48 0 -89 8t-66 19q0 37 4.5 73t13.5 73q12 5 23.5 5t23.5 -5q1 -25 3.5 -50t6.5 -50q13 -7 39.5 -10.5t51.5 -3.5q48 0 68 15t20 59q0 25 -15 41.5t-37 28.5q-28 15 -61 26t-61.5 26.5t-48 39.5t-19.5 64
q0 37 16 63t41 41t56 22t61 7q40 0 77 -5t66 -14q0 -34 -5.5 -66t-12.5 -57q-13 -4 -26.5 -3t-24.5 5q-1 19 -5 38.5t-8 38.5q-12 4 -28.5 7t-35.5 3q-60 0 -73.5 -16.5t-13.5 -42.5q0 -38 38 -56t84 -36.5t84 -48t38 -89.5zM362 550q-4 -10 -13.5 -18.5t-22.5 -12.5
l-118 123l-111 -123q-11 3 -19.5 10.5t-13.5 17.5l110 173q16 4 33 6t33 1z" />
    <glyph glyph-name="uni015E" unicode="&#x15e;" horiz-adv-x="544" 
d="M497 210q0 -47 -16 -88t-45.5 -71.5t-72 -48t-95.5 -17.5q-65 0 -124 12t-96 32q1 44 7.5 86.5t16.5 85.5q14 4 27 2t26 -6q1 -28 4.5 -58.5t9.5 -63.5q27 -9 59.5 -13.5t75.5 -4.5q36 0 64 10.5t32 14.5q17 16 25.5 41.5t8.5 60.5q0 39 -31 67t-69 42l-73 28
q-28 10 -58 24.5t-55 35t-41 48.5t-16 66q0 52 21 88.5t53.5 59t73 32.5t78.5 10q45 0 98 -9.5t95 -25.5q-1 -41 -6.5 -79t-15.5 -73q-15 -4 -28.5 -3t-23.5 7q-2 25 -5.5 49.5t-9.5 48.5q-25 7 -54.5 10t-60.5 3q-35 0 -63 -6t-32 -10q-13 -11 -21 -28t-8 -43
q0 -22 9.5 -40t24.5 -32t33.5 -24.5t36.5 -16.5l86 -31q28 -10 56 -25t50 -36t35.5 -48.5t13.5 -62.5zM364 -120q0 -22 -13.5 -44t-36.5 -40.5t-54 -32t-65 -19.5q-6 5 -8.5 12t-2.5 17q13 6 30 15t32 20.5t25.5 26.5t10.5 31q0 19 -18.5 32.5t-55.5 11.5l-8 8l51 102h42
l-28 -63q49 -2 74 -23t25 -54z" />
    <glyph glyph-name="uni015F" unicode="&#x15f;" horiz-adv-x="424" 
d="M383 139q0 -36 -14.5 -64t-39.5 -47t-59 -29t-72 -10q-48 0 -89 8t-66 19q0 37 4.5 73t13.5 73q12 5 23.5 5t23.5 -5q1 -25 3.5 -50t6.5 -50q13 -7 39.5 -10.5t51.5 -3.5q48 0 68 15t20 59q0 25 -15 41.5t-37 28.5q-28 15 -61 26t-61.5 26.5t-48 39.5t-19.5 64
q0 37 16 63t41 41t56 22t61 7q40 0 77 -5t66 -14q0 -34 -5.5 -66t-12.5 -57q-13 -4 -26.5 -3t-24.5 5q-1 19 -5 38.5t-8 38.5q-12 4 -28.5 7t-35.5 3q-60 0 -73.5 -16.5t-13.5 -42.5q0 -38 38 -56t84 -36.5t84 -48t38 -89.5zM303 -120q0 -22 -13.5 -44t-36.5 -40.5t-54 -32
t-65 -19.5q-6 5 -8.5 12t-2.5 17q13 6 30 15t32 20.5t25.5 26.5t10.5 31q0 19 -18.5 32.5t-55.5 11.5l-8 8l51 102h42l-28 -63q49 -2 74 -23t25 -54z" />
    <glyph glyph-name="Scaron" unicode="&#x160;" horiz-adv-x="544" 
d="M497 210q0 -47 -16 -88t-45.5 -71.5t-72 -48t-95.5 -17.5q-65 0 -124 12t-96 32q1 44 7.5 86.5t16.5 85.5q14 4 27 2t26 -6q1 -28 4.5 -58.5t9.5 -63.5q27 -9 59.5 -13.5t75.5 -4.5q36 0 64 10.5t32 14.5q17 16 25.5 41.5t8.5 60.5q0 39 -31 67t-69 42l-73 28
q-28 10 -58 24.5t-55 35t-41 48.5t-16 66q0 52 21 88.5t53.5 59t73 32.5t78.5 10q45 0 98 -9.5t95 -25.5q-1 -41 -6.5 -79t-15.5 -73q-15 -4 -28.5 -3t-23.5 7q-2 25 -5.5 49.5t-9.5 48.5q-25 7 -54.5 10t-60.5 3q-35 0 -63 -6t-32 -10q-13 -11 -21 -28t-8 -43
q0 -22 9.5 -40t24.5 -32t33.5 -24.5t36.5 -16.5l86 -31q28 -10 56 -25t50 -36t35.5 -48.5t13.5 -62.5zM317 732q-15 -3 -31 -4.5t-32 -1.5l-137 135q5 12 13.5 22t19.5 17l136 -93l132 93q10 -6 16.5 -15t10.5 -19z" />
    <glyph glyph-name="scaron" unicode="&#x161;" horiz-adv-x="424" 
d="M383 139q0 -36 -14.5 -64t-39.5 -47t-59 -29t-72 -10q-48 0 -89 8t-66 19q0 37 4.5 73t13.5 73q12 5 23.5 5t23.5 -5q1 -25 3.5 -50t6.5 -50q13 -7 39.5 -10.5t51.5 -3.5q48 0 68 15t20 59q0 25 -15 41.5t-37 28.5q-28 15 -61 26t-61.5 26.5t-48 39.5t-19.5 64
q0 37 16 63t41 41t56 22t61 7q40 0 77 -5t66 -14q0 -34 -5.5 -66t-12.5 -57q-13 -4 -26.5 -3t-24.5 5q-1 19 -5 38.5t-8 38.5q-12 4 -28.5 7t-35.5 3q-60 0 -73.5 -16.5t-13.5 -42.5q0 -38 38 -56t84 -36.5t84 -48t38 -89.5zM249 540q-16 -4 -33 -6t-33 -1l-122 177
q4 10 13.5 18.5t22.5 12.5l118 -123l111 123q11 -3 19.5 -10.5t13.5 -17.5z" />
    <glyph glyph-name="uni0162" unicode="&#x162;" horiz-adv-x="606" 
d="M452 47q1 -13 -1 -25t-6 -23q-12 1 -31 1.5t-39 0.5h-39.5h-33.5q-38 0 -73.5 -1t-72.5 -1q-5 12 -7 24t-2 24q27 2 53.5 7t53.5 12q3 14 4 29.5t1 31.5v478h-165q-7 -30 -11 -61t-5 -61q-13 -4 -26.5 -4.5t-26.5 4.5q-6 43 -8 88.5t-1 91.5l8 8q23 -1 53 -1.5t61.5 -0.5
h63h57.5h88h57.5h63t61.5 0.5t53 1.5l8 -8q1 -45 -1 -90t-8 -90q-16 -4 -29 -4t-24 4q-1 31 -5 62t-11 60h-165v-456q0 -22 1 -43t3 -40q28 -2 53.5 -7t47.5 -12zM404 -120q0 -22 -13.5 -44t-36.5 -40.5t-54 -32t-65 -19.5q-6 5 -8.5 12t-2.5 17q13 6 30 15t32 20.5
t25.5 26.5t10.5 31q0 19 -18.5 32.5t-55.5 11.5l-8 8l51 102h42l-28 -63q49 -2 74 -23t25 -54z" />
    <glyph glyph-name="uni0163" unicode="&#x163;" horiz-adv-x="349" 
d="M345 33q-30 -18 -71 -32.5t-84 -14.5q-51 0 -71.5 37t-20.5 106v280q-14 3 -35 7t-40 6q-3 10 -3 20t1 20q18 4 38 7.5t39 4.5l33 136q12 1 24.5 0t26.5 -6v-132l156 -2q0 -16 -1 -31t-3 -30h-152v-242q0 -54 11.5 -82t35.5 -28q26 0 49 5.5t50 15.5q8 -8 12.5 -19.5
t4.5 -25.5zM281 -120q0 -22 -13.5 -44t-36.5 -40.5t-54 -32t-65 -19.5q-6 5 -8.5 12t-2.5 17q13 6 30 15t32 20.5t25.5 26.5t10.5 31q0 19 -18.5 32.5t-55.5 11.5l-8 8l51 102h42l-28 -63q49 -2 74 -23t25 -54z" />
    <glyph glyph-name="Tcaron" unicode="&#x164;" horiz-adv-x="606" 
d="M452 47q1 -13 -1 -25t-6 -23q-12 1 -31 1.5t-39 0.5h-39.5h-33.5q-38 0 -73.5 -1t-72.5 -1q-5 12 -7 24t-2 24q27 2 53.5 7t53.5 12q3 14 4 29.5t1 31.5v478h-165q-7 -30 -11 -61t-5 -61q-13 -4 -26.5 -4.5t-26.5 4.5q-6 43 -8 88.5t-1 91.5l8 8q23 -1 53 -1.5t61.5 -0.5
h63h57.5h88h57.5h63t61.5 0.5t53 1.5l8 -8q1 -45 -1 -90t-8 -90q-16 -4 -29 -4t-24 4q-1 31 -5 62t-11 60h-165v-456q0 -22 1 -43t3 -40q28 -2 53.5 -7t47.5 -12zM339 732q-15 -3 -31 -4.5t-32 -1.5l-137 135q5 12 13.5 22t19.5 17l136 -93l132 93q10 -6 16.5 -15t10.5 -19z
" />
    <glyph glyph-name="tcaron" unicode="&#x165;" horiz-adv-x="349" 
d="M345 33q-30 -18 -71 -32.5t-84 -14.5q-51 0 -71.5 37t-20.5 106v280q-14 3 -35 7t-40 6q-3 10 -3 20t1 20q18 4 38 7.5t39 4.5l33 136q12 1 24.5 0t26.5 -6v-132l156 -2q0 -16 -1 -31t-3 -30h-152v-242q0 -54 11.5 -82t35.5 -28q26 0 49 5.5t50 15.5q8 -8 12.5 -19.5
t4.5 -25.5zM235 758l8 8q22 3 42.5 -0.5t36.5 -16.5l-47 -210q-10 -1 -21.5 -0.5t-21.5 5.5z" />
    <glyph glyph-name="Tbar" unicode="&#x166;" horiz-adv-x="606" 
d="M452 47q1 -13 -1 -25t-6 -23q-12 1 -31 1.5t-39 0.5h-39.5h-33.5q-38 0 -73.5 -1t-72.5 -1q-5 12 -7 24t-2 24q27 2 53.5 7t53.5 12q3 14 4 29.5t1 31.5v181h-110q-3 16 -3.5 32.5t3.5 33.5h110v231h-165q-7 -30 -11 -61t-5 -61q-13 -4 -26.5 -4.5t-26.5 4.5
q-6 43 -8 88.5t-1 91.5l8 8q23 -1 53 -1.5t61.5 -0.5h63h57.5h88h57.5h63t61.5 0.5t53 1.5l8 -8q1 -45 -1 -90t-8 -90q-16 -4 -29 -4t-24 4q-1 31 -5 62t-11 60h-165v-231h111q3 -17 3 -33t-3 -33h-111v-159q0 -22 1 -43t3 -40q28 -2 53.5 -7t47.5 -12z" />
    <glyph glyph-name="tbar" unicode="&#x167;" horiz-adv-x="359" 
d="M350 33q-30 -18 -71 -32.5t-84 -14.5q-51 0 -71.5 37t-20.5 106v118h-75q-3 13 -3.5 27.5t3.5 28.5h75v106q-14 3 -35 7t-40 6q-3 10 -3 20t1 20q18 4 38 7.5t39 4.5l33 136q12 1 24.5 0t26.5 -6v-132l156 -2q0 -16 -1 -31t-3 -30h-152v-106h150q3 -14 3 -28t-3 -28h-150
v-80q0 -54 11.5 -82t35.5 -28q26 0 49 5.5t50 15.5q8 -8 12.5 -19.5t4.5 -25.5z" />
    <glyph glyph-name="Utilde" unicode="&#x168;" horiz-adv-x="695" 
d="M599 247q0 -58 -16 -107t-48.5 -84t-83.5 -54.5t-120 -19.5q-112 0 -170.5 59t-58.5 193v232q0 44 -1.5 77t-3.5 61q-22 7 -43.5 12t-43.5 7q0 12 2 24t6 24q32 0 63 -1t64 -1q25 0 63 0.5t60 1.5q4 -11 5.5 -23t0.5 -25q-18 -7 -38.5 -12t-42.5 -7q-2 -28 -2.5 -61
t-0.5 -77v-201q0 -109 37.5 -160t137.5 -51q42 0 77 12t45 23q9 10 25 45t16 101v231q0 44 -1.5 77t-3.5 61q-22 7 -43.5 12t-43.5 7q0 12 2 24t6 24q32 0 63 -1t64 -1q21 0 53 0.5t54 1.5q4 -11 5.5 -23t0.5 -25q-18 -7 -38.5 -12t-42.5 -7q-2 -28 -3 -61t-1 -77v-219z
M209 744q-13 4 -21 10.5t-12 16.5q23 43 58 71.5t65 28.5q19 0 37 -10t34.5 -22.5t32.5 -22.5t32 -10q11 0 31 14.5t39 39.5q13 -4 21 -10.5t12 -16.5q-23 -43 -58 -71.5t-65 -28.5q-19 0 -37 10t-34.5 22.5t-32.5 22.5t-32 10q-11 0 -31 -14.5t-39 -39.5z" />
    <glyph glyph-name="utilde" unicode="&#x169;" horiz-adv-x="582" 
d="M560 37q-23 -20 -56 -35.5t-59 -15.5q-18 0 -31.5 30.5t-18.5 65.5q-35 -39 -74.5 -67.5t-88.5 -28.5q-66 0 -101.5 40t-35.5 123v256q-20 7 -38.5 11.5t-39.5 8.5q0 9 1.5 22.5t4.5 23.5q30 -1 57 -1.5t59 -0.5h34l8 -8q-1 -36 -1.5 -75t-0.5 -75.5v-68.5v-54
q0 -59 17.5 -93.5t60.5 -34.5q16 0 35 8.5t38 20.5t35.5 25.5t26.5 23.5v267q-20 7 -38 11.5t-40 8.5q0 9 1.5 22.5t4.5 23.5q30 -1 57 -1.5t58 -0.5h36l8 -8q-2 -75 -2.5 -140.5t-0.5 -147.5v-36q0 -20 1 -41.5t4 -37.5q16 2 33 7t31 9q7 -7 11 -16.5t4 -20.5zM116 552
q-13 4 -21.5 11t-12.5 17q24 45 60 74t67 29q21 0 38.5 -10.5t34 -23t33.5 -23t36 -10.5q12 0 33 15.5t40 40.5q12 -3 20.5 -9.5t14.5 -16.5q-24 -45 -61 -75t-69 -30q-20 0 -38 10.5t-34.5 23t-33 23t-34.5 10.5q-12 0 -33 -15.5t-40 -40.5z" />
    <glyph glyph-name="Umacron" unicode="&#x16a;" horiz-adv-x="695" 
d="M599 247q0 -58 -16 -107t-48.5 -84t-83.5 -54.5t-120 -19.5q-112 0 -170.5 59t-58.5 193v232q0 44 -1.5 77t-3.5 61q-22 7 -43.5 12t-43.5 7q0 12 2 24t6 24q32 0 63 -1t64 -1q25 0 63 0.5t60 1.5q4 -11 5.5 -23t0.5 -25q-18 -7 -38.5 -12t-42.5 -7q-2 -28 -2.5 -61
t-0.5 -77v-201q0 -109 37.5 -160t137.5 -51q42 0 77 12t45 23q9 10 25 45t16 101v231q0 44 -1.5 77t-3.5 61q-22 7 -43.5 12t-43.5 7q0 12 2 24t6 24q32 0 63 -1t64 -1q21 0 53 0.5t54 1.5q4 -11 5.5 -23t0.5 -25q-18 -7 -38.5 -12t-42.5 -7q-2 -28 -3 -61t-1 -77v-219z
M215 809h283q6 -16 6 -32.5t-6 -32.5h-283q-5 16 -4.5 32.5t4.5 32.5z" />
    <glyph glyph-name="umacron" unicode="&#x16b;" horiz-adv-x="582" 
d="M560 37q-23 -20 -56 -35.5t-59 -15.5q-18 0 -31.5 30.5t-18.5 65.5q-35 -39 -74.5 -67.5t-88.5 -28.5q-66 0 -101.5 40t-35.5 123v256q-20 7 -38.5 11.5t-39.5 8.5q0 9 1.5 22.5t4.5 23.5q30 -1 57 -1.5t59 -0.5h34l8 -8q-1 -36 -1.5 -75t-0.5 -75.5v-68.5v-54
q0 -59 17.5 -93.5t60.5 -34.5q16 0 35 8.5t38 20.5t35.5 25.5t26.5 23.5v267q-20 7 -38 11.5t-40 8.5q0 9 1.5 22.5t4.5 23.5q30 -1 57 -1.5t58 -0.5h36l8 -8q-2 -75 -2.5 -140.5t-0.5 -147.5v-36q0 -20 1 -41.5t4 -37.5q16 2 33 7t31 9q7 -7 11 -16.5t4 -20.5zM131 632h275
q6 -16 6 -33.5t-6 -33.5h-275q-5 16 -4.5 33.5t4.5 33.5z" />
    <glyph glyph-name="Ubreve" unicode="&#x16c;" horiz-adv-x="695" 
d="M599 247q0 -58 -16 -107t-48.5 -84t-83.5 -54.5t-120 -19.5q-112 0 -170.5 59t-58.5 193v232q0 44 -1.5 77t-3.5 61q-22 7 -43.5 12t-43.5 7q0 12 2 24t6 24q32 0 63 -1t64 -1q25 0 63 0.5t60 1.5q4 -11 5.5 -23t0.5 -25q-18 -7 -38.5 -12t-42.5 -7q-2 -28 -2.5 -61
t-0.5 -77v-201q0 -109 37.5 -160t137.5 -51q42 0 77 12t45 23q9 10 25 45t16 101v231q0 44 -1.5 77t-3.5 61q-22 7 -43.5 12t-43.5 7q0 12 2 24t6 24q32 0 63 -1t64 -1q21 0 53 0.5t54 1.5q4 -11 5.5 -23t0.5 -25q-18 -7 -38.5 -12t-42.5 -7q-2 -28 -3 -61t-1 -77v-219z
M350 735q-32 0 -57.5 10.5t-44 25.5t-31 32.5t-17.5 32.5q4 10 12 17t21 11q21 -22 54 -40t73 -18q43 0 73 18.5t50 39.5q13 -4 21 -11t10 -17q-19 -37 -60 -69t-104 -32z" />
    <glyph glyph-name="ubreve" unicode="&#x16d;" horiz-adv-x="582" 
d="M560 37q-23 -20 -56 -35.5t-59 -15.5q-18 0 -31.5 30.5t-18.5 65.5q-35 -39 -74.5 -67.5t-88.5 -28.5q-66 0 -101.5 40t-35.5 123v256q-20 7 -38.5 11.5t-39.5 8.5q0 9 1.5 22.5t4.5 23.5q30 -1 57 -1.5t59 -0.5h34l8 -8q-1 -36 -1.5 -75t-0.5 -75.5v-68.5v-54
q0 -59 17.5 -93.5t60.5 -34.5q16 0 35 8.5t38 20.5t35.5 25.5t26.5 23.5v267q-20 7 -38 11.5t-40 8.5q0 9 1.5 22.5t4.5 23.5q30 -1 57 -1.5t58 -0.5h36l8 -8q-2 -75 -2.5 -140.5t-0.5 -147.5v-36q0 -20 1 -41.5t4 -37.5q16 2 33 7t31 9q7 -7 11 -16.5t4 -20.5zM263 544
q-32 0 -57.5 12t-44.5 30t-31.5 38.5t-17.5 36.5q4 10 12 17t21 11q21 -27 54 -49t73 -22q43 0 73 22.5t50 48.5q13 -4 21 -11t10 -17q-5 -16 -19.5 -36t-35.5 -38t-48.5 -30.5t-59.5 -12.5z" />
    <glyph glyph-name="Uring" unicode="&#x16e;" horiz-adv-x="695" 
d="M599 247q0 -58 -16 -107t-48.5 -84t-83.5 -54.5t-120 -19.5q-112 0 -170.5 59t-58.5 193v232q0 44 -1.5 77t-3.5 61q-22 7 -43.5 12t-43.5 7q0 12 2 24t6 24q32 0 63 -1t64 -1q25 0 63 0.5t60 1.5q4 -11 5.5 -23t0.5 -25q-18 -7 -38.5 -12t-42.5 -7q-2 -28 -2.5 -61
t-0.5 -77v-201q0 -109 37.5 -160t137.5 -51q42 0 77 12t45 23q9 10 25 45t16 101v231q0 44 -1.5 77t-3.5 61q-22 7 -43.5 12t-43.5 7q0 12 2 24t6 24q32 0 63 -1t64 -1q21 0 53 0.5t54 1.5q4 -11 5.5 -23t0.5 -25q-18 -7 -38.5 -12t-42.5 -7q-2 -28 -3 -61t-1 -77v-219z
M353 713q-46 0 -73 24.5t-27 73.5q0 37 33.5 69t76.5 32q46 0 73 -24.5t27 -73.5q0 -36 -33.5 -68.5t-76.5 -32.5zM359 764q10 0 20 3.5t14 6.5q5 4 9 13.5t4 22.5q0 19 -14.5 35t-34.5 16q-10 0 -20 -3t-14 -6q-5 -4 -9 -13.5t-4 -22.5q0 -19 14.5 -35.5t34.5 -16.5z" />
    <glyph glyph-name="uring" unicode="&#x16f;" horiz-adv-x="582" 
d="M560 37q-23 -20 -56 -35.5t-59 -15.5q-18 0 -31.5 30.5t-18.5 65.5q-35 -39 -74.5 -67.5t-88.5 -28.5q-66 0 -101.5 40t-35.5 123v256q-20 7 -38.5 11.5t-39.5 8.5q0 9 1.5 22.5t4.5 23.5q30 -1 57 -1.5t59 -0.5h34l8 -8q-1 -36 -1.5 -75t-0.5 -75.5v-68.5v-54
q0 -59 17.5 -93.5t60.5 -34.5q16 0 35 8.5t38 20.5t35.5 25.5t26.5 23.5v267q-20 7 -38 11.5t-40 8.5q0 9 1.5 22.5t4.5 23.5q30 -1 57 -1.5t58 -0.5h36l8 -8q-2 -75 -2.5 -140.5t-0.5 -147.5v-36q0 -20 1 -41.5t4 -37.5q16 2 33 7t31 9q7 -7 11 -16.5t4 -20.5zM265 536
q-46 0 -73.5 25t-27.5 74q0 37 34 69.5t77 32.5q46 0 73.5 -24.5t27.5 -74.5q0 -36 -34 -69t-77 -33zM271 589q10 0 19.5 3.5t13.5 6.5q5 4 9 13t4 22q0 19 -14.5 34.5t-33.5 15.5q-10 0 -19.5 -3t-13.5 -6q-5 -4 -9 -13t-4 -22q0 -19 14.5 -35t33.5 -16z" />
    <glyph glyph-name="Uhungarumlaut" unicode="&#x170;" horiz-adv-x="695" 
d="M599 247q0 -58 -16 -107t-48.5 -84t-83.5 -54.5t-120 -19.5q-112 0 -170.5 59t-58.5 193v232q0 44 -1.5 77t-3.5 61q-22 7 -43.5 12t-43.5 7q0 12 2 24t6 24q32 0 63 -1t64 -1q25 0 63 0.5t60 1.5q4 -11 5.5 -23t0.5 -25q-18 -7 -38.5 -12t-42.5 -7q-2 -28 -2.5 -61
t-0.5 -77v-201q0 -109 37.5 -160t137.5 -51q42 0 77 12t45 23q9 10 25 45t16 101v231q0 44 -1.5 77t-3.5 61q-22 7 -43.5 12t-43.5 7q0 12 2 24t6 24q32 0 63 -1t64 -1q21 0 53 0.5t54 1.5q4 -11 5.5 -23t0.5 -25q-18 -7 -38.5 -12t-42.5 -7q-2 -28 -3 -61t-1 -77v-219z
M399 908l6 -23l-112 -162q-13 2 -22.5 7.5t-16.5 13.5l65 150q20 7 40.5 10.5t39.5 3.5zM555 908l6 -23l-112 -162q-13 2 -22.5 7.5t-16.5 13.5l65 150q20 7 40.5 10.5t39.5 3.5z" />
    <glyph glyph-name="uhungarumlaut" unicode="&#x171;" horiz-adv-x="582" 
d="M560 37q-23 -20 -56 -35.5t-59 -15.5q-18 0 -31.5 30.5t-18.5 65.5q-35 -39 -74.5 -67.5t-88.5 -28.5q-66 0 -101.5 40t-35.5 123v256q-20 7 -38.5 11.5t-39.5 8.5q0 9 1.5 22.5t4.5 23.5q30 -1 57 -1.5t59 -0.5h34l8 -8q-1 -36 -1.5 -75t-0.5 -75.5v-68.5v-54
q0 -59 17.5 -93.5t60.5 -34.5q16 0 35 8.5t38 20.5t35.5 25.5t26.5 23.5v267q-20 7 -38 11.5t-40 8.5q0 9 1.5 22.5t4.5 23.5q30 -1 57 -1.5t58 -0.5h36l8 -8q-2 -75 -2.5 -140.5t-0.5 -147.5v-36q0 -20 1 -41.5t4 -37.5q16 2 33 7t31 9q7 -7 11 -16.5t4 -20.5zM446 741
l5 -18l-103 -185q-13 1 -24 5.5t-18 11.5l54 165q20 10 40.5 15.5t45.5 5.5zM303 741l5 -18l-103 -185q-13 1 -23.5 5.5t-17.5 11.5l54 165q19 10 39.5 15.5t45.5 5.5z" />
    <glyph glyph-name="Uogonek" unicode="&#x172;" horiz-adv-x="695" 
d="M544 -182q-29 -17 -55.5 -25t-53.5 -8q-36 0 -60 23.5t-24 56.5q0 32 24 66.5t61 63.5l-2 2q-22 -7 -48.5 -11t-54.5 -4q-112 0 -170.5 59t-58.5 193v232q0 44 -1.5 77t-3.5 61q-22 7 -43.5 12t-43.5 7q0 12 2 24t6 24q32 0 63 -1t64 -1q25 0 63 0.5t60 1.5
q4 -11 5.5 -23t0.5 -25q-18 -7 -38.5 -12t-42.5 -7q-2 -28 -2.5 -61t-0.5 -77v-201q0 -109 37.5 -160t137.5 -51q42 0 77 12t45 23q9 10 25 45t16 101v231q0 44 -1.5 77t-3.5 61q-22 7 -43.5 12t-43.5 7q0 12 2 24t6 24q32 0 63 -1t64 -1q21 0 53 0.5t54 1.5q4 -11 5.5 -23
t0.5 -25q-18 -7 -38.5 -12t-42.5 -7q-2 -28 -3 -61t-1 -77v-219q0 -56 -15 -106.5t-61 -95.5q-11 -11 -26.5 -28t-29.5 -36.5t-24 -40t-10 -39.5q0 -25 12 -38.5t28 -13.5q14 0 27 2.5t31 6.5q6 -7 9.5 -17t3.5 -23z" />
    <glyph glyph-name="uogonek" unicode="&#x173;" horiz-adv-x="582" 
d="M535 -181q-29 -17 -55.5 -25t-53.5 -8q-36 0 -60 24t-24 58t22 63.5t68 59.5q-13 10 -23 36.5t-14 54.5q-35 -39 -74.5 -67.5t-88.5 -28.5q-66 0 -101.5 40t-35.5 123v256q-20 7 -38.5 11.5t-39.5 8.5q0 9 1.5 22.5t4.5 23.5q30 -1 57 -1.5t59 -0.5h34l8 -8
q-1 -36 -1.5 -75t-0.5 -75.5v-68.5v-54q0 -59 17.5 -93.5t60.5 -34.5q16 0 35 8.5t38 20.5t35.5 25.5t26.5 23.5v267q-20 7 -38 11.5t-40 8.5q0 9 1.5 22.5t4.5 23.5q30 -1 57 -1.5t58 -0.5h36l8 -8q-2 -67 -2.5 -126.5t-0.5 -129.5v-68q0 -20 1 -41.5t4 -37.5q16 2 33 7
t31 9q7 -7 11 -16.5t4 -20.5q-71 -40 -103.5 -75.5t-32.5 -63.5q0 -22 11.5 -35t30.5 -13q13 0 25.5 2.5t30.5 7.5q6 -8 9.5 -18t3.5 -23z" />
    <glyph glyph-name="Wcircumflex" unicode="&#x174;" horiz-adv-x="962" 
d="M351 9q-19 -7 -49.5 -10.5t-55.5 -3.5l-161 609q-20 7 -40 12t-40 7q0 12 2 24t6 24q32 0 63 -1t64 -1h29h34.5t33.5 0.5t27 1.5q4 -11 5.5 -23t0.5 -25l-88 -19l113 -439l5 -85h1l154 582q18 7 39 10t43 3l129 -510l6 -85h1l133 524l-94 19q0 12 2 24t6 24q32 0 61 -1
t54 -1h23.5h30t31 0.5t26.5 1.5q4 -11 5.5 -23t0.5 -25q-16 -7 -35 -12t-39 -7l-158 -595q-19 -7 -47 -10.5t-53 -3.5l-119 471l-4 101h-1zM664 758q-5 -12 -13.5 -22t-19.5 -17l-136 93l-132 -93q-10 6 -16.5 15t-10.5 19l128 134q15 3 31 4.5t32 1.5z" />
    <glyph glyph-name="wcircumflex" unicode="&#x175;" horiz-adv-x="794" 
d="M299 9q-20 -7 -47 -10.5t-49 -3.5l-131 413q-10 5 -26 10.5t-29 7.5q0 12 2 24.5t5 20.5q19 0 44.5 -1t51.5 -1t54.5 0.5t56.5 1.5q4 -10 5 -21.5t0 -23.5l-77 -18l87 -275l5 -73h1l109 405q19 6 42.5 8t44.5 2l91 -342l6 -73h1l110 350l-77 16q0 12 2 24.5t5 20.5
q24 0 52.5 -1t59.5 -1q16 0 35 0.5t40 1.5q4 -10 5 -21.5t0 -23.5q-13 -7 -27.5 -11.5t-29.5 -6.5l-130 -399q-20 -7 -48.5 -10.5t-50.5 -3.5l-83 307l-6 79h-1zM563 550q-4 -10 -13.5 -18.5t-22.5 -12.5l-118 123l-111 -123q-11 3 -19.5 10.5t-13.5 17.5l110 173q16 4 33 6
t33 1z" />
    <glyph glyph-name="Ycircumflex" unicode="&#x176;" horiz-adv-x="650" 
d="M478 47q1 -13 -1 -25t-6 -23q-12 1 -31 1.5t-39 0.5h-39.5h-33.5q-38 0 -73.5 -1t-72.5 -1q-5 12 -7 24t-2 24q27 2 53.5 7t53.5 12q3 14 4 29.5t1 31.5v109l-200 368q-20 7 -40 12t-40 7q0 12 2 24t6 24q32 0 64 -1t68 -1q28 0 66.5 0.5t60.5 1.5q4 -11 5.5 -23t0.5 -25
l-88 -19l150 -279l152 279l-94 19q0 12 2 24t6 24q32 0 61.5 -1t54.5 -1h23.5h30.5t31.5 0.5t26.5 1.5q4 -11 5.5 -23t0.5 -25q-16 -7 -35 -12t-39 -7l-193 -354v-101q0 -22 1 -43t3 -40q28 -2 53.5 -7t47.5 -12zM505 758q-5 -12 -13.5 -22t-19.5 -17l-136 93l-132 -93
q-10 6 -16.5 15t-10.5 19l128 134q15 3 31 4.5t32 1.5z" />
    <glyph glyph-name="ycircumflex" unicode="&#x177;" horiz-adv-x="535" 
d="M314 8q-21 -57 -43.5 -105.5t-46 -83.5t-49.5 -55t-54 -20q-32 0 -58 8.5t-39 17.5q0 14 4.5 25t11.5 19h13q71 0 112 43t71 109l15 34h-30l-149 408q-10 6 -26 11t-29 7q0 12 2 24.5t5 20.5q19 0 44 -1t53 -1q26 0 56.5 0.5t58.5 1.5q4 -10 5 -21.5t0 -23.5l-77 -18
l100 -275l4 -73h1l125 350l-77 16q0 12 2 24.5t5 20.5q23 0 52 -1t61 -1q17 0 37 0.5t40 1.5q4 -10 5 -21.5t0 -23.5q-13 -7 -27.5 -11.5t-29.5 -6.5zM428 550q-4 -10 -13.5 -18.5t-22.5 -12.5l-118 123l-111 -123q-11 3 -19.5 10.5t-13.5 17.5l110 173q16 4 33 6t33 1z" />
    <glyph glyph-name="Ydieresis" unicode="&#x178;" horiz-adv-x="650" 
d="M478 47q1 -13 -1 -25t-6 -23q-12 1 -31 1.5t-39 0.5h-39.5h-33.5q-38 0 -73.5 -1t-72.5 -1q-5 12 -7 24t-2 24q27 2 53.5 7t53.5 12q3 14 4 29.5t1 31.5v109l-200 368q-20 7 -40 12t-40 7q0 12 2 24t6 24q32 0 64 -1t68 -1q28 0 66.5 0.5t60.5 1.5q4 -11 5.5 -23t0.5 -25
l-88 -19l150 -279l152 279l-94 19q0 12 2 24t6 24q32 0 61.5 -1t54.5 -1h23.5h30.5t31.5 0.5t26.5 1.5q4 -11 5.5 -23t0.5 -25q-16 -7 -35 -12t-39 -7l-193 -354v-101q0 -22 1 -43t3 -40q28 -2 53.5 -7t47.5 -12zM244 743q-18 0 -33.5 12.5t-15.5 30.5q0 22 16.5 43.5
t41.5 21.5q17 0 32.5 -13t15.5 -32q0 -23 -16.5 -42.5t-40.5 -20.5zM427 743q-16 0 -32 12.5t-16 30.5q0 22 16.5 43.5t40.5 21.5q19 0 34 -13t15 -32q0 -23 -16.5 -42.5t-41.5 -20.5z" />
    <glyph glyph-name="Zacute" unicode="&#x179;" horiz-adv-x="606" 
d="M546 7l-8 -8q-23 1 -53 1.5t-61.5 0.5h-63h-57.5h-259q-6 15 -9 31.5t-2 32.5l395 540h-289q-7 -27 -11 -55t-5 -55q-13 -4 -26.5 -4.5t-26.5 4.5q-6 40 -8 82.5t-1 86.5l8 7q23 -1 53 -1.5t61.5 -0.5h63h57.5h210q10 -13 17.5 -29t11.5 -35l-397 -540h322
q10 30 19.5 60.5t16.5 61.5q13 3 26 1.5t27 -5.5q0 -44 -2.5 -88t-8.5 -88zM232 767l186 130q16 -9 28.5 -23.5t22.5 -33.5l-3 -20l-213 -93q-8 7 -13 18t-8 22z" />
    <glyph glyph-name="zacute" unicode="&#x17a;" horiz-adv-x="478" 
d="M421 7l-8 -8q-23 1 -53 1.5t-61.5 0.5h-63h-57.5h-123q-6 13 -10 28.5t-4 30.5l277 354h-188q-5 -22 -10 -45.5t-6 -46.5q-13 -3 -27 -3t-27 3q-5 34 -7.5 69.5t-1.5 71.5l8 8q23 -1 53 -1.5t61.5 -0.5h63h57.5h107q8 -13 12.5 -27t5.5 -30l-278 -354h202q10 25 19.5 53
t15.5 55q13 4 26 2t25 -6q1 -40 -1 -78t-7 -77zM173 550l110 167q25 7 49.5 9.5t49.5 2.5l8 -23l-179 -184q-13 3 -22 10t-16 18z" />
    <glyph glyph-name="Zdotaccent" unicode="&#x17b;" horiz-adv-x="606" 
d="M546 7l-8 -8q-23 1 -53 1.5t-61.5 0.5h-63h-57.5h-259q-6 15 -9 31.5t-2 32.5l395 540h-289q-7 -27 -11 -55t-5 -55q-13 -4 -26.5 -4.5t-26.5 4.5q-6 40 -8 82.5t-1 86.5l8 7q23 -1 53 -1.5t61.5 -0.5h63h57.5h210q10 -13 17.5 -29t11.5 -35l-397 -540h322
q10 30 19.5 60.5t16.5 61.5q13 3 26 1.5t27 -5.5q0 -44 -2.5 -88t-8.5 -88zM308 740q-19 0 -36.5 14t-17.5 35q0 24 18.5 47.5t44.5 23.5q20 0 37 -14t17 -36q0 -25 -18 -47.5t-45 -22.5z" />
    <glyph glyph-name="zdotaccent" unicode="&#x17c;" horiz-adv-x="478" 
d="M421 7l-8 -8q-23 1 -53 1.5t-61.5 0.5h-63h-57.5h-123q-6 13 -10 28.5t-4 30.5l277 354h-188q-5 -22 -10 -45.5t-6 -46.5q-13 -3 -27 -3t-27 3q-5 34 -7.5 69.5t-1.5 71.5l8 8q23 -1 53 -1.5t61.5 -0.5h63h57.5h107q8 -13 12.5 -27t5.5 -30l-278 -354h202q10 25 19.5 53
t15.5 55q13 4 26 2t25 -6q1 -40 -1 -78t-7 -77zM228 561q-20 0 -40 16t-20 38q0 27 20.5 52.5t48.5 25.5q22 0 41 -16t19 -39q0 -27 -20 -52t-49 -25z" />
    <glyph glyph-name="Zcaron" unicode="&#x17d;" horiz-adv-x="606" 
d="M546 7l-8 -8q-23 1 -53 1.5t-61.5 0.5h-63h-57.5h-259q-6 15 -9 31.5t-2 32.5l395 540h-289q-7 -27 -11 -55t-5 -55q-13 -4 -26.5 -4.5t-26.5 4.5q-6 40 -8 82.5t-1 86.5l8 7q23 -1 53 -1.5t61.5 -0.5h63h57.5h210q10 -13 17.5 -29t11.5 -35l-397 -540h322
q10 30 19.5 60.5t16.5 61.5q13 3 26 1.5t27 -5.5q0 -44 -2.5 -88t-8.5 -88zM348 732q-15 -3 -31 -4.5t-32 -1.5l-137 135q5 12 13.5 22t19.5 17l136 -93l132 93q10 -6 16.5 -15t10.5 -19z" />
    </font>
</defs>
</svg>
