<?xml version="1.0" standalone="no"?>
<!DOCTYPE svg PUBLIC "-//W3C//DTD SVG 20010904//EN"
 "http://www.w3.org/TR/2001/REC-SVG-20010904/DTD/svg10.dtd">
<svg version="1.0" xmlns="http://www.w3.org/2000/svg"
 width="500.000000pt" height="500.000000pt" viewBox="0 0 500.000000 500.000000"
 preserveAspectRatio="xMidYMid meet">
<metadata>
Created by potrace 1.11, written by Peter Selinger 2001-2013
</metadata>
<g transform="translate(0.000000,500.000000) scale(0.100000,-0.100000)"
fill="#000000" stroke="none">
<path d="M0 2500 l0 -2500 2500 0 2500 0 0 2500 0 2500 -2500 0 -2500 0 0
-2500z m601 40 c-2 -160 -8 -185 -50 -217 -44 -32 -138 -22 -188 21 l-27 23
40 21 c34 18 42 18 59 6 24 -18 40 -18 59 2 13 13 16 42 16 160 l0 145 46 -3
46 -3 -1 -155z m199 20 c0 -127 2 -142 20 -160 21 -21 46 -25 67 -12 24 15 33
66 33 188 l0 124 45 0 45 0 0 -137 c0 -114 -4 -145 -19 -180 -41 -90 -174
-108 -246 -33 l-30 31 -5 156 c-3 85 -3 157 -1 159 2 2 24 4 48 4 l43 0 0
-140z m527 114 c37 -28 38 -37 2 -63 -28 -21 -32 -21 -48 -7 -24 22 -87 21
-95 0 -10 -25 17 -48 77 -67 65 -21 97 -52 104 -104 6 -49 -28 -103 -77 -120
-60 -22 -165 0 -199 40 -10 12 -6 19 19 37 29 21 32 21 64 6 56 -26 96 -18 96
19 0 19 -12 28 -66 51 -80 34 -114 71 -114 123 0 42 28 86 64 102 37 16 143 5
173 -17z m373 -14 l0 -40 -50 0 -50 0 0 -155 0 -155 -50 0 -50 0 0 155 0 155
-50 0 -50 0 0 33 c0 19 3 37 7 40 3 4 71 7 150 7 l143 0 0 -40z m233 -2 c8
-24 38 -109 66 -190 28 -81 51 -150 51 -153 0 -3 -22 -5 -49 -5 -46 0 -49 2
-57 33 -10 31 -11 32 -69 32 -58 0 -59 -1 -69 -32 -8 -31 -11 -33 -57 -33 -27
0 -49 3 -49 8 0 7 85 256 116 340 15 41 17 42 59 42 42 0 44 -1 58 -42z m404
17 c48 -28 63 -69 63 -172 0 -156 -38 -193 -197 -193 l-93 0 0 196 0 196 98
-4 c72 -3 105 -9 129 -23z m381 -2 c45 -33 62 -79 62 -168 -1 -157 -43 -198
-202 -193 l-93 3 -3 180 c-1 98 0 186 3 193 9 24 198 11 233 -15z m380 -2 c18
-12 32 -25 32 -29 0 -4 -15 -17 -33 -28 -29 -19 -35 -20 -53 -7 -10 7 -35 13
-54 11 -29 -3 -35 -7 -35 -27 0 -20 11 -28 70 -52 84 -34 104 -58 105 -120 0
-58 -29 -93 -91 -109 -55 -15 -131 0 -173 33 l-29 24 36 22 c34 21 36 21 71 4
27 -13 43 -14 64 -7 41 14 35 45 -13 67 -97 44 -110 53 -129 91 -17 36 -18 43
-5 80 19 56 63 78 144 74 43 -3 70 -10 93 -27z m202 -111 c0 -127 2 -142 20
-160 21 -21 47 -25 66 -12 27 18 34 56 34 181 l0 131 45 0 45 0 0 -142 c0
-163 -11 -198 -70 -232 -44 -26 -126 -27 -164 -3 -57 38 -66 68 -66 230 l0
147 45 0 45 0 0 -140z m515 124 c22 -10 41 -31 54 -57 l21 -42 -41 -3 c-32 -3
-46 2 -61 18 -14 15 -29 20 -51 18 -27 -3 -34 -9 -45 -43 -17 -50 -9 -151 15
-177 21 -24 48 -23 73 2 23 23 19 40 -9 40 -14 0 -20 9 -23 35 l-4 35 74 0 75
0 -7 -56 c-12 -104 -54 -148 -141 -148 -59 0 -104 23 -131 68 -27 44 -27 206
-1 254 36 66 127 92 202 56z m405 -166 c35 -101 65 -189 68 -195 3 -9 -10 -13
-45 -13 -48 0 -51 1 -59 33 -9 31 -12 32 -67 35 -57 3 -58 3 -72 -32 -15 -34
-18 -36 -64 -36 l-48 0 64 183 c35 100 66 188 68 195 3 7 22 12 48 12 l44 0
63 -182z m371 156 c62 -36 72 -126 22 -180 l-25 -27 36 -78 35 -79 -50 0 -50
0 -34 75 c-26 58 -39 75 -54 75 -19 0 -21 -6 -21 -75 l0 -75 -50 0 -50 0 0
188 c0 104 3 192 8 196 4 5 50 6 103 4 72 -4 105 -10 130 -24z"/>
<path d="M1856 2511 c-9 -30 -16 -56 -16 -58 0 -2 16 -3 36 -3 39 0 38 -4 9
80 l-12 35 -17 -54z"/>
<path d="M2200 2505 l0 -115 39 0 c56 0 71 25 71 117 0 86 -18 113 -75 113
l-35 0 0 -115z"/>
<path d="M2580 2504 l0 -115 42 3 c57 4 70 29 66 126 -4 84 -17 102 -75 102
l-33 0 0 -116z"/>
<path d="M4091 2521 c-7 -24 -15 -49 -18 -57 -4 -10 4 -14 31 -14 35 0 36 1
30 28 -4 15 -12 40 -18 56 l-12 29 -13 -42z"/>
<path d="M4450 2575 c0 -44 1 -45 31 -45 43 0 69 17 69 45 0 28 -26 45 -69 45
-30 0 -31 -1 -31 -45z"/>
</g>
</svg>
